Aleo-BoldItalic.ufo
<glyph name="exclam" format="1">
  <advance width="343"/>
  <unicode hex="0021"/>
  <note>
    exclam
  </note>
  <outline>
    <contour>
      <point x="244" y="437" type="curve" smooth="yes"/>
      <point x="280" y="723" type="line"/>
      <point x="163" y="723" type="line"/>
      <point x="128" y="437" type="line" smooth="yes"/>
      <point x="124" y="407"/>
      <point x="122" y="377"/>
      <point x="121" y="348" type="curve" smooth="yes"/>
      <point x="120" y="319"/>
      <point x="121" y="288"/>
      <point x="122" y="255" type="curve"/>
      <point x="206" y="255" type="line"/>
      <point x="215" y="288"/>
      <point x="222" y="319"/>
      <point x="229" y="348" type="curve" smooth="yes"/>
      <point x="236" y="377"/>
      <point x="240" y="407"/>
    </contour>
    <contour>
      <point x="64" y="68" type="curve" smooth="yes"/>
      <point x="63" y="57"/>
      <point x="63" y="47"/>
      <point x="66" y="38" type="curve" smooth="yes"/>
      <point x="69" y="29"/>
      <point x="73" y="22"/>
      <point x="79" y="15" type="curve" smooth="yes"/>
      <point x="85" y="8"/>
      <point x="92" y="3"/>
      <point x="101" y="-1" type="curve" smooth="yes"/>
      <point x="110" y="-5"/>
      <point x="119" y="-7"/>
      <point x="130" y="-7" type="curve" smooth="yes"/>
      <point x="140" y="-7"/>
      <point x="151" y="-5"/>
      <point x="161" y="-1" type="curve" smooth="yes"/>
      <point x="171" y="3"/>
      <point x="180" y="8"/>
      <point x="187" y="15" type="curve" smooth="yes"/>
      <point x="194" y="22"/>
      <point x="200" y="29"/>
      <point x="205" y="38" type="curve" smooth="yes"/>
      <point x="210" y="47"/>
      <point x="214" y="57"/>
      <point x="215" y="68" type="curve" smooth="yes"/>
      <point x="216" y="78"/>
      <point x="216" y="89"/>
      <point x="213" y="98" type="curve" smooth="yes"/>
      <point x="210" y="107"/>
      <point x="206" y="115"/>
      <point x="200" y="122" type="curve" smooth="yes"/>
      <point x="194" y="129"/>
      <point x="187" y="134"/>
      <point x="178" y="138" type="curve" smooth="yes"/>
      <point x="169" y="142"/>
      <point x="159" y="144"/>
      <point x="149" y="144" type="curve" smooth="yes"/>
      <point x="138" y="144"/>
      <point x="128" y="142"/>
      <point x="118" y="138" type="curve" smooth="yes"/>
      <point x="108" y="134"/>
      <point x="100" y="129"/>
      <point x="92" y="122" type="curve" smooth="yes"/>
      <point x="84" y="115"/>
      <point x="78" y="107"/>
      <point x="73" y="98" type="curve" smooth="yes"/>
      <point x="68" y="89"/>
      <point x="65" y="78"/>
    </contour>
  </outline>
</glyph>
<glyph name="quotedbl" format="1">
  <advance width="417"/>
  <unicode hex="0022"/>
  <note>
    quotedbl
  </note>
  <outline>
    <contour>
      <point x="162" y="579" type="line"/>
      <point x="179" y="723" type="line"/>
      <point x="72" y="723" type="line"/>
      <point x="54" y="579" type="line"/>
      <point x="55" y="501" type="line" smooth="yes"/>
      <point x="55" y="486"/>
      <point x="59" y="475"/>
      <point x="65" y="467" type="curve" smooth="yes"/>
      <point x="71" y="459"/>
      <point x="80" y="456"/>
      <point x="92" y="456" type="curve" smooth="yes"/>
      <point x="106" y="456"/>
      <point x="117" y="459"/>
      <point x="124" y="467" type="curve" smooth="yes"/>
      <point x="131" y="475"/>
      <point x="136" y="486"/>
      <point x="140" y="501" type="curve" smooth="yes"/>
    </contour>
    <contour>
      <point x="346" y="579" type="line"/>
      <point x="363" y="723" type="line"/>
      <point x="256" y="723" type="line"/>
      <point x="238" y="579" type="line"/>
      <point x="239" y="501" type="line" smooth="yes"/>
      <point x="239" y="486"/>
      <point x="243" y="475"/>
      <point x="249" y="467" type="curve" smooth="yes"/>
      <point x="255" y="459"/>
      <point x="264" y="456"/>
      <point x="276" y="456" type="curve" smooth="yes"/>
      <point x="290" y="456"/>
      <point x="301" y="459"/>
      <point x="308" y="467" type="curve" smooth="yes"/>
      <point x="315" y="475"/>
      <point x="320" y="486"/>
      <point x="324" y="501" type="curve" smooth="yes"/>
    </contour>
  </outline>
</glyph>
<glyph name="numbersign" format="1">
  <advance width="655"/>
  <unicode hex="0023"/>
  <note>
    numbersign
  </note>
  <outline>
    <contour>
      <point x="364" y="0" type="line"/>
      <point x="428" y="204" type="line"/>
      <point x="536" y="204" type="line"/>
      <point x="547" y="243" type="line"/>
      <point x="549" y="249"/>
      <point x="550" y="254"/>
      <point x="551" y="259" type="curve" smooth="yes"/>
      <point x="553" y="271"/>
      <point x="551" y="280"/>
      <point x="546" y="285" type="curve" smooth="yes"/>
      <point x="541" y="290"/>
      <point x="533" y="293"/>
      <point x="522" y="293" type="curve" smooth="yes"/>
      <point x="451" y="293" type="line"/>
      <point x="494" y="431" type="line"/>
      <point x="544" y="431" type="line" smooth="yes"/>
      <point x="562" y="431"/>
      <point x="575" y="434"/>
      <point x="584" y="440" type="curve" smooth="yes"/>
      <point x="593" y="446"/>
      <point x="599" y="455"/>
      <point x="603" y="468" type="curve" smooth="yes"/>
      <point x="619" y="520" type="line"/>
      <point x="517" y="520" type="line"/>
      <point x="568" y="680" type="line"/>
      <point x="569" y="682"/>
      <point x="569" y="685"/>
      <point x="569" y="688" type="curve"/>
      <point x="570" y="698"/>
      <point x="568" y="706"/>
      <point x="561" y="713" type="curve" smooth="yes"/>
      <point x="554" y="720"/>
      <point x="546" y="723"/>
      <point x="534" y="723" type="curve" smooth="yes"/>
      <point x="479" y="723" type="line"/>
      <point x="416" y="520" type="line"/>
      <point x="314" y="520" type="line"/>
      <point x="377" y="723" type="line"/>
      <point x="321" y="723" type="line" smooth="yes"/>
      <point x="308" y="723"/>
      <point x="296" y="719"/>
      <point x="285" y="712" type="curve" smooth="yes"/>
      <point x="274" y="705"/>
      <point x="267" y="694"/>
      <point x="263" y="681" type="curve" smooth="yes"/>
      <point x="212" y="520" type="line"/>
      <point x="157" y="520" type="line" smooth="yes"/>
      <point x="139" y="520"/>
      <point x="126" y="517"/>
      <point x="117" y="511" type="curve" smooth="yes"/>
      <point x="108" y="505"/>
      <point x="102" y="495"/>
      <point x="98" y="482" type="curve" smooth="yes"/>
      <point x="82" y="431" type="line"/>
      <point x="189" y="431" type="line"/>
      <point x="146" y="293" type="line"/>
      <point x="51" y="293" type="line"/>
      <point x="39" y="254" type="line" smooth="yes"/>
      <point x="37" y="248"/>
      <point x="37" y="242"/>
      <point x="36" y="237" type="curve"/>
      <point x="35" y="225"/>
      <point x="36" y="217"/>
      <point x="41" y="212" type="curve" smooth="yes"/>
      <point x="46" y="207"/>
      <point x="54" y="204"/>
      <point x="65" y="204" type="curve" smooth="yes"/>
      <point x="122" y="204" type="line"/>
      <point x="59" y="0" type="line"/>
      <point x="114" y="0" type="line" smooth="yes"/>
      <point x="127" y="0"/>
      <point x="139" y="3"/>
      <point x="151" y="10" type="curve" smooth="yes"/>
      <point x="163" y="17"/>
      <point x="170" y="29"/>
      <point x="175" y="45" type="curve" smooth="yes"/>
      <point x="224" y="204" type="line"/>
      <point x="326" y="204" type="line"/>
      <point x="278" y="51" type="line"/>
      <point x="277" y="49"/>
      <point x="277" y="48"/>
      <point x="277" y="46" type="curve" smooth="yes"/>
      <point x="277" y="44"/>
      <point x="276" y="43"/>
      <point x="276" y="41" type="curve"/>
      <point x="275" y="29"/>
      <point x="277" y="20"/>
      <point x="283" y="12" type="curve" smooth="yes"/>
      <point x="289" y="4"/>
      <point x="298" y="0"/>
      <point x="308" y="0" type="curve" smooth="yes"/>
    </contour>
    <contour>
      <point x="350" y="293" type="line"/>
      <point x="247" y="293" type="line"/>
      <point x="290" y="431" type="line"/>
      <point x="392" y="431" type="line"/>
    </contour>
  </outline>
</glyph>
<glyph name="dollar" format="1">
  <advance width="646"/>
  <unicode hex="0024"/>
  <note>
    dollar
  </note>
  <outline>
    <contour>
      <point x="230" y="-4" type="curve"/>
      <point x="208" y="-112" type="line"/>
      <point x="253" y="-112" type="line" smooth="yes"/>
      <point x="263" y="-112"/>
      <point x="271" y="-108"/>
      <point x="278" y="-102" type="curve" smooth="yes"/>
      <point x="285" y="-96"/>
      <point x="288" y="-88"/>
      <point x="290" y="-80" type="curve"/>
      <point x="305" y="-7" type="line"/>
      <point x="343" y="-4"/>
      <point x="377" y="3"/>
      <point x="408" y="16" type="curve" smooth="yes"/>
      <point x="439" y="29"/>
      <point x="465" y="46"/>
      <point x="487" y="67" type="curve" smooth="yes"/>
      <point x="509" y="88"/>
      <point x="527" y="112"/>
      <point x="541" y="139" type="curve" smooth="yes"/>
      <point x="555" y="166"/>
      <point x="564" y="195"/>
      <point x="568" y="226" type="curve" smooth="yes"/>
      <point x="572" y="257"/>
      <point x="569" y="284"/>
      <point x="560" y="305" type="curve" smooth="yes"/>
      <point x="551" y="326"/>
      <point x="537" y="343"/>
      <point x="520" y="357" type="curve" smooth="yes"/>
      <point x="503" y="371"/>
      <point x="483" y="382"/>
      <point x="461" y="391" type="curve" smooth="yes"/>
      <point x="439" y="400"/>
      <point x="416" y="409"/>
      <point x="393" y="416" type="curve"/>
      <point x="436" y="623" type="line"/>
      <point x="449" y="620"/>
      <point x="460" y="616"/>
      <point x="470" y="611" type="curve" smooth="yes"/>
      <point x="480" y="606"/>
      <point x="489" y="602"/>
      <point x="497" y="597" type="curve"/>
      <point x="519" y="586" type="line" smooth="yes"/>
      <point x="525" y="583"/>
      <point x="532" y="581"/>
      <point x="537" y="581" type="curve" smooth="yes"/>
      <point x="544" y="581"/>
      <point x="549" y="583"/>
      <point x="554" y="586" type="curve" smooth="yes"/>
      <point x="559" y="589"/>
      <point x="565" y="594"/>
      <point x="570" y="601" type="curve"/>
      <point x="606" y="646" type="line"/>
      <point x="589" y="664"/>
      <point x="569" y="681"/>
      <point x="545" y="695" type="curve" smooth="yes"/>
      <point x="521" y="709"/>
      <point x="492" y="719"/>
      <point x="457" y="725" type="curve"/>
      <point x="477" y="824" type="line"/>
      <point x="432" y="824" type="line" smooth="yes"/>
      <point x="422" y="824"/>
      <point x="414" y="820"/>
      <point x="407" y="814" type="curve" smooth="yes"/>
      <point x="400" y="808"/>
      <point x="397" y="800"/>
      <point x="395" y="792" type="curve" smooth="yes"/>
      <point x="381" y="730" type="line"/>
      <point x="344" y="728"/>
      <point x="311" y="720"/>
      <point x="281" y="708" type="curve" smooth="yes"/>
      <point x="251" y="696"/>
      <point x="226" y="681"/>
      <point x="204" y="662" type="curve" smooth="yes"/>
      <point x="182" y="643"/>
      <point x="165" y="621"/>
      <point x="152" y="597" type="curve" smooth="yes"/>
      <point x="139" y="573"/>
      <point x="130" y="547"/>
      <point x="127" y="522" type="curve" smooth="yes"/>
      <point x="123" y="488"/>
      <point x="125" y="461"/>
      <point x="134" y="438" type="curve" smooth="yes"/>
      <point x="143" y="415"/>
      <point x="155" y="396"/>
      <point x="172" y="381" type="curve" smooth="yes"/>
      <point x="189" y="366"/>
      <point x="208" y="355"/>
      <point x="230" y="346" type="curve" smooth="yes"/>
      <point x="252" y="337"/>
      <point x="274" y="329"/>
      <point x="297" y="322" type="curve"/>
      <point x="251" y="98" type="line"/>
      <point x="233" y="101"/>
      <point x="217" y="107"/>
      <point x="204" y="114" type="curve" smooth="yes"/>
      <point x="191" y="121"/>
      <point x="180" y="127"/>
      <point x="170" y="134" type="curve" smooth="yes"/>
      <point x="160" y="141"/>
      <point x="152" y="148"/>
      <point x="144" y="153" type="curve" smooth="yes"/>
      <point x="136" y="158"/>
      <point x="129" y="160"/>
      <point x="122" y="160" type="curve" smooth="yes"/>
      <point x="116" y="160"/>
      <point x="110" y="159"/>
      <point x="104" y="156" type="curve" smooth="yes"/>
      <point x="98" y="153"/>
      <point x="93" y="148"/>
      <point x="89" y="143" type="curve" smooth="yes"/>
      <point x="44" y="87" type="line"/>
      <point x="65" y="63"/>
      <point x="92" y="43"/>
      <point x="124" y="27" type="curve" smooth="yes"/>
      <point x="156" y="11"/>
      <point x="192" y="1"/>
    </contour>
    <contour>
      <point x="448" y="207" type="curve" smooth="yes"/>
      <point x="444" y="176"/>
      <point x="433" y="151"/>
      <point x="412" y="132" type="curve" smooth="yes"/>
      <point x="391" y="113"/>
      <point x="363" y="101"/>
      <point x="327" y="96" type="curve"/>
      <point x="369" y="300" type="line"/>
      <point x="381" y="296"/>
      <point x="393" y="290"/>
      <point x="403" y="285" type="curve" smooth="yes"/>
      <point x="413" y="280"/>
      <point x="423" y="273"/>
      <point x="430" y="266" type="curve" smooth="yes"/>
      <point x="437" y="259"/>
      <point x="443" y="251"/>
      <point x="446" y="241" type="curve" smooth="yes"/>
      <point x="449" y="231"/>
      <point x="450" y="220"/>
    </contour>
    <contour>
      <point x="245" y="534" type="curve"/>
      <point x="246" y="545"/>
      <point x="250" y="556"/>
      <point x="255" y="566" type="curve" smooth="yes"/>
      <point x="260" y="576"/>
      <point x="268" y="584"/>
      <point x="277" y="592" type="curve" smooth="yes"/>
      <point x="286" y="600"/>
      <point x="297" y="607"/>
      <point x="311" y="613" type="curve"/>
      <point x="325" y="618"/>
      <point x="340" y="622"/>
      <point x="359" y="624" type="curve"/>
      <point x="321" y="439" type="line"/>
      <point x="309" y="444"/>
      <point x="298" y="449"/>
      <point x="288" y="455" type="curve" smooth="yes"/>
      <point x="278" y="461"/>
      <point x="270" y="467"/>
      <point x="263" y="475" type="curve" smooth="yes"/>
      <point x="256" y="483"/>
      <point x="251" y="491"/>
      <point x="248" y="501" type="curve" smooth="yes"/>
      <point x="245" y="511"/>
      <point x="243" y="521"/>
    </contour>
  </outline>
</glyph>
<glyph name="ampersand" format="1">
  <advance width="700"/>
  <unicode hex="0026"/>
  <note>
    ampersand
  </note>
  <outline>
    <contour>
      <point x="386" y="731" type="curve" smooth="yes"/>
      <point x="354" y="731"/>
      <point x="325" y="726"/>
      <point x="298" y="716" type="curve" smooth="yes"/>
      <point x="271" y="706"/>
      <point x="249" y="693"/>
      <point x="229" y="676" type="curve" smooth="yes"/>
      <point x="209" y="659"/>
      <point x="193" y="641"/>
      <point x="181" y="618" type="curve" smooth="yes"/>
      <point x="169" y="596"/>
      <point x="162" y="571"/>
      <point x="159" y="546" type="curve" smooth="yes"/>
      <point x="156" y="522"/>
      <point x="157" y="499"/>
      <point x="162" y="475" type="curve" smooth="yes"/>
      <point x="167" y="451"/>
      <point x="177" y="427"/>
      <point x="192" y="402" type="curve"/>
      <point x="169" y="392"/>
      <point x="149" y="380"/>
      <point x="129" y="366" type="curve" smooth="yes"/>
      <point x="109" y="352"/>
      <point x="92" y="336"/>
      <point x="77" y="319" type="curve" smooth="yes"/>
      <point x="62" y="302"/>
      <point x="50" y="283"/>
      <point x="40" y="263" type="curve" smooth="yes"/>
      <point x="30" y="243"/>
      <point x="24" y="221"/>
      <point x="21" y="199" type="curve" smooth="yes"/>
      <point x="17" y="167"/>
      <point x="19" y="139"/>
      <point x="29" y="113" type="curve" smooth="yes"/>
      <point x="39" y="87"/>
      <point x="53" y="66"/>
      <point x="72" y="48" type="curve" smooth="yes"/>
      <point x="91" y="30"/>
      <point x="113" y="16"/>
      <point x="139" y="6" type="curve" smooth="yes"/>
      <point x="165" y="-4"/>
      <point x="191" y="-8"/>
      <point x="219" y="-8" type="curve" smooth="yes"/>
      <point x="265" y="-8"/>
      <point x="308" y="-1"/>
      <point x="349" y="14" type="curve" smooth="yes"/>
      <point x="390" y="29"/>
      <point x="428" y="49"/>
      <point x="463" y="75" type="curve"/>
      <point x="507" y="24" type="line"/>
      <point x="511" y="19"/>
      <point x="514" y="15"/>
      <point x="518" y="12" type="curve" smooth="yes"/>
      <point x="522" y="9"/>
      <point x="525" y="7"/>
      <point x="529" y="5" type="curve" smooth="yes"/>
      <point x="533" y="3"/>
      <point x="538" y="2"/>
      <point x="543" y="1" type="curve" smooth="yes"/>
      <point x="548" y="0"/>
      <point x="553" y="0"/>
      <point x="559" y="0" type="curve" smooth="yes"/>
      <point x="680" y="0" type="line"/>
      <point x="548" y="157" type="line"/>
      <point x="575" y="191"/>
      <point x="598" y="228"/>
      <point x="615" y="268" type="curve" smooth="yes"/>
      <point x="632" y="308"/>
      <point x="643" y="350"/>
      <point x="649" y="394" type="curve"/>
      <point x="572" y="394" type="line" smooth="yes"/>
      <point x="564" y="394"/>
      <point x="558" y="391"/>
      <point x="553" y="386" type="curve" smooth="yes"/>
      <point x="548" y="381"/>
      <point x="545" y="376"/>
      <point x="543" y="368" type="curve"/>
      <point x="538" y="344"/>
      <point x="531" y="320"/>
      <point x="521" y="297" type="curve" smooth="yes"/>
      <point x="511" y="274"/>
      <point x="501" y="252"/>
      <point x="487" y="231" type="curve"/>
      <point x="319" y="430" type="line"/>
      <point x="309" y="441"/>
      <point x="301" y="452"/>
      <point x="295" y="462" type="curve" smooth="yes"/>
      <point x="289" y="472"/>
      <point x="284" y="482"/>
      <point x="280" y="491" type="curve" smooth="yes"/>
      <point x="276" y="500"/>
      <point x="275" y="510"/>
      <point x="274" y="519" type="curve" smooth="yes"/>
      <point x="273" y="528"/>
      <point x="273" y="538"/>
      <point x="274" y="548" type="curve" smooth="yes"/>
      <point x="275" y="560"/>
      <point x="279" y="571"/>
      <point x="284" y="582" type="curve" smooth="yes"/>
      <point x="289" y="593"/>
      <point x="296" y="602"/>
      <point x="305" y="610" type="curve" smooth="yes"/>
      <point x="314" y="618"/>
      <point x="324" y="625"/>
      <point x="336" y="630" type="curve" smooth="yes"/>
      <point x="348" y="635"/>
      <point x="360" y="637"/>
      <point x="374" y="637" type="curve" smooth="yes"/>
      <point x="386" y="637"/>
      <point x="395" y="636"/>
      <point x="404" y="632" type="curve" smooth="yes"/>
      <point x="413" y="628"/>
      <point x="420" y="624"/>
      <point x="426" y="618" type="curve" smooth="yes"/>
      <point x="432" y="612"/>
      <point x="437" y="605"/>
      <point x="441" y="597" type="curve" smooth="yes"/>
      <point x="445" y="589"/>
      <point x="447" y="582"/>
      <point x="449" y="573" type="curve"/>
      <point x="451" y="566"/>
      <point x="454" y="561"/>
      <point x="458" y="558" type="curve" smooth="yes"/>
      <point x="462" y="555"/>
      <point x="467" y="553"/>
      <point x="473" y="553" type="curve" smooth="yes"/>
      <point x="476" y="553" type="line" smooth="yes"/>
      <point x="477" y="553"/>
      <point x="478" y="554"/>
      <point x="479" y="554" type="curve"/>
      <point x="560" y="570" type="line"/>
      <point x="561" y="591"/>
      <point x="557" y="611"/>
      <point x="550" y="630" type="curve" smooth="yes"/>
      <point x="543" y="649"/>
      <point x="533" y="667"/>
      <point x="518" y="682" type="curve" smooth="yes"/>
      <point x="503" y="697"/>
      <point x="485" y="709"/>
      <point x="463" y="718" type="curve" smooth="yes"/>
      <point x="441" y="727"/>
      <point x="415" y="731"/>
    </contour>
    <contour>
      <point x="147" y="209" type="curve" smooth="yes"/>
      <point x="150" y="234"/>
      <point x="159" y="257"/>
      <point x="174" y="279" type="curve" smooth="yes"/>
      <point x="189" y="301"/>
      <point x="211" y="321"/>
      <point x="240" y="338" type="curve"/>
      <point x="406" y="143" type="line"/>
      <point x="384" y="127"/>
      <point x="360" y="113"/>
      <point x="335" y="104" type="curve" smooth="yes"/>
      <point x="310" y="95"/>
      <point x="282" y="91"/>
      <point x="253" y="91" type="curve" smooth="yes"/>
      <point x="237" y="91"/>
      <point x="222" y="93"/>
      <point x="208" y="99" type="curve" smooth="yes"/>
      <point x="194" y="105"/>
      <point x="182" y="112"/>
      <point x="172" y="122" type="curve" smooth="yes"/>
      <point x="162" y="132"/>
      <point x="156" y="145"/>
      <point x="151" y="160" type="curve" smooth="yes"/>
      <point x="146" y="175"/>
      <point x="145" y="191"/>
    </contour>
  </outline>
</glyph>
<glyph name="quotesingle" format="1">
  <advance width="233"/>
  <unicode hex="0027"/>
  <note>
    quotesingle
  </note>
  <outline>
    <contour>
      <point x="162" y="579" type="line"/>
      <point x="179" y="723" type="line"/>
      <point x="72" y="723" type="line"/>
      <point x="54" y="579" type="line"/>
      <point x="55" y="501" type="line" smooth="yes"/>
      <point x="55" y="486"/>
      <point x="59" y="475"/>
      <point x="65" y="467" type="curve" smooth="yes"/>
      <point x="71" y="459"/>
      <point x="80" y="456"/>
      <point x="92" y="456" type="curve" smooth="yes"/>
      <point x="106" y="456"/>
      <point x="117" y="459"/>
      <point x="124" y="467" type="curve" smooth="yes"/>
      <point x="131" y="475"/>
      <point x="136" y="486"/>
      <point x="140" y="501" type="curve" smooth="yes"/>
    </contour>
  </outline>
</glyph>
<glyph name="parenleft" format="1">
  <advance width="308"/>
  <unicode hex="0028"/>
  <note>
    parenleft
  </note>
  <outline>
    <contour>
      <point x="139" y="314" type="curve" smooth="yes"/>
      <point x="147" y="383"/>
      <point x="164" y="450"/>
      <point x="189" y="516" type="curve" smooth="yes"/>
      <point x="214" y="582"/>
      <point x="245" y="646"/>
      <point x="283" y="704" type="curve"/>
      <point x="288" y="713"/>
      <point x="291" y="720"/>
      <point x="292" y="726" type="curve" smooth="yes"/>
      <point x="293" y="732"/>
      <point x="292" y="738"/>
      <point x="289" y="742" type="curve" smooth="yes"/>
      <point x="286" y="746"/>
      <point x="282" y="749"/>
      <point x="278" y="752" type="curve"/>
      <point x="227" y="785" type="line"/>
      <point x="198" y="747"/>
      <point x="172" y="709"/>
      <point x="150" y="671" type="curve" smooth="yes"/>
      <point x="128" y="633"/>
      <point x="109" y="594"/>
      <point x="93" y="555" type="curve" smooth="yes"/>
      <point x="77" y="516"/>
      <point x="65" y="476"/>
      <point x="55" y="436" type="curve" smooth="yes"/>
      <point x="45" y="396"/>
      <point x="37" y="356"/>
      <point x="32" y="314" type="curve" smooth="yes"/>
      <point x="27" y="272"/>
      <point x="25" y="231"/>
      <point x="25" y="191" type="curve" smooth="yes"/>
      <point x="25" y="151"/>
      <point x="28" y="111"/>
      <point x="34" y="72" type="curve" smooth="yes"/>
      <point x="40" y="33"/>
      <point x="49" y="-6"/>
      <point x="62" y="-44" type="curve" smooth="yes"/>
      <point x="75" y="-82"/>
      <point x="91" y="-120"/>
      <point x="111" y="-158" type="curve"/>
      <point x="171" y="-124" type="line" smooth="yes"/>
      <point x="176" y="-121"/>
      <point x="180" y="-118"/>
      <point x="184" y="-114" type="curve" smooth="yes"/>
      <point x="188" y="-110"/>
      <point x="190" y="-105"/>
      <point x="191" y="-98" type="curve"/>
      <point x="191" y="-88" type="line" smooth="yes"/>
      <point x="191" y="-84"/>
      <point x="189" y="-80"/>
      <point x="187" y="-76" type="curve"/>
      <point x="163" y="-18"/>
      <point x="148" y="45"/>
      <point x="139" y="111" type="curve" smooth="yes"/>
      <point x="130" y="177"/>
      <point x="131" y="245"/>
    </contour>
  </outline>
</glyph>
<glyph name="parenright" format="1">
  <advance width="308"/>
  <unicode hex="0029"/>
  <note>
    parenright
  </note>
  <outline>
    <contour>
      <point x="168" y="314" type="curve" smooth="yes"/>
      <point x="160" y="245"/>
      <point x="143" y="177"/>
      <point x="118" y="111" type="curve" smooth="yes"/>
      <point x="93" y="45"/>
      <point x="62" y="-18"/>
      <point x="24" y="-76" type="curve"/>
      <point x="21" y="-80"/>
      <point x="19" y="-84"/>
      <point x="18" y="-88" type="curve" smooth="yes"/>
      <point x="17" y="-92"/>
      <point x="15" y="-95"/>
      <point x="15" y="-98" type="curve"/>
      <point x="14" y="-105"/>
      <point x="15" y="-110"/>
      <point x="18" y="-114" type="curve" smooth="yes"/>
      <point x="21" y="-118"/>
      <point x="25" y="-121"/>
      <point x="29" y="-124" type="curve"/>
      <point x="80" y="-158" type="line"/>
      <point x="109" y="-120"/>
      <point x="135" y="-82"/>
      <point x="157" y="-44" type="curve" smooth="yes"/>
      <point x="179" y="-6"/>
      <point x="198" y="33"/>
      <point x="214" y="72" type="curve" smooth="yes"/>
      <point x="230" y="111"/>
      <point x="243" y="151"/>
      <point x="253" y="191" type="curve" smooth="yes"/>
      <point x="263" y="231"/>
      <point x="270" y="272"/>
      <point x="275" y="314" type="curve" smooth="yes"/>
      <point x="280" y="356"/>
      <point x="283" y="396"/>
      <point x="283" y="436" type="curve" smooth="yes"/>
      <point x="283" y="476"/>
      <point x="279" y="516"/>
      <point x="273" y="555" type="curve" smooth="yes"/>
      <point x="267" y="594"/>
      <point x="258" y="633"/>
      <point x="245" y="671" type="curve" smooth="yes"/>
      <point x="232" y="709"/>
      <point x="216" y="747"/>
      <point x="196" y="785" type="curve"/>
      <point x="137" y="752" type="line" smooth="yes"/>
      <point x="132" y="749"/>
      <point x="127" y="746"/>
      <point x="123" y="742" type="curve" smooth="yes"/>
      <point x="119" y="738"/>
      <point x="117" y="732"/>
      <point x="116" y="726" type="curve" smooth="yes"/>
      <point x="115" y="720"/>
      <point x="117" y="713"/>
      <point x="120" y="704" type="curve"/>
      <point x="144" y="646"/>
      <point x="159" y="582"/>
      <point x="168" y="516" type="curve" smooth="yes"/>
      <point x="177" y="450"/>
      <point x="176" y="383"/>
    </contour>
  </outline>
</glyph>
<glyph name="asterisk" format="1">
  <advance width="422"/>
  <unicode hex="002A"/>
  <note>
    asterisk
  </note>
  <outline>
    <contour>
      <point x="172" y="510" type="curve" smooth="yes"/>
      <point x="161" y="418" type="line"/>
      <point x="220" y="418" type="line"/>
      <point x="231" y="510" type="line" smooth="yes"/>
      <point x="233" y="524"/>
      <point x="232" y="537"/>
      <point x="229" y="548" type="curve"/>
      <point x="232" y="543"/>
      <point x="236" y="539"/>
      <point x="241" y="535" type="curve" smooth="yes"/>
      <point x="246" y="531"/>
      <point x="250" y="528"/>
      <point x="256" y="524" type="curve" smooth="yes"/>
      <point x="330" y="478" type="line"/>
      <point x="365" y="528" type="line"/>
      <point x="291" y="574" type="line" smooth="yes"/>
      <point x="279" y="581"/>
      <point x="268" y="586"/>
      <point x="257" y="588" type="curve"/>
      <point x="263" y="589"/>
      <point x="270" y="591"/>
      <point x="276" y="593" type="curve" smooth="yes"/>
      <point x="282" y="595"/>
      <point x="289" y="598"/>
      <point x="295" y="602" type="curve"/>
      <point x="380" y="648" type="line"/>
      <point x="356" y="698" type="line"/>
      <point x="272" y="652" type="line"/>
      <point x="266" y="648"/>
      <point x="259" y="645"/>
      <point x="254" y="641" type="curve" smooth="yes"/>
      <point x="249" y="637"/>
      <point x="243" y="633"/>
      <point x="239" y="628" type="curve"/>
      <point x="242" y="634"/>
      <point x="244" y="640"/>
      <point x="246" y="646" type="curve" smooth="yes"/>
      <point x="248" y="652"/>
      <point x="249" y="659"/>
      <point x="250" y="666" type="curve" smooth="yes"/>
      <point x="261" y="758" type="line"/>
      <point x="202" y="758" type="line"/>
      <point x="191" y="666" type="line" smooth="yes"/>
      <point x="190" y="659"/>
      <point x="190" y="652"/>
      <point x="190" y="646" type="curve" smooth="yes"/>
      <point x="190" y="640"/>
      <point x="190" y="634"/>
      <point x="192" y="628" type="curve"/>
      <point x="189" y="633"/>
      <point x="186" y="637"/>
      <point x="181" y="641" type="curve" smooth="yes"/>
      <point x="176" y="645"/>
      <point x="171" y="648"/>
      <point x="166" y="652" type="curve"/>
      <point x="92" y="699" type="line"/>
      <point x="57" y="649" type="line"/>
      <point x="131" y="602" type="line" smooth="yes"/>
      <point x="137" y="598"/>
      <point x="141" y="596"/>
      <point x="147" y="593" type="curve" smooth="yes"/>
      <point x="153" y="590"/>
      <point x="159" y="589"/>
      <point x="165" y="588" type="curve"/>
      <point x="159" y="587"/>
      <point x="152" y="585"/>
      <point x="146" y="583" type="curve" smooth="yes"/>
      <point x="140" y="581"/>
      <point x="133" y="578"/>
      <point x="127" y="574" type="curve"/>
      <point x="42" y="528" type="line"/>
      <point x="65" y="478" type="line"/>
      <point x="150" y="524" type="line"/>
      <point x="156" y="528"/>
      <point x="162" y="531"/>
      <point x="167" y="535" type="curve" smooth="yes"/>
      <point x="172" y="539"/>
      <point x="178" y="542"/>
      <point x="182" y="547" type="curve"/>
      <point x="179" y="541"/>
      <point x="177" y="535"/>
      <point x="175" y="529" type="curve" smooth="yes"/>
      <point x="173" y="523"/>
      <point x="173" y="517"/>
    </contour>
  </outline>
</glyph>
<glyph name="plus" format="1">
  <advance width="587"/>
  <unicode hex="002B"/>
  <note>
    plus
  </note>
  <outline>
    <contour>
      <point x="349" y="382" type="line"/>
      <point x="374" y="586" type="line"/>
      <point x="274" y="586" type="line"/>
      <point x="249" y="382" type="line"/>
      <point x="55" y="382" type="line"/>
      <point x="44" y="290" type="line"/>
      <point x="237" y="290" type="line"/>
      <point x="212" y="84" type="line"/>
      <point x="312" y="84" type="line"/>
      <point x="337" y="290" type="line"/>
      <point x="532" y="290" type="line"/>
      <point x="543" y="382" type="line"/>
    </contour>
  </outline>
</glyph>
<glyph name="comma" format="1">
  <advance width="211"/>
  <unicode hex="002C"/>
  <note>
    comma
  </note>
  <outline>
    <contour>
      <point x="40" y="76" type="curve" smooth="yes"/>
      <point x="39" y="65"/>
      <point x="39" y="55"/>
      <point x="41" y="46" type="curve" smooth="yes"/>
      <point x="43" y="37"/>
      <point x="48" y="30"/>
      <point x="53" y="23" type="curve" smooth="yes"/>
      <point x="58" y="16"/>
      <point x="65" y="11"/>
      <point x="73" y="7" type="curve" smooth="yes"/>
      <point x="81" y="3"/>
      <point x="91" y="2"/>
      <point x="101" y="2" type="curve"/>
      <point x="98" y="-8"/>
      <point x="94" y="-18"/>
      <point x="88" y="-27" type="curve" smooth="yes"/>
      <point x="82" y="-36"/>
      <point x="76" y="-43"/>
      <point x="70" y="-51" type="curve" smooth="yes"/>
      <point x="64" y="-59"/>
      <point x="58" y="-65"/>
      <point x="52" y="-71" type="curve" smooth="yes"/>
      <point x="46" y="-77"/>
      <point x="40" y="-82"/>
      <point x="36" y="-86" type="curve" smooth="yes"/>
      <point x="33" y="-89"/>
      <point x="31" y="-92"/>
      <point x="29" y="-95" type="curve" smooth="yes"/>
      <point x="27" y="-98"/>
      <point x="25" y="-101"/>
      <point x="25" y="-104" type="curve"/>
      <point x="24" y="-111"/>
      <point x="26" y="-117"/>
      <point x="31" y="-122" type="curve" smooth="yes"/>
      <point x="51" y="-142" type="line"/>
      <point x="70" y="-128"/>
      <point x="87" y="-113"/>
      <point x="103" y="-96" type="curve" smooth="yes"/>
      <point x="119" y="-79"/>
      <point x="132" y="-62"/>
      <point x="144" y="-44" type="curve" smooth="yes"/>
      <point x="156" y="-26"/>
      <point x="165" y="-10"/>
      <point x="172" y="8" type="curve" smooth="yes"/>
      <point x="179" y="26"/>
      <point x="183" y="43"/>
      <point x="185" y="59" type="curve" smooth="yes"/>
      <point x="186" y="70"/>
      <point x="187" y="81"/>
      <point x="185" y="91" type="curve" smooth="yes"/>
      <point x="183" y="101"/>
      <point x="179" y="110"/>
      <point x="174" y="118" type="curve" smooth="yes"/>
      <point x="169" y="126"/>
      <point x="162" y="133"/>
      <point x="153" y="137" type="curve" smooth="yes"/>
      <point x="144" y="141"/>
      <point x="134" y="143"/>
      <point x="121" y="143" type="curve" smooth="yes"/>
      <point x="110" y="143"/>
      <point x="99" y="142"/>
      <point x="90" y="138" type="curve" smooth="yes"/>
      <point x="81" y="134"/>
      <point x="73" y="130"/>
      <point x="66" y="124" type="curve" smooth="yes"/>
      <point x="59" y="118"/>
      <point x="53" y="110"/>
      <point x="48" y="102" type="curve" smooth="yes"/>
      <point x="43" y="94"/>
      <point x="41" y="85"/>
    </contour>
  </outline>
</glyph>
<glyph name="hyphen" format="1">
  <advance width="371"/>
  <unicode hex="002D"/>
  <note>
    hyphen
  </note>
  <outline>
    <contour>
      <point x="321" y="354" type="line"/>
      <point x="62" y="354" type="line"/>
      <point x="50" y="250" type="line"/>
      <point x="308" y="250" type="line"/>
    </contour>
  </outline>
</glyph>
<glyph name="period" format="1">
  <advance width="203"/>
  <unicode hex="002E"/>
  <note>
    period
  </note>
  <outline>
    <contour>
      <point x="26" y="68" type="curve" smooth="yes"/>
      <point x="25" y="57"/>
      <point x="25" y="47"/>
      <point x="28" y="38" type="curve" smooth="yes"/>
      <point x="31" y="29"/>
      <point x="35" y="22"/>
      <point x="41" y="15" type="curve" smooth="yes"/>
      <point x="47" y="8"/>
      <point x="54" y="3"/>
      <point x="63" y="-1" type="curve" smooth="yes"/>
      <point x="72" y="-5"/>
      <point x="81" y="-7"/>
      <point x="92" y="-7" type="curve" smooth="yes"/>
      <point x="102" y="-7"/>
      <point x="113" y="-5"/>
      <point x="123" y="-1" type="curve" smooth="yes"/>
      <point x="133" y="3"/>
      <point x="142" y="8"/>
      <point x="149" y="15" type="curve" smooth="yes"/>
      <point x="156" y="22"/>
      <point x="162" y="29"/>
      <point x="167" y="38" type="curve" smooth="yes"/>
      <point x="172" y="47"/>
      <point x="176" y="57"/>
      <point x="177" y="68" type="curve" smooth="yes"/>
      <point x="178" y="78"/>
      <point x="178" y="89"/>
      <point x="175" y="98" type="curve" smooth="yes"/>
      <point x="172" y="107"/>
      <point x="168" y="115"/>
      <point x="162" y="122" type="curve" smooth="yes"/>
      <point x="156" y="129"/>
      <point x="149" y="134"/>
      <point x="140" y="138" type="curve" smooth="yes"/>
      <point x="131" y="142"/>
      <point x="121" y="144"/>
      <point x="111" y="144" type="curve" smooth="yes"/>
      <point x="100" y="144"/>
      <point x="90" y="142"/>
      <point x="80" y="138" type="curve" smooth="yes"/>
      <point x="70" y="134"/>
      <point x="62" y="129"/>
      <point x="54" y="122" type="curve" smooth="yes"/>
      <point x="46" y="115"/>
      <point x="40" y="107"/>
      <point x="35" y="98" type="curve" smooth="yes"/>
      <point x="30" y="89"/>
      <point x="27" y="78"/>
    </contour>
  </outline>
</glyph>
<glyph name="slash" format="1">
  <advance width="556"/>
  <unicode hex="002F"/>
  <note>
    slash
  </note>
  <outline>
    <contour>
      <point x="149" y="-2" type="curve" smooth="yes"/>
      <point x="530" y="743" type="line"/>
      <point x="478" y="743" type="line" smooth="yes"/>
      <point x="463" y="743"/>
      <point x="450" y="740"/>
      <point x="438" y="732" type="curve" smooth="yes"/>
      <point x="426" y="724"/>
      <point x="416" y="714"/>
      <point x="409" y="700" type="curve" smooth="yes"/>
      <point x="26" y="-48" type="line"/>
      <point x="78" y="-48" type="line" smooth="yes"/>
      <point x="84" y="-48"/>
      <point x="90" y="-46"/>
      <point x="97" y="-44" type="curve" smooth="yes"/>
      <point x="104" y="-42"/>
      <point x="111" y="-40"/>
      <point x="117" y="-36" type="curve" smooth="yes"/>
      <point x="123" y="-32"/>
      <point x="130" y="-28"/>
      <point x="135" y="-22" type="curve" smooth="yes"/>
      <point x="140" y="-16"/>
      <point x="145" y="-10"/>
    </contour>
  </outline>
</glyph>
<glyph name="zero" format="1">
  <advance width="574"/>
  <unicode hex="0030"/>
  <note>
    zero
  </note>
  <outline>
    <contour>
      <point x="551" y="362" type="curve" smooth="yes"/>
      <point x="559" y="425"/>
      <point x="559" y="480"/>
      <point x="551" y="526" type="curve" smooth="yes"/>
      <point x="543" y="572"/>
      <point x="529" y="611"/>
      <point x="509" y="641" type="curve" smooth="yes"/>
      <point x="489" y="671"/>
      <point x="464" y="694"/>
      <point x="433" y="709" type="curve" smooth="yes"/>
      <point x="402" y="724"/>
      <point x="368" y="731"/>
      <point x="330" y="731" type="curve" smooth="yes"/>
      <point x="292" y="731"/>
      <point x="257" y="724"/>
      <point x="223" y="709" type="curve" smooth="yes"/>
      <point x="189" y="694"/>
      <point x="158" y="671"/>
      <point x="131" y="641" type="curve" smooth="yes"/>
      <point x="104" y="611"/>
      <point x="80" y="572"/>
      <point x="61" y="526" type="curve" smooth="yes"/>
      <point x="42" y="480"/>
      <point x="29" y="425"/>
      <point x="21" y="362" type="curve" smooth="yes"/>
      <point x="13" y="299"/>
      <point x="13" y="243"/>
      <point x="21" y="197" type="curve" smooth="yes"/>
      <point x="29" y="151"/>
      <point x="42" y="112"/>
      <point x="62" y="82" type="curve" smooth="yes"/>
      <point x="82" y="52"/>
      <point x="107" y="29"/>
      <point x="137" y="14" type="curve" smooth="yes"/>
      <point x="167" y="-1"/>
      <point x="201" y="-8"/>
      <point x="239" y="-8" type="curve" smooth="yes"/>
      <point x="277" y="-8"/>
      <point x="313" y="-1"/>
      <point x="347" y="14" type="curve" smooth="yes"/>
      <point x="381" y="29"/>
      <point x="412" y="52"/>
      <point x="440" y="82" type="curve" smooth="yes"/>
      <point x="468" y="112"/>
      <point x="491" y="151"/>
      <point x="510" y="197" type="curve" smooth="yes"/>
      <point x="529" y="243"/>
      <point x="543" y="299"/>
    </contour>
    <contour>
      <point x="423" y="362" type="curve" smooth="yes"/>
      <point x="417" y="310"/>
      <point x="408" y="266"/>
      <point x="396" y="232" type="curve" smooth="yes"/>
      <point x="384" y="198"/>
      <point x="370" y="169"/>
      <point x="355" y="149" type="curve" smooth="yes"/>
      <point x="340" y="129"/>
      <point x="324" y="115"/>
      <point x="306" y="107" type="curve" smooth="yes"/>
      <point x="288" y="99"/>
      <point x="270" y="94"/>
      <point x="252" y="94" type="curve" smooth="yes"/>
      <point x="234" y="94"/>
      <point x="217" y="99"/>
      <point x="202" y="107" type="curve" smooth="yes"/>
      <point x="187" y="115"/>
      <point x="174" y="130"/>
      <point x="164" y="150" type="curve" smooth="yes"/>
      <point x="154" y="170"/>
      <point x="147" y="198"/>
      <point x="144" y="232" type="curve" smooth="yes"/>
      <point x="141" y="266"/>
      <point x="142" y="310"/>
      <point x="148" y="362" type="curve" smooth="yes"/>
      <point x="154" y="414"/>
      <point x="164" y="458"/>
      <point x="176" y="492" type="curve" smooth="yes"/>
      <point x="188" y="526"/>
      <point x="201" y="554"/>
      <point x="216" y="574" type="curve" smooth="yes"/>
      <point x="231" y="594"/>
      <point x="247" y="608"/>
      <point x="265" y="616" type="curve" smooth="yes"/>
      <point x="283" y="624"/>
      <point x="300" y="629"/>
      <point x="318" y="629" type="curve" smooth="yes"/>
      <point x="336" y="629"/>
      <point x="352" y="624"/>
      <point x="368" y="616" type="curve" smooth="yes"/>
      <point x="384" y="608"/>
      <point x="397" y="594"/>
      <point x="407" y="574" type="curve" smooth="yes"/>
      <point x="417" y="554"/>
      <point x="425" y="526"/>
      <point x="428" y="492" type="curve" smooth="yes"/>
      <point x="431" y="458"/>
      <point x="429" y="414"/>
    </contour>
  </outline>
</glyph>
<glyph name="one" format="1">
  <advance width="504"/>
  <unicode hex="0031"/>
  <note>
    one
  </note>
  <outline>
    <contour>
      <point x="440" y="83" type="curve"/>
      <point x="434" y="84"/>
      <point x="398" y="88"/>
      <point x="332" y="93" type="curve"/>
      <point x="409" y="724" type="line"/>
      <point x="308" y="724" type="line"/>
      <point x="64" y="537" type="line"/>
      <point x="97" y="483" type="line"/>
      <point x="99" y="479"/>
      <point x="103" y="476"/>
      <point x="108" y="473" type="curve" smooth="yes"/>
      <point x="113" y="470"/>
      <point x="119" y="469"/>
      <point x="126" y="469" type="curve" smooth="yes"/>
      <point x="130" y="469"/>
      <point x="134" y="470"/>
      <point x="139" y="471" type="curve" smooth="yes"/>
      <point x="144" y="472"/>
      <point x="148" y="475"/>
      <point x="153" y="479" type="curve" smooth="yes"/>
      <point x="268" y="566" type="line"/>
      <point x="265" y="548"/>
      <point x="262" y="530"/>
      <point x="260" y="514" type="curve" smooth="yes"/>
      <point x="208" y="94" type="line"/>
      <point x="130" y="88"/>
      <point x="88" y="84"/>
      <point x="81" y="83" type="curve"/>
      <point x="67" y="80"/>
      <point x="60" y="72"/>
      <point x="58" y="58" type="curve" smooth="yes"/>
      <point x="50" y="0" type="line"/>
      <point x="247" y="0" type="line"/>
      <point x="254" y="0" type="line"/>
      <point x="450" y="0" type="line"/>
      <point x="458" y="58" type="line" smooth="yes"/>
      <point x="460" y="72"/>
      <point x="453" y="80"/>
    </contour>
  </outline>
</glyph>
<glyph name="two" format="1">
  <advance width="640"/>
  <unicode hex="0032"/>
  <note>
    two
  </note>
  <outline>
    <contour>
      <point x="550" y="0" type="line"/>
      <point x="563" y="108" type="line"/>
      <point x="572" y="178" type="line"/>
      <point x="519" y="178" type="line" smooth="yes"/>
      <point x="506" y="178"/>
      <point x="497" y="172"/>
      <point x="493" y="160" type="curve"/>
      <point x="492" y="156"/>
      <point x="488" y="141"/>
      <point x="483" y="115" type="curve"/>
      <point x="324" y="115" type="line" smooth="yes"/>
      <point x="310" y="115"/>
      <point x="295" y="113"/>
      <point x="279" y="111" type="curve"/>
      <point x="263" y="108"/>
      <point x="248" y="105"/>
      <point x="231" y="100" type="curve"/>
      <point x="414" y="267" type="line" smooth="yes"/>
      <point x="436" y="287"/>
      <point x="457" y="307"/>
      <point x="477" y="326" type="curve" smooth="yes"/>
      <point x="497" y="345"/>
      <point x="515" y="365"/>
      <point x="531" y="386" type="curve" smooth="yes"/>
      <point x="547" y="407"/>
      <point x="559" y="428"/>
      <point x="570" y="451" type="curve" smooth="yes"/>
      <point x="581" y="474"/>
      <point x="588" y="498"/>
      <point x="591" y="525" type="curve" smooth="yes"/>
      <point x="595" y="556"/>
      <point x="593" y="584"/>
      <point x="585" y="609" type="curve" smooth="yes"/>
      <point x="577" y="634"/>
      <point x="564" y="656"/>
      <point x="547" y="674" type="curve" smooth="yes"/>
      <point x="530" y="692"/>
      <point x="507" y="706"/>
      <point x="481" y="716" type="curve" smooth="yes"/>
      <point x="455" y="726"/>
      <point x="424" y="731"/>
      <point x="391" y="731" type="curve" smooth="yes"/>
      <point x="359" y="731"/>
      <point x="329" y="727"/>
      <point x="300" y="718" type="curve" smooth="yes"/>
      <point x="271" y="709"/>
      <point x="245" y="695"/>
      <point x="221" y="678" type="curve" smooth="yes"/>
      <point x="197" y="660"/>
      <point x="177" y="639"/>
      <point x="159" y="613" type="curve" smooth="yes"/>
      <point x="141" y="587"/>
      <point x="128" y="556"/>
      <point x="119" y="521" type="curve"/>
      <point x="183" y="510" type="line" smooth="yes"/>
      <point x="189" y="509"/>
      <point x="194" y="508"/>
      <point x="199" y="508" type="curve" smooth="yes"/>
      <point x="210" y="508"/>
      <point x="220" y="512"/>
      <point x="228" y="517" type="curve" smooth="yes"/>
      <point x="236" y="522"/>
      <point x="243" y="531"/>
      <point x="248" y="544" type="curve"/>
      <point x="259" y="569"/>
      <point x="274" y="589"/>
      <point x="295" y="604" type="curve" smooth="yes"/>
      <point x="316" y="619"/>
      <point x="341" y="627"/>
      <point x="371" y="627" type="curve" smooth="yes"/>
      <point x="387" y="627"/>
      <point x="402" y="624"/>
      <point x="414" y="620" type="curve" smooth="yes"/>
      <point x="426" y="616"/>
      <point x="437" y="609"/>
      <point x="445" y="600" type="curve" smooth="yes"/>
      <point x="453" y="591"/>
      <point x="459" y="580"/>
      <point x="462" y="567" type="curve" smooth="yes"/>
      <point x="465" y="554"/>
      <point x="466" y="538"/>
      <point x="464" y="521" type="curve" smooth="yes"/>
      <point x="462" y="502"/>
      <point x="457" y="484"/>
      <point x="450" y="467" type="curve" smooth="yes"/>
      <point x="443" y="450"/>
      <point x="433" y="433"/>
      <point x="421" y="416" type="curve" smooth="yes"/>
      <point x="409" y="399"/>
      <point x="395" y="382"/>
      <point x="378" y="365" type="curve" smooth="yes"/>
      <point x="361" y="348"/>
      <point x="343" y="331"/>
      <point x="322" y="312" type="curve" smooth="yes"/>
      <point x="76" y="92" type="line" smooth="yes"/>
      <point x="67" y="84"/>
      <point x="61" y="76"/>
      <point x="56" y="67" type="curve" smooth="yes"/>
      <point x="51" y="58"/>
      <point x="49" y="49"/>
      <point x="48" y="41" type="curve" smooth="yes"/>
      <point x="42" y="0" type="line"/>
      <point x="509" y="0" type="line"/>
      <point x="538" y="0" type="line"/>
    </contour>
  </outline>
</glyph>
<glyph name="three" format="1">
  <advance width="589"/>
  <unicode hex="0033"/>
  <note>
    three
  </note>
  <outline>
    <contour>
      <point x="358" y="731" type="curve" smooth="yes"/>
      <point x="326" y="731"/>
      <point x="295" y="727"/>
      <point x="266" y="718" type="curve" smooth="yes"/>
      <point x="237" y="709"/>
      <point x="211" y="696"/>
      <point x="187" y="678" type="curve" smooth="yes"/>
      <point x="163" y="660"/>
      <point x="144" y="639"/>
      <point x="126" y="613" type="curve" smooth="yes"/>
      <point x="108" y="587"/>
      <point x="95" y="557"/>
      <point x="86" y="522" type="curve"/>
      <point x="149" y="510" type="line" smooth="yes"/>
      <point x="155" y="509"/>
      <point x="161" y="508"/>
      <point x="166" y="508" type="curve" smooth="yes"/>
      <point x="177" y="508"/>
      <point x="186" y="511"/>
      <point x="194" y="517" type="curve" smooth="yes"/>
      <point x="202" y="523"/>
      <point x="208" y="531"/>
      <point x="214" y="544" type="curve" smooth="yes"/>
      <point x="225" y="568"/>
      <point x="241" y="588"/>
      <point x="262" y="604" type="curve" smooth="yes"/>
      <point x="283" y="620"/>
      <point x="309" y="627"/>
      <point x="338" y="627" type="curve" smooth="yes"/>
      <point x="370" y="627"/>
      <point x="394" y="619"/>
      <point x="411" y="601" type="curve" smooth="yes"/>
      <point x="428" y="583"/>
      <point x="434" y="557"/>
      <point x="430" y="523" type="curve" smooth="yes"/>
      <point x="428" y="507"/>
      <point x="423" y="492"/>
      <point x="417" y="479" type="curve" smooth="yes"/>
      <point x="411" y="466"/>
      <point x="401" y="455"/>
      <point x="388" y="445" type="curve"/>
      <point x="375" y="436"/>
      <point x="359" y="427"/>
      <point x="338" y="422" type="curve" smooth="yes"/>
      <point x="317" y="417"/>
      <point x="291" y="414"/>
      <point x="261" y="414" type="curve"/>
      <point x="250" y="326" type="line"/>
      <point x="287" y="326"/>
      <point x="316" y="324"/>
      <point x="337" y="318" type="curve" smooth="yes"/>
      <point x="358" y="312"/>
      <point x="375" y="304"/>
      <point x="385" y="294" type="curve" smooth="yes"/>
      <point x="395" y="284"/>
      <point x="401" y="272"/>
      <point x="403" y="258" type="curve" smooth="yes"/>
      <point x="405" y="244"/>
      <point x="405" y="227"/>
      <point x="403" y="210" type="curve" smooth="yes"/>
      <point x="401" y="196"/>
      <point x="397" y="184"/>
      <point x="390" y="170" type="curve" smooth="yes"/>
      <point x="383" y="156"/>
      <point x="374" y="144"/>
      <point x="362" y="133" type="curve" smooth="yes"/>
      <point x="350" y="122"/>
      <point x="337" y="113"/>
      <point x="320" y="106" type="curve" smooth="yes"/>
      <point x="303" y="99"/>
      <point x="284" y="96"/>
      <point x="263" y="96" type="curve" smooth="yes"/>
      <point x="244" y="96"/>
      <point x="229" y="98"/>
      <point x="216" y="104" type="curve" smooth="yes"/>
      <point x="203" y="110"/>
      <point x="192" y="117"/>
      <point x="183" y="126" type="curve" smooth="yes"/>
      <point x="174" y="135"/>
      <point x="167" y="145"/>
      <point x="161" y="156" type="curve" smooth="yes"/>
      <point x="155" y="167"/>
      <point x="151" y="178"/>
      <point x="146" y="190" type="curve" smooth="yes"/>
      <point x="143" y="197"/>
      <point x="138" y="202"/>
      <point x="132" y="206" type="curve" smooth="yes"/>
      <point x="126" y="210"/>
      <point x="118" y="212"/>
      <point x="109" y="212" type="curve" smooth="yes"/>
      <point x="99" y="212"/>
      <point x="90" y="210"/>
      <point x="80" y="206" type="curve" smooth="yes"/>
      <point x="23" y="184" type="line"/>
      <point x="29" y="153"/>
      <point x="38" y="126"/>
      <point x="49" y="102" type="curve" smooth="yes"/>
      <point x="60" y="78"/>
      <point x="75" y="58"/>
      <point x="93" y="42" type="curve" smooth="yes"/>
      <point x="111" y="26"/>
      <point x="133" y="12"/>
      <point x="159" y="4" type="curve" smooth="yes"/>
      <point x="185" y="-4"/>
      <point x="216" y="-8"/>
      <point x="252" y="-8" type="curve" smooth="yes"/>
      <point x="285" y="-8"/>
      <point x="318" y="-4"/>
      <point x="349" y="6" type="curve" smooth="yes"/>
      <point x="380" y="16"/>
      <point x="408" y="30"/>
      <point x="433" y="49" type="curve" smooth="yes"/>
      <point x="458" y="68"/>
      <point x="478" y="91"/>
      <point x="495" y="119" type="curve" smooth="yes"/>
      <point x="512" y="147"/>
      <point x="523" y="178"/>
      <point x="527" y="214" type="curve" smooth="yes"/>
      <point x="532" y="256"/>
      <point x="526" y="292"/>
      <point x="508" y="320" type="curve" smooth="yes"/>
      <point x="490" y="348"/>
      <point x="460" y="368"/>
      <point x="418" y="382" type="curve"/>
      <point x="437" y="388"/>
      <point x="454" y="396"/>
      <point x="469" y="405" type="curve" smooth="yes"/>
      <point x="484" y="414"/>
      <point x="498" y="425"/>
      <point x="509" y="438" type="curve" smooth="yes"/>
      <point x="520" y="451"/>
      <point x="531" y="466"/>
      <point x="538" y="484" type="curve" smooth="yes"/>
      <point x="545" y="502"/>
      <point x="550" y="521"/>
      <point x="553" y="544" type="curve" smooth="yes"/>
      <point x="556" y="570"/>
      <point x="554" y="595"/>
      <point x="547" y="618" type="curve" smooth="yes"/>
      <point x="540" y="641"/>
      <point x="527" y="660"/>
      <point x="510" y="677" type="curve" smooth="yes"/>
      <point x="493" y="694"/>
      <point x="472" y="707"/>
      <point x="446" y="717" type="curve" smooth="yes"/>
      <point x="420" y="727"/>
      <point x="391" y="731"/>
    </contour>
  </outline>
</glyph>
<glyph name="four" format="1">
  <advance width="573"/>
  <unicode hex="0034"/>
  <note>
    four
  </note>
  <outline>
    <contour>
      <point x="559" y="272" type="line"/>
      <point x="468" y="272" type="line"/>
      <point x="524" y="724" type="line"/>
      <point x="407" y="724" type="line"/>
      <point x="8" y="266" type="line"/>
      <point x="13" y="204" type="line"/>
      <point x="14" y="196"/>
      <point x="16" y="189"/>
      <point x="22" y="184" type="curve" smooth="yes"/>
      <point x="28" y="179"/>
      <point x="36" y="176"/>
      <point x="44" y="176" type="curve" smooth="yes"/>
      <point x="349" y="176" type="line"/>
      <point x="327" y="0" type="line"/>
      <point x="435" y="0" type="line"/>
      <point x="457" y="176" type="line"/>
      <point x="522" y="176" type="line" smooth="yes"/>
      <point x="530" y="176"/>
      <point x="537" y="179"/>
      <point x="542" y="184" type="curve" smooth="yes"/>
      <point x="547" y="189"/>
      <point x="550" y="194"/>
      <point x="551" y="201" type="curve" smooth="yes"/>
    </contour>
    <contour>
      <point x="389" y="509" type="curve" smooth="yes"/>
      <point x="360" y="272" type="line"/>
      <point x="140" y="272" type="line"/>
      <point x="403" y="582" type="line"/>
      <point x="400" y="569"/>
      <point x="397" y="556"/>
      <point x="395" y="544" type="curve" smooth="yes"/>
      <point x="393" y="532"/>
      <point x="390" y="520"/>
    </contour>
  </outline>
</glyph>
<glyph name="five" format="1">
  <advance width="614"/>
  <unicode hex="0035"/>
  <note>
    five
  </note>
  <outline>
    <contour>
      <point x="567" y="670" type="curve" smooth="yes"/>
      <point x="573" y="723" type="line"/>
      <point x="216" y="723" type="line"/>
      <point x="113" y="372" type="line"/>
      <point x="188" y="350" type="line"/>
      <point x="225" y="363"/>
      <point x="260" y="369"/>
      <point x="295" y="369" type="curve" smooth="yes"/>
      <point x="339" y="369"/>
      <point x="372" y="358"/>
      <point x="392" y="336" type="curve" smooth="yes"/>
      <point x="412" y="314"/>
      <point x="420" y="283"/>
      <point x="415" y="244" type="curve" smooth="yes"/>
      <point x="412" y="223"/>
      <point x="407" y="202"/>
      <point x="399" y="184" type="curve" smooth="yes"/>
      <point x="391" y="166"/>
      <point x="380" y="150"/>
      <point x="367" y="137" type="curve" smooth="yes"/>
      <point x="354" y="124"/>
      <point x="338" y="113"/>
      <point x="320" y="106" type="curve" smooth="yes"/>
      <point x="302" y="99"/>
      <point x="282" y="96"/>
      <point x="259" y="96" type="curve" smooth="yes"/>
      <point x="238" y="96"/>
      <point x="219" y="99"/>
      <point x="205" y="104" type="curve" smooth="yes"/>
      <point x="191" y="109"/>
      <point x="179" y="115"/>
      <point x="168" y="121" type="curve" smooth="yes"/>
      <point x="157" y="127"/>
      <point x="148" y="134"/>
      <point x="140" y="139" type="curve" smooth="yes"/>
      <point x="132" y="144"/>
      <point x="124" y="147"/>
      <point x="116" y="147" type="curve" smooth="yes"/>
      <point x="103" y="147"/>
      <point x="91" y="141"/>
      <point x="82" y="130" type="curve" smooth="yes"/>
      <point x="37" y="77" type="line"/>
      <point x="48" y="66"/>
      <point x="60" y="55"/>
      <point x="74" y="45" type="curve" smooth="yes"/>
      <point x="88" y="35"/>
      <point x="103" y="26"/>
      <point x="120" y="18" type="curve" smooth="yes"/>
      <point x="137" y="10"/>
      <point x="155" y="4"/>
      <point x="175" y="-1" type="curve" smooth="yes"/>
      <point x="195" y="-6"/>
      <point x="216" y="-8"/>
      <point x="239" y="-8" type="curve" smooth="yes"/>
      <point x="278" y="-8"/>
      <point x="315" y="-1"/>
      <point x="349" y="11" type="curve" smooth="yes"/>
      <point x="383" y="23"/>
      <point x="413" y="41"/>
      <point x="440" y="63" type="curve" smooth="yes"/>
      <point x="467" y="85"/>
      <point x="489" y="112"/>
      <point x="506" y="144" type="curve" smooth="yes"/>
      <point x="523" y="176"/>
      <point x="535" y="211"/>
      <point x="540" y="249" type="curve" smooth="yes"/>
      <point x="544" y="280"/>
      <point x="542" y="309"/>
      <point x="535" y="336" type="curve" smooth="yes"/>
      <point x="528" y="363"/>
      <point x="516" y="386"/>
      <point x="499" y="406" type="curve" smooth="yes"/>
      <point x="482" y="426"/>
      <point x="459" y="442"/>
      <point x="432" y="453" type="curve" smooth="yes"/>
      <point x="405" y="464"/>
      <point x="372" y="470"/>
      <point x="334" y="470" type="curve" smooth="yes"/>
      <point x="307" y="470"/>
      <point x="277" y="467"/>
      <point x="244" y="460" type="curve"/>
      <point x="288" y="611" type="line"/>
      <point x="487" y="611" type="line" smooth="yes"/>
      <point x="513" y="611"/>
      <point x="532" y="617"/>
      <point x="545" y="628" type="curve" smooth="yes"/>
      <point x="558" y="639"/>
      <point x="565" y="652"/>
    </contour>
  </outline>
</glyph>
<glyph name="six" format="1">
  <advance width="542"/>
  <unicode hex="0036"/>
  <note>
    six
  </note>
  <outline>
    <contour>
      <point x="337" y="452" type="curve" smooth="yes"/>
      <point x="318" y="452"/>
      <point x="301" y="450"/>
      <point x="284" y="446" type="curve" smooth="yes"/>
      <point x="267" y="442"/>
      <point x="252" y="436"/>
      <point x="237" y="429" type="curve"/>
      <point x="242" y="434"/>
      <point x="246" y="439"/>
      <point x="251" y="444" type="curve" smooth="yes"/>
      <point x="256" y="449"/>
      <point x="261" y="454"/>
      <point x="266" y="460" type="curve"/>
      <point x="513" y="723" type="line"/>
      <point x="403" y="723" type="line" smooth="yes"/>
      <point x="388" y="723"/>
      <point x="374" y="720"/>
      <point x="362" y="714" type="curve" smooth="yes"/>
      <point x="350" y="708"/>
      <point x="340" y="702"/>
      <point x="333" y="694" type="curve" smooth="yes"/>
      <point x="132" y="462" type="line" smooth="yes"/>
      <point x="98" y="423"/>
      <point x="72" y="387"/>
      <point x="54" y="351" type="curve" smooth="yes"/>
      <point x="36" y="315"/>
      <point x="25" y="280"/>
      <point x="21" y="246" type="curve" smooth="yes"/>
      <point x="16" y="208"/>
      <point x="17" y="173"/>
      <point x="25" y="142" type="curve" smooth="yes"/>
      <point x="33" y="111"/>
      <point x="46" y="84"/>
      <point x="65" y="62" type="curve" smooth="yes"/>
      <point x="84" y="40"/>
      <point x="108" y="22"/>
      <point x="137" y="10" type="curve" smooth="yes"/>
      <point x="166" y="-2"/>
      <point x="200" y="-8"/>
      <point x="239" y="-8" type="curve" smooth="yes"/>
      <point x="277" y="-8"/>
      <point x="313" y="-2"/>
      <point x="346" y="11" type="curve" smooth="yes"/>
      <point x="379" y="24"/>
      <point x="408" y="41"/>
      <point x="433" y="63" type="curve" smooth="yes"/>
      <point x="458" y="85"/>
      <point x="478" y="110"/>
      <point x="494" y="140" type="curve" smooth="yes"/>
      <point x="510" y="170"/>
      <point x="520" y="201"/>
      <point x="524" y="235" type="curve" smooth="yes"/>
      <point x="528" y="271"/>
      <point x="527" y="303"/>
      <point x="518" y="330" type="curve" smooth="yes"/>
      <point x="509" y="357"/>
      <point x="496" y="379"/>
      <point x="479" y="397" type="curve" smooth="yes"/>
      <point x="462" y="415"/>
      <point x="440" y="429"/>
      <point x="415" y="438" type="curve" smooth="yes"/>
      <point x="390" y="447"/>
      <point x="364" y="452"/>
    </contour>
    <contour>
      <point x="137" y="227" type="curve" smooth="yes"/>
      <point x="139" y="246"/>
      <point x="144" y="263"/>
      <point x="152" y="279" type="curve" smooth="yes"/>
      <point x="160" y="295"/>
      <point x="171" y="309"/>
      <point x="184" y="321" type="curve" smooth="yes"/>
      <point x="197" y="333"/>
      <point x="212" y="342"/>
      <point x="229" y="349" type="curve" smooth="yes"/>
      <point x="246" y="356"/>
      <point x="264" y="359"/>
      <point x="284" y="359" type="curve" smooth="yes"/>
      <point x="304" y="359"/>
      <point x="320" y="356"/>
      <point x="336" y="350" type="curve" smooth="yes"/>
      <point x="352" y="344"/>
      <point x="365" y="336"/>
      <point x="375" y="324" type="curve" smooth="yes"/>
      <point x="385" y="312"/>
      <point x="393" y="298"/>
      <point x="397" y="282" type="curve" smooth="yes"/>
      <point x="401" y="266"/>
      <point x="403" y="247"/>
      <point x="400" y="226" type="curve"/>
      <point x="398" y="207"/>
      <point x="392" y="189"/>
      <point x="383" y="173" type="curve" smooth="yes"/>
      <point x="374" y="157"/>
      <point x="363" y="143"/>
      <point x="350" y="131" type="curve" smooth="yes"/>
      <point x="337" y="119"/>
      <point x="321" y="110"/>
      <point x="304" y="103" type="curve" smooth="yes"/>
      <point x="287" y="96"/>
      <point x="269" y="93"/>
      <point x="249" y="93" type="curve" smooth="yes"/>
      <point x="228" y="93"/>
      <point x="210" y="97"/>
      <point x="195" y="103" type="curve" smooth="yes"/>
      <point x="180" y="109"/>
      <point x="167" y="118"/>
      <point x="158" y="130" type="curve" smooth="yes"/>
      <point x="149" y="142"/>
      <point x="141" y="156"/>
      <point x="138" y="172" type="curve" smooth="yes"/>
      <point x="135" y="188"/>
      <point x="135" y="207"/>
    </contour>
  </outline>
</glyph>
<glyph name="seven" format="1">
  <advance width="584"/>
  <unicode hex="0037"/>
  <note>
    seven
  </note>
  <outline>
    <contour>
      <point x="565" y="723" type="line"/>
      <point x="65" y="723" type="line"/>
      <point x="55" y="639" type="line"/>
      <point x="55" y="638" type="line"/>
      <point x="55" y="637" type="line"/>
      <point x="42" y="530" type="line"/>
      <point x="95" y="530" type="line" smooth="yes"/>
      <point x="108" y="530"/>
      <point x="116" y="536"/>
      <point x="120" y="548" type="curve" smooth="yes"/>
      <point x="123" y="558"/>
      <point x="128" y="579"/>
      <point x="135" y="611" type="curve"/>
      <point x="426" y="611" type="line"/>
      <point x="410" y="595"/>
      <point x="394" y="575"/>
      <point x="380" y="552" type="curve" smooth="yes"/>
      <point x="32" y="0" type="line"/>
      <point x="122" y="0" type="line" smooth="yes"/>
      <point x="140" y="0"/>
      <point x="154" y="4"/>
      <point x="165" y="12" type="curve" smooth="yes"/>
      <point x="176" y="20"/>
      <point x="186" y="30"/>
      <point x="193" y="42" type="curve" smooth="yes"/>
      <point x="535" y="606" type="line" smooth="yes"/>
      <point x="539" y="613"/>
      <point x="544" y="621"/>
      <point x="549" y="631" type="curve" smooth="yes"/>
      <point x="554" y="641"/>
      <point x="557" y="654"/>
      <point x="559" y="670" type="curve" smooth="yes"/>
    </contour>
  </outline>
</glyph>
<glyph name="eight" format="1">
  <advance width="557"/>
  <unicode hex="0038"/>
  <note>
    eight
  </note>
  <outline>
    <contour>
      <point x="244" y="-8" type="curve" smooth="yes"/>
      <point x="281" y="-8"/>
      <point x="316" y="-3"/>
      <point x="348" y="7" type="curve" smooth="yes"/>
      <point x="380" y="17"/>
      <point x="408" y="32"/>
      <point x="432" y="50" type="curve" smooth="yes"/>
      <point x="456" y="68"/>
      <point x="477" y="90"/>
      <point x="492" y="116" type="curve" smooth="yes"/>
      <point x="507" y="142"/>
      <point x="517" y="171"/>
      <point x="521" y="203" type="curve" smooth="yes"/>
      <point x="526" y="246"/>
      <point x="520" y="281"/>
      <point x="503" y="311" type="curve" smooth="yes"/>
      <point x="486" y="341"/>
      <point x="456" y="363"/>
      <point x="413" y="377" type="curve"/>
      <point x="450" y="392"/>
      <point x="478" y="413"/>
      <point x="499" y="440" type="curve" smooth="yes"/>
      <point x="520" y="467"/>
      <point x="533" y="499"/>
      <point x="538" y="537" type="curve" smooth="yes"/>
      <point x="541" y="564"/>
      <point x="538" y="590"/>
      <point x="530" y="614" type="curve" smooth="yes"/>
      <point x="522" y="638"/>
      <point x="509" y="657"/>
      <point x="491" y="675" type="curve" smooth="yes"/>
      <point x="473" y="692"/>
      <point x="452" y="706"/>
      <point x="425" y="716" type="curve" smooth="yes"/>
      <point x="398" y="726"/>
      <point x="368" y="731"/>
      <point x="335" y="731" type="curve" smooth="yes"/>
      <point x="302" y="731"/>
      <point x="270" y="726"/>
      <point x="241" y="716" type="curve" smooth="yes"/>
      <point x="212" y="706"/>
      <point x="186" y="693"/>
      <point x="164" y="675" type="curve" smooth="yes"/>
      <point x="142" y="658"/>
      <point x="124" y="638"/>
      <point x="110" y="614" type="curve" smooth="yes"/>
      <point x="96" y="590"/>
      <point x="87" y="564"/>
      <point x="84" y="537" type="curve" smooth="yes"/>
      <point x="79" y="499"/>
      <point x="84" y="467"/>
      <point x="98" y="440" type="curve" smooth="yes"/>
      <point x="112" y="413"/>
      <point x="136" y="392"/>
      <point x="170" y="377" type="curve"/>
      <point x="124" y="363"/>
      <point x="89" y="341"/>
      <point x="64" y="311" type="curve" smooth="yes"/>
      <point x="39" y="281"/>
      <point x="24" y="246"/>
      <point x="19" y="203" type="curve" smooth="yes"/>
      <point x="15" y="171"/>
      <point x="17" y="142"/>
      <point x="26" y="116" type="curve" smooth="yes"/>
      <point x="35" y="90"/>
      <point x="49" y="68"/>
      <point x="69" y="50" type="curve" smooth="yes"/>
      <point x="89" y="32"/>
      <point x="113" y="17"/>
      <point x="143" y="7" type="curve" smooth="yes"/>
      <point x="173" y="-3"/>
      <point x="207" y="-8"/>
    </contour>
    <contour>
      <point x="256" y="88" type="curve" smooth="yes"/>
      <point x="236" y="88"/>
      <point x="218" y="91"/>
      <point x="203" y="97" type="curve" smooth="yes"/>
      <point x="188" y="103"/>
      <point x="177" y="112"/>
      <point x="168" y="122" type="curve" smooth="yes"/>
      <point x="159" y="132"/>
      <point x="152" y="144"/>
      <point x="148" y="158" type="curve" smooth="yes"/>
      <point x="144" y="172"/>
      <point x="144" y="188"/>
      <point x="146" y="205" type="curve" smooth="yes"/>
      <point x="151" y="245"/>
      <point x="166" y="275"/>
      <point x="190" y="295" type="curve" smooth="yes"/>
      <point x="214" y="315"/>
      <point x="246" y="326"/>
      <point x="285" y="326" type="curve" smooth="yes"/>
      <point x="324" y="326"/>
      <point x="352" y="315"/>
      <point x="372" y="295" type="curve" smooth="yes"/>
      <point x="392" y="275"/>
      <point x="399" y="245"/>
      <point x="394" y="205" type="curve" smooth="yes"/>
      <point x="392" y="188"/>
      <point x="387" y="172"/>
      <point x="380" y="158" type="curve" smooth="yes"/>
      <point x="373" y="144"/>
      <point x="364" y="132"/>
      <point x="352" y="122" type="curve" smooth="yes"/>
      <point x="340" y="112"/>
      <point x="326" y="103"/>
      <point x="310" y="97" type="curve" smooth="yes"/>
      <point x="294" y="91"/>
      <point x="276" y="88"/>
    </contour>
    <contour>
      <point x="297" y="422" type="curve" smooth="yes"/>
      <point x="277" y="422"/>
      <point x="260" y="426"/>
      <point x="247" y="432" type="curve" smooth="yes"/>
      <point x="234" y="438"/>
      <point x="225" y="447"/>
      <point x="218" y="457" type="curve" smooth="yes"/>
      <point x="211" y="467"/>
      <point x="206" y="479"/>
      <point x="204" y="493" type="curve" smooth="yes"/>
      <point x="202" y="506"/>
      <point x="202" y="521"/>
      <point x="204" y="535" type="curve" smooth="yes"/>
      <point x="206" y="549"/>
      <point x="209" y="562"/>
      <point x="215" y="574" type="curve" smooth="yes"/>
      <point x="221" y="586"/>
      <point x="229" y="597"/>
      <point x="239" y="607" type="curve" smooth="yes"/>
      <point x="249" y="617"/>
      <point x="261" y="623"/>
      <point x="275" y="629" type="curve" smooth="yes"/>
      <point x="289" y="635"/>
      <point x="305" y="638"/>
      <point x="323" y="638" type="curve" smooth="yes"/>
      <point x="341" y="638"/>
      <point x="357" y="635"/>
      <point x="370" y="629" type="curve" smooth="yes"/>
      <point x="383" y="623"/>
      <point x="392" y="617"/>
      <point x="400" y="607" type="curve" smooth="yes"/>
      <point x="408" y="597"/>
      <point x="412" y="586"/>
      <point x="415" y="574" type="curve" smooth="yes"/>
      <point x="418" y="562"/>
      <point x="419" y="549"/>
      <point x="417" y="535" type="curve" smooth="yes"/>
      <point x="415" y="521"/>
      <point x="412" y="507"/>
      <point x="407" y="493" type="curve" smooth="yes"/>
      <point x="402" y="479"/>
      <point x="395" y="467"/>
      <point x="385" y="457" type="curve" smooth="yes"/>
      <point x="375" y="447"/>
      <point x="362" y="438"/>
      <point x="348" y="432" type="curve" smooth="yes"/>
      <point x="334" y="426"/>
      <point x="317" y="422"/>
    </contour>
  </outline>
</glyph>
<glyph name="nine" format="1">
  <advance width="524"/>
  <unicode hex="0039"/>
  <note>
    nine
  </note>
  <outline>
    <contour>
      <point x="191" y="288" type="curve" smooth="yes"/>
      <point x="213" y="288"/>
      <point x="234" y="291"/>
      <point x="255" y="297" type="curve"/>
      <point x="276" y="302"/>
      <point x="295" y="310"/>
      <point x="313" y="321" type="curve"/>
      <point x="308" y="314"/>
      <point x="302" y="308"/>
      <point x="296" y="301" type="curve" smooth="yes"/>
      <point x="290" y="294"/>
      <point x="285" y="287"/>
      <point x="278" y="280" type="curve"/>
      <point x="19" y="0" type="line"/>
      <point x="132" y="0" type="line" smooth="yes"/>
      <point x="146" y="0"/>
      <point x="159" y="2"/>
      <point x="171" y="8" type="curve" smooth="yes"/>
      <point x="183" y="14"/>
      <point x="192" y="20"/>
      <point x="199" y="28" type="curve" smooth="yes"/>
      <point x="394" y="264" type="line" smooth="yes"/>
      <point x="409" y="282"/>
      <point x="422" y="299"/>
      <point x="434" y="317" type="curve" smooth="yes"/>
      <point x="446" y="335"/>
      <point x="457" y="353"/>
      <point x="466" y="371" type="curve" smooth="yes"/>
      <point x="475" y="389"/>
      <point x="484" y="409"/>
      <point x="490" y="429" type="curve" smooth="yes"/>
      <point x="496" y="449"/>
      <point x="500" y="471"/>
      <point x="503" y="493" type="curve" smooth="yes"/>
      <point x="507" y="528"/>
      <point x="506" y="560"/>
      <point x="498" y="589" type="curve" smooth="yes"/>
      <point x="490" y="618"/>
      <point x="478" y="643"/>
      <point x="460" y="664" type="curve" smooth="yes"/>
      <point x="442" y="685"/>
      <point x="418" y="702"/>
      <point x="390" y="714" type="curve" smooth="yes"/>
      <point x="362" y="726"/>
      <point x="329" y="731"/>
      <point x="292" y="731" type="curve" smooth="yes"/>
      <point x="255" y="731"/>
      <point x="222" y="724"/>
      <point x="190" y="712" type="curve" smooth="yes"/>
      <point x="158" y="700"/>
      <point x="130" y="683"/>
      <point x="106" y="662" type="curve" smooth="yes"/>
      <point x="82" y="641"/>
      <point x="61" y="616"/>
      <point x="46" y="588" type="curve" smooth="yes"/>
      <point x="31" y="560"/>
      <point x="21" y="528"/>
      <point x="17" y="496" type="curve" smooth="yes"/>
      <point x="13" y="461"/>
      <point x="15" y="432"/>
      <point x="23" y="406" type="curve" smooth="yes"/>
      <point x="31" y="380"/>
      <point x="43" y="359"/>
      <point x="60" y="341" type="curve" smooth="yes"/>
      <point x="77" y="323"/>
      <point x="96" y="311"/>
      <point x="119" y="302" type="curve" smooth="yes"/>
      <point x="142" y="293"/>
      <point x="166" y="288"/>
    </contour>
    <contour>
      <point x="386" y="505" type="curve" smooth="yes"/>
      <point x="384" y="488"/>
      <point x="379" y="471"/>
      <point x="372" y="456" type="curve" smooth="yes"/>
      <point x="365" y="441"/>
      <point x="355" y="429"/>
      <point x="343" y="418" type="curve" smooth="yes"/>
      <point x="331" y="407"/>
      <point x="317" y="398"/>
      <point x="301" y="392" type="curve" smooth="yes"/>
      <point x="285" y="386"/>
      <point x="266" y="382"/>
      <point x="246" y="382" type="curve" smooth="yes"/>
      <point x="208" y="382"/>
      <point x="179" y="393"/>
      <point x="161" y="414" type="curve" smooth="yes"/>
      <point x="143" y="435"/>
      <point x="136" y="466"/>
      <point x="141" y="506" type="curve" smooth="yes"/>
      <point x="143" y="524"/>
      <point x="148" y="541"/>
      <point x="156" y="556" type="curve" smooth="yes"/>
      <point x="164" y="571"/>
      <point x="173" y="584"/>
      <point x="185" y="595" type="curve" smooth="yes"/>
      <point x="197" y="606"/>
      <point x="210" y="615"/>
      <point x="226" y="621" type="curve" smooth="yes"/>
      <point x="242" y="627"/>
      <point x="259" y="630"/>
      <point x="278" y="630" type="curve" smooth="yes"/>
      <point x="296" y="630"/>
      <point x="313" y="628"/>
      <point x="327" y="622" type="curve" smooth="yes"/>
      <point x="341" y="616"/>
      <point x="353" y="608"/>
      <point x="363" y="597" type="curve" smooth="yes"/>
      <point x="373" y="586"/>
      <point x="380" y="574"/>
      <point x="384" y="558" type="curve" smooth="yes"/>
      <point x="388" y="543"/>
      <point x="388" y="525"/>
    </contour>
  </outline>
</glyph>
<glyph name="colon" format="1">
  <advance width="247"/>
  <unicode hex="003A"/>
  <note>
    colon
  </note>
  <outline>
    <contour>
      <point x="26" y="68" type="curve" smooth="yes"/>
      <point x="25" y="57"/>
      <point x="25" y="47"/>
      <point x="28" y="38" type="curve" smooth="yes"/>
      <point x="31" y="29"/>
      <point x="35" y="22"/>
      <point x="41" y="15" type="curve" smooth="yes"/>
      <point x="47" y="8"/>
      <point x="55" y="3"/>
      <point x="64" y="-1" type="curve" smooth="yes"/>
      <point x="73" y="-5"/>
      <point x="82" y="-7"/>
      <point x="93" y="-7" type="curve" smooth="yes"/>
      <point x="103" y="-7"/>
      <point x="113" y="-5"/>
      <point x="123" y="-1" type="curve" smooth="yes"/>
      <point x="133" y="3"/>
      <point x="142" y="8"/>
      <point x="149" y="15" type="curve" smooth="yes"/>
      <point x="156" y="22"/>
      <point x="163" y="29"/>
      <point x="168" y="38" type="curve" smooth="yes"/>
      <point x="173" y="47"/>
      <point x="177" y="57"/>
      <point x="178" y="68" type="curve" smooth="yes"/>
      <point x="179" y="78"/>
      <point x="178" y="89"/>
      <point x="175" y="98" type="curve" smooth="yes"/>
      <point x="172" y="107"/>
      <point x="168" y="115"/>
      <point x="162" y="122" type="curve" smooth="yes"/>
      <point x="156" y="129"/>
      <point x="149" y="134"/>
      <point x="140" y="138" type="curve" smooth="yes"/>
      <point x="131" y="142"/>
      <point x="121" y="144"/>
      <point x="111" y="144" type="curve" smooth="yes"/>
      <point x="100" y="144"/>
      <point x="91" y="142"/>
      <point x="81" y="138" type="curve" smooth="yes"/>
      <point x="71" y="134"/>
      <point x="62" y="129"/>
      <point x="54" y="122" type="curve" smooth="yes"/>
      <point x="46" y="115"/>
      <point x="41" y="107"/>
      <point x="36" y="98" type="curve" smooth="yes"/>
      <point x="31" y="89"/>
      <point x="27" y="78"/>
    </contour>
    <contour>
      <point x="70" y="424" type="curve" smooth="yes"/>
      <point x="69" y="413"/>
      <point x="69" y="404"/>
      <point x="72" y="395" type="curve" smooth="yes"/>
      <point x="75" y="386"/>
      <point x="79" y="378"/>
      <point x="85" y="371" type="curve" smooth="yes"/>
      <point x="91" y="364"/>
      <point x="98" y="359"/>
      <point x="107" y="355" type="curve" smooth="yes"/>
      <point x="116" y="351"/>
      <point x="126" y="350"/>
      <point x="137" y="350" type="curve" smooth="yes"/>
      <point x="147" y="350"/>
      <point x="157" y="351"/>
      <point x="167" y="355" type="curve" smooth="yes"/>
      <point x="177" y="359"/>
      <point x="186" y="364"/>
      <point x="193" y="371" type="curve" smooth="yes"/>
      <point x="200" y="378"/>
      <point x="207" y="386"/>
      <point x="212" y="395" type="curve" smooth="yes"/>
      <point x="217" y="404"/>
      <point x="220" y="414"/>
      <point x="221" y="425" type="curve" smooth="yes"/>
      <point x="222" y="435"/>
      <point x="222" y="445"/>
      <point x="219" y="454" type="curve" smooth="yes"/>
      <point x="216" y="463"/>
      <point x="212" y="471"/>
      <point x="206" y="478" type="curve" smooth="yes"/>
      <point x="200" y="485"/>
      <point x="193" y="490"/>
      <point x="184" y="494" type="curve" smooth="yes"/>
      <point x="175" y="498"/>
      <point x="165" y="500"/>
      <point x="155" y="500" type="curve" smooth="yes"/>
      <point x="144" y="500"/>
      <point x="134" y="498"/>
      <point x="124" y="494" type="curve" smooth="yes"/>
      <point x="114" y="490"/>
      <point x="106" y="485"/>
      <point x="98" y="478" type="curve" smooth="yes"/>
      <point x="90" y="471"/>
      <point x="84" y="463"/>
      <point x="79" y="454" type="curve" smooth="yes"/>
      <point x="74" y="445"/>
      <point x="71" y="434"/>
    </contour>
  </outline>
</glyph>
<glyph name="semicolon" format="1">
  <advance width="257"/>
  <unicode hex="003B"/>
  <note>
    semicolon
  </note>
  <outline>
    <contour>
      <point x="40" y="76" type="curve" smooth="yes"/>
      <point x="39" y="65"/>
      <point x="40" y="55"/>
      <point x="42" y="46" type="curve" smooth="yes"/>
      <point x="44" y="37"/>
      <point x="49" y="30"/>
      <point x="54" y="23" type="curve" smooth="yes"/>
      <point x="59" y="16"/>
      <point x="66" y="11"/>
      <point x="74" y="7" type="curve" smooth="yes"/>
      <point x="82" y="3"/>
      <point x="92" y="2"/>
      <point x="102" y="2" type="curve"/>
      <point x="99" y="-8"/>
      <point x="94" y="-18"/>
      <point x="88" y="-27" type="curve" smooth="yes"/>
      <point x="82" y="-36"/>
      <point x="77" y="-43"/>
      <point x="71" y="-51" type="curve" smooth="yes"/>
      <point x="65" y="-59"/>
      <point x="58" y="-65"/>
      <point x="52" y="-71" type="curve" smooth="yes"/>
      <point x="37" y="-86" type="line" smooth="yes"/>
      <point x="34" y="-89"/>
      <point x="31" y="-92"/>
      <point x="29" y="-95" type="curve" smooth="yes"/>
      <point x="27" y="-98"/>
      <point x="25" y="-101"/>
      <point x="25" y="-104" type="curve"/>
      <point x="24" y="-111"/>
      <point x="27" y="-117"/>
      <point x="32" y="-122" type="curve" smooth="yes"/>
      <point x="51" y="-142" type="line"/>
      <point x="70" y="-128"/>
      <point x="88" y="-113"/>
      <point x="104" y="-96" type="curve" smooth="yes"/>
      <point x="120" y="-79"/>
      <point x="132" y="-62"/>
      <point x="144" y="-44" type="curve" smooth="yes"/>
      <point x="156" y="-26"/>
      <point x="165" y="-10"/>
      <point x="172" y="8" type="curve" smooth="yes"/>
      <point x="179" y="26"/>
      <point x="184" y="43"/>
      <point x="186" y="59" type="curve" smooth="yes"/>
      <point x="187" y="70"/>
      <point x="187" y="81"/>
      <point x="185" y="91" type="curve" smooth="yes"/>
      <point x="183" y="101"/>
      <point x="179" y="110"/>
      <point x="174" y="118" type="curve" smooth="yes"/>
      <point x="169" y="126"/>
      <point x="162" y="133"/>
      <point x="153" y="137" type="curve" smooth="yes"/>
      <point x="144" y="141"/>
      <point x="134" y="143"/>
      <point x="121" y="143" type="curve" smooth="yes"/>
      <point x="110" y="143"/>
      <point x="100" y="142"/>
      <point x="91" y="138" type="curve" smooth="yes"/>
      <point x="82" y="134"/>
      <point x="73" y="130"/>
      <point x="66" y="124" type="curve" smooth="yes"/>
      <point x="59" y="118"/>
      <point x="54" y="110"/>
      <point x="49" y="102" type="curve" smooth="yes"/>
      <point x="44" y="94"/>
      <point x="41" y="85"/>
    </contour>
    <contour>
      <point x="80" y="424" type="curve" smooth="yes"/>
      <point x="79" y="413"/>
      <point x="79" y="404"/>
      <point x="82" y="395" type="curve" smooth="yes"/>
      <point x="85" y="386"/>
      <point x="89" y="378"/>
      <point x="95" y="371" type="curve" smooth="yes"/>
      <point x="101" y="364"/>
      <point x="108" y="359"/>
      <point x="117" y="355" type="curve" smooth="yes"/>
      <point x="126" y="351"/>
      <point x="135" y="350"/>
      <point x="146" y="350" type="curve" smooth="yes"/>
      <point x="156" y="350"/>
      <point x="167" y="351"/>
      <point x="177" y="355" type="curve" smooth="yes"/>
      <point x="187" y="359"/>
      <point x="196" y="364"/>
      <point x="203" y="371" type="curve" smooth="yes"/>
      <point x="210" y="378"/>
      <point x="216" y="386"/>
      <point x="221" y="395" type="curve" smooth="yes"/>
      <point x="226" y="404"/>
      <point x="230" y="413"/>
      <point x="231" y="424" type="curve" smooth="yes"/>
      <point x="232" y="434"/>
      <point x="232" y="445"/>
      <point x="229" y="454" type="curve" smooth="yes"/>
      <point x="226" y="463"/>
      <point x="222" y="471"/>
      <point x="216" y="478" type="curve" smooth="yes"/>
      <point x="210" y="485"/>
      <point x="203" y="490"/>
      <point x="194" y="494" type="curve" smooth="yes"/>
      <point x="185" y="498"/>
      <point x="175" y="500"/>
      <point x="165" y="500" type="curve" smooth="yes"/>
      <point x="154" y="500"/>
      <point x="144" y="498"/>
      <point x="134" y="494" type="curve" smooth="yes"/>
      <point x="124" y="490"/>
      <point x="116" y="485"/>
      <point x="108" y="478" type="curve" smooth="yes"/>
      <point x="100" y="471"/>
      <point x="94" y="463"/>
      <point x="89" y="454" type="curve" smooth="yes"/>
      <point x="84" y="445"/>
      <point x="81" y="434"/>
    </contour>
  </outline>
</glyph>
<glyph name="less" format="1">
  <advance width="524"/>
  <unicode hex="003C"/>
  <note>
    less
  </note>
  <outline>
    <contour>
      <point x="458" y="569" type="line"/>
      <point x="37" y="362" type="line"/>
      <point x="31" y="312" type="line"/>
      <point x="402" y="105" type="line"/>
      <point x="412" y="193" type="line" smooth="yes"/>
      <point x="413" y="200"/>
      <point x="413" y="205"/>
      <point x="410" y="211" type="curve" smooth="yes"/>
      <point x="407" y="217"/>
      <point x="402" y="222"/>
      <point x="395" y="226" type="curve" smooth="yes"/>
      <point x="225" y="319" type="line" smooth="yes"/>
      <point x="218" y="323"/>
      <point x="210" y="326"/>
      <point x="202" y="329" type="curve" smooth="yes"/>
      <point x="194" y="332"/>
      <point x="185" y="335"/>
      <point x="176" y="337" type="curve"/>
      <point x="186" y="339"/>
      <point x="195" y="342"/>
      <point x="204" y="345" type="curve" smooth="yes"/>
      <point x="213" y="348"/>
      <point x="221" y="351"/>
      <point x="229" y="355" type="curve" smooth="yes"/>
      <point x="422" y="448" type="line" smooth="yes"/>
      <point x="430" y="452"/>
      <point x="436" y="456"/>
      <point x="440" y="462" type="curve"/>
      <point x="444" y="467"/>
      <point x="447" y="474"/>
      <point x="448" y="481" type="curve" smooth="yes"/>
    </contour>
  </outline>
</glyph>
<glyph name="equal" format="1">
  <advance width="586"/>
  <unicode hex="003D"/>
  <note>
    equal
  </note>
  <outline>
    <contour>
      <point x="509" y="294" type="line"/>
      <point x="66" y="294" type="line"/>
      <point x="55" y="202" type="line"/>
      <point x="498" y="202" type="line"/>
    </contour>
    <contour>
      <point x="531" y="470" type="line"/>
      <point x="88" y="470" type="line"/>
      <point x="77" y="378" type="line"/>
      <point x="520" y="378" type="line"/>
    </contour>
  </outline>
</glyph>
<glyph name="greater" format="1">
  <advance width="525"/>
  <unicode hex="003E"/>
  <note>
    greater
  </note>
  <outline>
    <contour>
      <point x="77" y="193" type="curve" smooth="yes"/>
      <point x="66" y="105" type="line"/>
      <point x="487" y="312" type="line"/>
      <point x="494" y="362" type="line"/>
      <point x="123" y="568" type="line"/>
      <point x="112" y="480" type="line" smooth="yes"/>
      <point x="111" y="473"/>
      <point x="112" y="468"/>
      <point x="115" y="462" type="curve" smooth="yes"/>
      <point x="118" y="456"/>
      <point x="123" y="452"/>
      <point x="130" y="448" type="curve" smooth="yes"/>
      <point x="300" y="355" type="line" smooth="yes"/>
      <point x="307" y="351"/>
      <point x="315" y="348"/>
      <point x="323" y="345" type="curve" smooth="yes"/>
      <point x="331" y="342"/>
      <point x="340" y="339"/>
      <point x="349" y="337" type="curve"/>
      <point x="329" y="332"/>
      <point x="311" y="326"/>
      <point x="295" y="319" type="curve"/>
      <point x="102" y="226" type="line" smooth="yes"/>
      <point x="94" y="222"/>
      <point x="88" y="217"/>
      <point x="84" y="211" type="curve" smooth="yes"/>
      <point x="80" y="205"/>
      <point x="78" y="200"/>
    </contour>
  </outline>
</glyph>
<glyph name="question" format="1">
  <advance width="440"/>
  <unicode hex="003F"/>
  <note>
    question
  </note>
  <outline>
    <contour>
      <point x="22" y="658" type="curve"/>
      <point x="48" y="606" type="line"/>
      <point x="52" y="596"/>
      <point x="60" y="591"/>
      <point x="72" y="591" type="curve" smooth="yes"/>
      <point x="77" y="591"/>
      <point x="83" y="593"/>
      <point x="90" y="597" type="curve" smooth="yes"/>
      <point x="97" y="601"/>
      <point x="105" y="606"/>
      <point x="115" y="611" type="curve" smooth="yes"/>
      <point x="125" y="616"/>
      <point x="136" y="621"/>
      <point x="150" y="625" type="curve" smooth="yes"/>
      <point x="164" y="629"/>
      <point x="180" y="631"/>
      <point x="199" y="631" type="curve" smooth="yes"/>
      <point x="212" y="631"/>
      <point x="224" y="630"/>
      <point x="235" y="626" type="curve" smooth="yes"/>
      <point x="246" y="622"/>
      <point x="255" y="617"/>
      <point x="262" y="610" type="curve" smooth="yes"/>
      <point x="269" y="603"/>
      <point x="274" y="596"/>
      <point x="277" y="586" type="curve" smooth="yes"/>
      <point x="280" y="576"/>
      <point x="281" y="565"/>
      <point x="280" y="553" type="curve" smooth="yes"/>
      <point x="278" y="535"/>
      <point x="272" y="519"/>
      <point x="263" y="506" type="curve" smooth="yes"/>
      <point x="254" y="493"/>
      <point x="244" y="482"/>
      <point x="232" y="471" type="curve"/>
      <point x="220" y="461"/>
      <point x="206" y="450"/>
      <point x="192" y="441" type="curve" smooth="yes"/>
      <point x="178" y="432"/>
      <point x="166" y="424"/>
      <point x="154" y="414" type="curve"/>
      <point x="142" y="405"/>
      <point x="131" y="394"/>
      <point x="122" y="383" type="curve" smooth="yes"/>
      <point x="113" y="372"/>
      <point x="109" y="360"/>
      <point x="107" y="345" type="curve"/>
      <point x="106" y="341" type="line"/>
      <point x="106" y="336" type="line"/>
      <point x="105" y="255" type="line"/>
      <point x="189" y="255" type="line"/>
      <point x="210" y="328" type="line" smooth="yes"/>
      <point x="213" y="339"/>
      <point x="218" y="348"/>
      <point x="228" y="357" type="curve"/>
      <point x="238" y="365"/>
      <point x="249" y="374"/>
      <point x="262" y="383" type="curve" smooth="yes"/>
      <point x="275" y="392"/>
      <point x="288" y="401"/>
      <point x="302" y="411" type="curve" smooth="yes"/>
      <point x="316" y="421"/>
      <point x="330" y="432"/>
      <point x="343" y="446" type="curve" smooth="yes"/>
      <point x="356" y="460"/>
      <point x="367" y="476"/>
      <point x="377" y="495" type="curve" smooth="yes"/>
      <point x="387" y="513"/>
      <point x="393" y="535"/>
      <point x="396" y="560" type="curve" smooth="yes"/>
      <point x="399" y="586"/>
      <point x="397" y="610"/>
      <point x="390" y="631" type="curve" smooth="yes"/>
      <point x="383" y="652"/>
      <point x="372" y="670"/>
      <point x="357" y="685" type="curve" smooth="yes"/>
      <point x="342" y="700"/>
      <point x="323" y="711"/>
      <point x="300" y="719" type="curve" smooth="yes"/>
      <point x="277" y="727"/>
      <point x="252" y="731"/>
      <point x="223" y="731" type="curve" smooth="yes"/>
      <point x="202" y="731"/>
      <point x="181" y="729"/>
      <point x="162" y="725" type="curve" smooth="yes"/>
      <point x="143" y="721"/>
      <point x="125" y="716"/>
      <point x="109" y="709" type="curve" smooth="yes"/>
      <point x="93" y="702"/>
      <point x="78" y="695"/>
      <point x="63" y="686" type="curve" smooth="yes"/>
      <point x="48" y="677"/>
      <point x="35" y="668"/>
    </contour>
    <contour>
      <point x="44" y="68" type="curve" smooth="yes"/>
      <point x="43" y="57"/>
      <point x="43" y="47"/>
      <point x="46" y="38" type="curve" smooth="yes"/>
      <point x="49" y="29"/>
      <point x="53" y="21"/>
      <point x="59" y="14" type="curve" smooth="yes"/>
      <point x="65" y="7"/>
      <point x="73" y="3"/>
      <point x="82" y="-1" type="curve" smooth="yes"/>
      <point x="91" y="-5"/>
      <point x="100" y="-7"/>
      <point x="111" y="-7" type="curve" smooth="yes"/>
      <point x="121" y="-7"/>
      <point x="131" y="-5"/>
      <point x="141" y="-1" type="curve" smooth="yes"/>
      <point x="151" y="3"/>
      <point x="160" y="7"/>
      <point x="167" y="14" type="curve" smooth="yes"/>
      <point x="174" y="21"/>
      <point x="181" y="29"/>
      <point x="186" y="38" type="curve" smooth="yes"/>
      <point x="191" y="47"/>
      <point x="195" y="57"/>
      <point x="196" y="68" type="curve" smooth="yes"/>
      <point x="197" y="78"/>
      <point x="196" y="89"/>
      <point x="193" y="98" type="curve" smooth="yes"/>
      <point x="190" y="107"/>
      <point x="186" y="115"/>
      <point x="180" y="122" type="curve" smooth="yes"/>
      <point x="174" y="129"/>
      <point x="167" y="134"/>
      <point x="158" y="138" type="curve" smooth="yes"/>
      <point x="149" y="142"/>
      <point x="139" y="144"/>
      <point x="129" y="144" type="curve" smooth="yes"/>
      <point x="118" y="144"/>
      <point x="109" y="142"/>
      <point x="99" y="138" type="curve" smooth="yes"/>
      <point x="89" y="134"/>
      <point x="80" y="128"/>
      <point x="72" y="121" type="curve" smooth="yes"/>
      <point x="64" y="114"/>
      <point x="58" y="106"/>
      <point x="53" y="97" type="curve" smooth="yes"/>
      <point x="48" y="88"/>
      <point x="45" y="78"/>
    </contour>
  </outline>
</glyph>
<glyph name="at" format="1">
  <advance width="843"/>
  <unicode hex="0040"/>
  <note>
    at
  </note>
  <outline>
    <contour>
      <point x="564" y="92" type="curve" smooth="yes"/>
      <point x="594" y="92"/>
      <point x="623" y="99"/>
      <point x="650" y="112" type="curve" smooth="yes"/>
      <point x="677" y="125"/>
      <point x="701" y="143"/>
      <point x="723" y="166" type="curve" smooth="yes"/>
      <point x="745" y="189"/>
      <point x="763" y="216"/>
      <point x="777" y="247" type="curve" smooth="yes"/>
      <point x="791" y="278"/>
      <point x="801" y="312"/>
      <point x="805" y="348" type="curve" smooth="yes"/>
      <point x="812" y="401"/>
      <point x="808" y="449"/>
      <point x="793" y="491" type="curve" smooth="yes"/>
      <point x="778" y="533"/>
      <point x="756" y="569"/>
      <point x="726" y="599" type="curve" smooth="yes"/>
      <point x="696" y="629"/>
      <point x="660" y="651"/>
      <point x="618" y="667" type="curve" smooth="yes"/>
      <point x="576" y="683"/>
      <point x="532" y="691"/>
      <point x="485" y="691" type="curve" smooth="yes"/>
      <point x="448" y="691"/>
      <point x="411" y="686"/>
      <point x="376" y="676" type="curve" smooth="yes"/>
      <point x="341" y="666"/>
      <point x="308" y="653"/>
      <point x="276" y="635" type="curve" smooth="yes"/>
      <point x="244" y="617"/>
      <point x="215" y="597"/>
      <point x="188" y="572" type="curve" smooth="yes"/>
      <point x="161" y="547"/>
      <point x="137" y="520"/>
      <point x="116" y="490" type="curve" smooth="yes"/>
      <point x="95" y="460"/>
      <point x="79" y="430"/>
      <point x="66" y="396" type="curve" smooth="yes"/>
      <point x="53" y="362"/>
      <point x="43" y="328"/>
      <point x="39" y="292" type="curve" smooth="yes"/>
      <point x="31" y="228"/>
      <point x="35" y="171"/>
      <point x="50" y="120" type="curve" smooth="yes"/>
      <point x="65" y="69"/>
      <point x="89" y="26"/>
      <point x="122" y="-10" type="curve" smooth="yes"/>
      <point x="155" y="-46"/>
      <point x="196" y="-73"/>
      <point x="245" y="-92" type="curve" smooth="yes"/>
      <point x="294" y="-111"/>
      <point x="349" y="-120"/>
      <point x="409" y="-120" type="curve" smooth="yes"/>
      <point x="468" y="-120"/>
      <point x="522" y="-113"/>
      <point x="570" y="-99" type="curve" smooth="yes"/>
      <point x="618" y="-85"/>
      <point x="661" y="-67"/>
      <point x="698" y="-44" type="curve"/>
      <point x="687" y="1" type="line" smooth="yes"/>
      <point x="684" y="12"/>
      <point x="678" y="17"/>
      <point x="668" y="17" type="curve" smooth="yes"/>
      <point x="663" y="17"/>
      <point x="658" y="16"/>
      <point x="651" y="12" type="curve" smooth="yes"/>
      <point x="638" y="5"/>
      <point x="623" y="-2"/>
      <point x="607" y="-8" type="curve" smooth="yes"/>
      <point x="591" y="-14"/>
      <point x="573" y="-20"/>
      <point x="554" y="-25" type="curve" smooth="yes"/>
      <point x="535" y="-30"/>
      <point x="514" y="-33"/>
      <point x="491" y="-36" type="curve" smooth="yes"/>
      <point x="468" y="-39"/>
      <point x="445" y="-40"/>
      <point x="419" y="-40" type="curve" smooth="yes"/>
      <point x="372" y="-40"/>
      <point x="329" y="-34"/>
      <point x="291" y="-20" type="curve" smooth="yes"/>
      <point x="253" y="-6"/>
      <point x="220" y="15"/>
      <point x="194" y="43" type="curve" smooth="yes"/>
      <point x="168" y="71"/>
      <point x="149" y="105"/>
      <point x="137" y="147" type="curve" smooth="yes"/>
      <point x="125" y="189"/>
      <point x="122" y="237"/>
      <point x="129" y="292" type="curve" smooth="yes"/>
      <point x="135" y="337"/>
      <point x="148" y="379"/>
      <point x="168" y="418" type="curve" smooth="yes"/>
      <point x="188" y="457"/>
      <point x="214" y="490"/>
      <point x="245" y="519" type="curve" smooth="yes"/>
      <point x="276" y="548"/>
      <point x="311" y="571"/>
      <point x="351" y="587" type="curve" smooth="yes"/>
      <point x="391" y="603"/>
      <point x="431" y="612"/>
      <point x="475" y="612" type="curve" smooth="yes"/>
      <point x="515" y="612"/>
      <point x="552" y="606"/>
      <point x="584" y="595" type="curve" smooth="yes"/>
      <point x="616" y="584"/>
      <point x="643" y="567"/>
      <point x="664" y="545" type="curve" smooth="yes"/>
      <point x="685" y="523"/>
      <point x="702" y="495"/>
      <point x="711" y="462" type="curve" smooth="yes"/>
      <point x="720" y="429"/>
      <point x="722" y="391"/>
      <point x="717" y="348" type="curve" smooth="yes"/>
      <point x="714" y="322"/>
      <point x="708" y="298"/>
      <point x="700" y="276" type="curve" smooth="yes"/>
      <point x="692" y="254"/>
      <point x="682" y="234"/>
      <point x="671" y="218" type="curve" smooth="yes"/>
      <point x="660" y="202"/>
      <point x="647" y="190"/>
      <point x="633" y="181" type="curve" smooth="yes"/>
      <point x="619" y="172"/>
      <point x="606" y="168"/>
      <point x="592" y="168" type="curve" smooth="yes"/>
      <point x="585" y="168"/>
      <point x="579" y="168"/>
      <point x="573" y="170" type="curve" smooth="yes"/>
      <point x="567" y="172"/>
      <point x="562" y="174"/>
      <point x="558" y="178" type="curve" smooth="yes"/>
      <point x="554" y="182"/>
      <point x="552" y="187"/>
      <point x="550" y="194" type="curve" smooth="yes"/>
      <point x="548" y="201"/>
      <point x="549" y="210"/>
      <point x="550" y="220" type="curve"/>
      <point x="552" y="234"/>
      <point x="556" y="252"/>
      <point x="564" y="273" type="curve" smooth="yes"/>
      <point x="635" y="458" type="line"/>
      <point x="619" y="465"/>
      <point x="602" y="472"/>
      <point x="584" y="476" type="curve" smooth="yes"/>
      <point x="566" y="480"/>
      <point x="545" y="482"/>
      <point x="519" y="482" type="curve" smooth="yes"/>
      <point x="489" y="482"/>
      <point x="462" y="478"/>
      <point x="437" y="471" type="curve" smooth="yes"/>
      <point x="412" y="464"/>
      <point x="388" y="455"/>
      <point x="367" y="443" type="curve" smooth="yes"/>
      <point x="346" y="431"/>
      <point x="327" y="418"/>
      <point x="311" y="402" type="curve" smooth="yes"/>
      <point x="295" y="386"/>
      <point x="280" y="369"/>
      <point x="268" y="351" type="curve" smooth="yes"/>
      <point x="256" y="333"/>
      <point x="247" y="314"/>
      <point x="240" y="294" type="curve" smooth="yes"/>
      <point x="233" y="274"/>
      <point x="227" y="256"/>
      <point x="225" y="237" type="curve"/>
      <point x="222" y="216"/>
      <point x="223" y="197"/>
      <point x="226" y="179" type="curve" smooth="yes"/>
      <point x="229" y="161"/>
      <point x="235" y="147"/>
      <point x="244" y="134" type="curve" smooth="yes"/>
      <point x="253" y="121"/>
      <point x="264" y="111"/>
      <point x="279" y="104" type="curve" smooth="yes"/>
      <point x="294" y="97"/>
      <point x="312" y="93"/>
      <point x="333" y="93" type="curve" smooth="yes"/>
      <point x="358" y="93"/>
      <point x="383" y="98"/>
      <point x="406" y="108" type="curve" smooth="yes"/>
      <point x="429" y="118"/>
      <point x="451" y="136"/>
      <point x="474" y="160" type="curve"/>
      <point x="478" y="136"/>
      <point x="488" y="119"/>
      <point x="505" y="108" type="curve" smooth="yes"/>
      <point x="522" y="97"/>
      <point x="541" y="92"/>
    </contour>
    <contour>
      <point x="367" y="172" type="curve" smooth="yes"/>
      <point x="349" y="172"/>
      <point x="337" y="178"/>
      <point x="329" y="190" type="curve" smooth="yes"/>
      <point x="321" y="202"/>
      <point x="318" y="219"/>
      <point x="321" y="240" type="curve" smooth="yes"/>
      <point x="324" y="261"/>
      <point x="330" y="281"/>
      <point x="340" y="301" type="curve" smooth="yes"/>
      <point x="350" y="321"/>
      <point x="363" y="339"/>
      <point x="378" y="354" type="curve" smooth="yes"/>
      <point x="393" y="369"/>
      <point x="410" y="382"/>
      <point x="429" y="391" type="curve" smooth="yes"/>
      <point x="448" y="400"/>
      <point x="468" y="404"/>
      <point x="489" y="404" type="curve" smooth="yes"/>
      <point x="500" y="404"/>
      <point x="511" y="403"/>
      <point x="521" y="401" type="curve"/>
      <point x="468" y="260" type="line" smooth="yes"/>
      <point x="462" y="243"/>
      <point x="454" y="229"/>
      <point x="446" y="218" type="curve" smooth="yes"/>
      <point x="438" y="207"/>
      <point x="430" y="197"/>
      <point x="421" y="190" type="curve" smooth="yes"/>
      <point x="412" y="183"/>
      <point x="403" y="179"/>
      <point x="394" y="176" type="curve" smooth="yes"/>
      <point x="385" y="173"/>
      <point x="376" y="172"/>
    </contour>
  </outline>
</glyph>
<glyph name="A" format="1">
  <advance width="785"/>
  <unicode hex="0041"/>
  <note>
    A
  </note>
  <outline>
    <contour>
      <point x="767" y="77" type="curve" smooth="yes"/>
      <point x="762" y="79"/>
      <point x="745" y="87"/>
      <point x="715" y="100" type="curve"/>
      <point x="547" y="723" type="line"/>
      <point x="409" y="723" type="line"/>
      <point x="88" y="100" type="line"/>
      <point x="55" y="87"/>
      <point x="36" y="79"/>
      <point x="30" y="77" type="curve"/>
      <point x="16" y="71"/>
      <point x="8" y="63"/>
      <point x="7" y="51" type="curve" smooth="yes"/>
      <point x="1" y="0" type="line"/>
      <point x="36" y="0" type="line"/>
      <point x="115" y="0" type="line"/>
      <point x="131" y="0" type="line"/>
      <point x="141" y="0" type="line"/>
      <point x="245" y="0" type="line"/>
      <point x="252" y="51" type="line"/>
      <point x="253" y="63"/>
      <point x="248" y="71"/>
      <point x="235" y="77" type="curve" smooth="yes"/>
      <point x="233" y="78"/>
      <point x="226" y="80"/>
      <point x="216" y="85" type="curve"/>
      <point x="219" y="91" type="line"/>
      <point x="269" y="194" type="line"/>
      <point x="557" y="194" type="line"/>
      <point x="581" y="96" type="line"/>
      <point x="583" y="85" type="line"/>
      <point x="572" y="80"/>
      <point x="565" y="78"/>
      <point x="562" y="77" type="curve"/>
      <point x="548" y="71"/>
      <point x="540" y="63"/>
      <point x="539" y="51" type="curve" smooth="yes"/>
      <point x="533" y="0" type="line"/>
      <point x="638" y="0" type="line"/>
      <point x="647" y="0" type="line"/>
      <point x="664" y="0" type="line"/>
      <point x="742" y="0" type="line"/>
      <point x="777" y="0" type="line"/>
      <point x="784" y="51" type="line"/>
      <point x="785" y="63"/>
      <point x="780" y="72"/>
    </contour>
    <contour>
      <point x="315" y="289" type="line"/>
      <point x="425" y="513" type="line"/>
      <point x="431" y="524"/>
      <point x="437" y="536"/>
      <point x="443" y="551" type="curve" smooth="yes"/>
      <point x="449" y="566"/>
      <point x="455" y="581"/>
      <point x="462" y="598" type="curve"/>
      <point x="465" y="581"/>
      <point x="468" y="565"/>
      <point x="471" y="551" type="curve" smooth="yes"/>
      <point x="474" y="537"/>
      <point x="477" y="524"/>
      <point x="480" y="513" type="curve" smooth="yes"/>
      <point x="534" y="289" type="line"/>
    </contour>
    <contour>
      <point x="394" y="0" type="move" name="bottom"/>
    </contour>
    <contour>
      <point x="723" y="10" type="move" name="ogonek"/>
    </contour>
    <contour>
      <point x="394" y="723" type="move" name="top"/>
    </contour>
  </outline>
</glyph>
<glyph name="B" format="1">
  <advance width="751"/>
  <unicode hex="0042"/>
  <note>
    B
  </note>
  <outline>
    <contour>
      <point x="562" y="374" type="curve"/>
      <point x="585" y="382"/>
      <point x="605" y="391"/>
      <point x="623" y="402" type="curve" smooth="yes"/>
      <point x="641" y="413"/>
      <point x="655" y="424"/>
      <point x="667" y="438" type="curve"/>
      <point x="679" y="451"/>
      <point x="689" y="466"/>
      <point x="696" y="482" type="curve" smooth="yes"/>
      <point x="703" y="498"/>
      <point x="707" y="514"/>
      <point x="709" y="531" type="curve" smooth="yes"/>
      <point x="713" y="561"/>
      <point x="711" y="586"/>
      <point x="704" y="610" type="curve" smooth="yes"/>
      <point x="697" y="634"/>
      <point x="683" y="654"/>
      <point x="664" y="671" type="curve" smooth="yes"/>
      <point x="645" y="688"/>
      <point x="619" y="700"/>
      <point x="587" y="709" type="curve" smooth="yes"/>
      <point x="555" y="718"/>
      <point x="514" y="723"/>
      <point x="467" y="723" type="curve" smooth="yes"/>
      <point x="218" y="723" type="line"/>
      <point x="142" y="723" type="line"/>
      <point x="135" y="664" type="line" smooth="yes"/>
      <point x="133" y="647"/>
      <point x="140" y="637"/>
      <point x="156" y="633" type="curve"/>
      <point x="157" y="633"/>
      <point x="159" y="633"/>
      <point x="162" y="632" type="curve"/>
      <point x="165" y="632"/>
      <point x="169" y="630"/>
      <point x="176" y="629" type="curve" smooth="yes"/>
      <point x="183" y="628"/>
      <point x="193" y="626"/>
      <point x="205" y="624" type="curve"/>
      <point x="141" y="99" type="line"/>
      <point x="128" y="97"/>
      <point x="118" y="95"/>
      <point x="111" y="94" type="curve" smooth="yes"/>
      <point x="104" y="93"/>
      <point x="98" y="91"/>
      <point x="95" y="91" type="curve" smooth="yes"/>
      <point x="92" y="91"/>
      <point x="91" y="90"/>
      <point x="89" y="90" type="curve"/>
      <point x="72" y="86"/>
      <point x="62" y="76"/>
      <point x="60" y="59" type="curve" smooth="yes"/>
      <point x="53" y="0" type="line"/>
      <point x="129" y="0" type="line"/>
      <point x="402" y="0" type="line" smooth="yes"/>
      <point x="444" y="0"/>
      <point x="482" y="5"/>
      <point x="516" y="16" type="curve" smooth="yes"/>
      <point x="550" y="27"/>
      <point x="579" y="41"/>
      <point x="604" y="60" type="curve" smooth="yes"/>
      <point x="629" y="79"/>
      <point x="648" y="102"/>
      <point x="663" y="128" type="curve" smooth="yes"/>
      <point x="678" y="154"/>
      <point x="687" y="182"/>
      <point x="691" y="213" type="curve" smooth="yes"/>
      <point x="701" y="298"/>
      <point x="659" y="352"/>
    </contour>
    <contour>
      <point x="314" y="410" type="line"/>
      <point x="339" y="619" type="line"/>
      <point x="454" y="619" type="line" smooth="yes"/>
      <point x="499" y="619"/>
      <point x="532" y="611"/>
      <point x="551" y="595" type="curve" smooth="yes"/>
      <point x="570" y="579"/>
      <point x="578" y="552"/>
      <point x="573" y="514" type="curve" smooth="yes"/>
      <point x="569" y="478"/>
      <point x="554" y="452"/>
      <point x="528" y="435" type="curve" smooth="yes"/>
      <point x="502" y="418"/>
      <point x="467" y="410"/>
      <point x="421" y="410" type="curve" smooth="yes"/>
    </contour>
    <contour>
      <point x="546" y="173" type="curve" smooth="yes"/>
      <point x="540" y="160"/>
      <point x="531" y="148"/>
      <point x="520" y="138" type="curve" smooth="yes"/>
      <point x="509" y="128"/>
      <point x="494" y="120"/>
      <point x="476" y="114" type="curve" smooth="yes"/>
      <point x="458" y="108"/>
      <point x="438" y="105"/>
      <point x="413" y="105" type="curve" smooth="yes"/>
      <point x="276" y="105" type="line"/>
      <point x="302" y="317" type="line"/>
      <point x="438" y="317" type="line" smooth="yes"/>
      <point x="462" y="317"/>
      <point x="482" y="315"/>
      <point x="498" y="310" type="curve" smooth="yes"/>
      <point x="514" y="305"/>
      <point x="526" y="299"/>
      <point x="536" y="290" type="curve" smooth="yes"/>
      <point x="546" y="281"/>
      <point x="553" y="270"/>
      <point x="556" y="258" type="curve" smooth="yes"/>
      <point x="559" y="245"/>
      <point x="560" y="232"/>
      <point x="558" y="216" type="curve" smooth="yes"/>
      <point x="556" y="201"/>
      <point x="552" y="186"/>
    </contour>
    <contour>
      <point x="382" y="0" type="move" name="bottom"/>
    </contour>
    <contour>
      <point x="382" y="723" type="move" name="top"/>
    </contour>
  </outline>
</glyph>
<glyph name="D" format="1">
  <advance width="843"/>
  <unicode hex="0044"/>
  <note>
    D
  </note>
  <outline>
    <contour>
      <point x="796" y="508" type="curve" smooth="yes"/>
      <point x="784" y="552"/>
      <point x="763" y="590"/>
      <point x="735" y="622" type="curve" smooth="yes"/>
      <point x="707" y="654"/>
      <point x="672" y="678"/>
      <point x="629" y="696" type="curve" smooth="yes"/>
      <point x="586" y="714"/>
      <point x="538" y="723"/>
      <point x="483" y="723" type="curve" smooth="yes"/>
      <point x="218" y="723" type="line"/>
      <point x="142" y="723" type="line"/>
      <point x="135" y="664" type="line" smooth="yes"/>
      <point x="133" y="647"/>
      <point x="140" y="637"/>
      <point x="156" y="633" type="curve"/>
      <point x="157" y="633"/>
      <point x="159" y="632"/>
      <point x="162" y="632" type="curve" smooth="yes"/>
      <point x="165" y="632"/>
      <point x="169" y="630"/>
      <point x="176" y="629" type="curve" smooth="yes"/>
      <point x="183" y="628"/>
      <point x="193" y="626"/>
      <point x="205" y="624" type="curve"/>
      <point x="141" y="99" type="line"/>
      <point x="128" y="97"/>
      <point x="118" y="95"/>
      <point x="111" y="94" type="curve" smooth="yes"/>
      <point x="104" y="93"/>
      <point x="98" y="91"/>
      <point x="95" y="91" type="curve" smooth="yes"/>
      <point x="92" y="91"/>
      <point x="91" y="90"/>
      <point x="89" y="90" type="curve"/>
      <point x="72" y="86"/>
      <point x="62" y="76"/>
      <point x="60" y="59" type="curve" smooth="yes"/>
      <point x="53" y="0" type="line"/>
      <point x="129" y="0" type="line"/>
      <point x="394" y="0" type="line" smooth="yes"/>
      <point x="449" y="0"/>
      <point x="500" y="9"/>
      <point x="547" y="27" type="curve" smooth="yes"/>
      <point x="594" y="45"/>
      <point x="635" y="69"/>
      <point x="671" y="101" type="curve" smooth="yes"/>
      <point x="707" y="133"/>
      <point x="737" y="172"/>
      <point x="760" y="216" type="curve" smooth="yes"/>
      <point x="783" y="260"/>
      <point x="797" y="309"/>
      <point x="804" y="362" type="curve" smooth="yes"/>
      <point x="811" y="415"/>
      <point x="808" y="464"/>
    </contour>
    <contour>
      <point x="638" y="255" type="curve" smooth="yes"/>
      <point x="623" y="223"/>
      <point x="604" y="197"/>
      <point x="582" y="175" type="curve" smooth="yes"/>
      <point x="560" y="153"/>
      <point x="534" y="137"/>
      <point x="504" y="125" type="curve" smooth="yes"/>
      <point x="474" y="113"/>
      <point x="442" y="107"/>
      <point x="407" y="107" type="curve" smooth="yes"/>
      <point x="277" y="107" type="line"/>
      <point x="340" y="616" type="line"/>
      <point x="470" y="616" type="line" smooth="yes"/>
      <point x="505" y="616"/>
      <point x="536" y="610"/>
      <point x="563" y="598" type="curve" smooth="yes"/>
      <point x="590" y="586"/>
      <point x="611" y="570"/>
      <point x="628" y="548" type="curve" smooth="yes"/>
      <point x="645" y="526"/>
      <point x="657" y="499"/>
      <point x="664" y="468" type="curve" smooth="yes"/>
      <point x="671" y="436"/>
      <point x="672" y="402"/>
      <point x="667" y="362" type="curve" smooth="yes"/>
      <point x="662" y="322"/>
      <point x="653" y="287"/>
    </contour>
    <contour>
      <point x="431" y="0" type="move" name="bottom"/>
    </contour>
    <contour>
      <point x="431" y="362" type="move" name="center"/>
    </contour>
    <contour>
      <point x="431" y="723" type="move" name="top"/>
    </contour>
  </outline>
</glyph>
<glyph name="E" format="1">
  <advance width="707"/>
  <unicode hex="0045"/>
  <note>
    E
  </note>
  <outline>
    <contour>
      <point x="674" y="723" type="line"/>
      <point x="218" y="723" type="line"/>
      <point x="142" y="723" type="line"/>
      <point x="135" y="664" type="line" smooth="yes"/>
      <point x="133" y="647"/>
      <point x="140" y="637"/>
      <point x="156" y="633" type="curve"/>
      <point x="157" y="633"/>
      <point x="159" y="632"/>
      <point x="162" y="632" type="curve" smooth="yes"/>
      <point x="165" y="632"/>
      <point x="169" y="630"/>
      <point x="176" y="629" type="curve" smooth="yes"/>
      <point x="183" y="628"/>
      <point x="193" y="626"/>
      <point x="205" y="624" type="curve"/>
      <point x="141" y="99" type="line"/>
      <point x="128" y="97"/>
      <point x="118" y="95"/>
      <point x="111" y="94" type="curve" smooth="yes"/>
      <point x="104" y="93"/>
      <point x="98" y="91"/>
      <point x="95" y="91" type="curve" smooth="yes"/>
      <point x="92" y="91"/>
      <point x="91" y="90"/>
      <point x="89" y="90" type="curve"/>
      <point x="72" y="86"/>
      <point x="62" y="76"/>
      <point x="60" y="59" type="curve" smooth="yes"/>
      <point x="53" y="0" type="line"/>
      <point x="129" y="0" type="line"/>
      <point x="585" y="0" type="line"/>
      <point x="593" y="70" type="line"/>
      <point x="598" y="108" type="line"/>
      <point x="608" y="191" type="line"/>
      <point x="604" y="191" type="line"/>
      <point x="592" y="191" type="line"/>
      <point x="551" y="191" type="line" smooth="yes"/>
      <point x="538" y="191"/>
      <point x="529" y="184"/>
      <point x="525" y="172" type="curve"/>
      <point x="523" y="164"/>
      <point x="518" y="143"/>
      <point x="510" y="108" type="curve"/>
      <point x="277" y="108" type="line"/>
      <point x="303" y="312" type="line"/>
      <point x="547" y="312" type="line"/>
      <point x="560" y="416" type="line"/>
      <point x="315" y="416" type="line"/>
      <point x="340" y="616" type="line"/>
      <point x="572" y="616" type="line"/>
      <point x="571" y="581"/>
      <point x="572" y="560"/>
      <point x="572" y="552" type="curve"/>
      <point x="573" y="540"/>
      <point x="580" y="533"/>
      <point x="593" y="533" type="curve" smooth="yes"/>
      <point x="634" y="533" type="line"/>
      <point x="646" y="533" type="line"/>
      <point x="650" y="533" type="line"/>
      <point x="660" y="616" type="line"/>
      <point x="665" y="653" type="line"/>
    </contour>
    <contour>
      <point x="363" y="0" type="move" name="bottom"/>
    </contour>
    <contour>
      <point x="626" y="10" type="move" name="ogonek"/>
    </contour>
    <contour>
      <point x="363" y="723" type="move" name="top"/>
    </contour>
    <contour>
      <point x="54" y="723" type="move" name="topleft"/>
    </contour>
  </outline>
</glyph>
<glyph name="F" format="1">
  <advance width="730"/>
  <unicode hex="0046"/>
  <note>
    F
  </note>
  <outline>
    <contour>
      <point x="699" y="723" type="line"/>
      <point x="674" y="723" type="line"/>
      <point x="651" y="723" type="line"/>
      <point x="218" y="723" type="line"/>
      <point x="142" y="723" type="line"/>
      <point x="135" y="664" type="line" smooth="yes"/>
      <point x="133" y="647"/>
      <point x="140" y="637"/>
      <point x="156" y="633" type="curve"/>
      <point x="157" y="633"/>
      <point x="159" y="633"/>
      <point x="162" y="632" type="curve"/>
      <point x="165" y="632"/>
      <point x="169" y="630"/>
      <point x="176" y="629" type="curve" smooth="yes"/>
      <point x="183" y="628"/>
      <point x="193" y="626"/>
      <point x="205" y="624" type="curve"/>
      <point x="141" y="99" type="line"/>
      <point x="128" y="97"/>
      <point x="118" y="95"/>
      <point x="111" y="94" type="curve" smooth="yes"/>
      <point x="104" y="93"/>
      <point x="98" y="91"/>
      <point x="95" y="91" type="curve" smooth="yes"/>
      <point x="92" y="91"/>
      <point x="91" y="90"/>
      <point x="89" y="90" type="curve"/>
      <point x="72" y="86"/>
      <point x="62" y="76"/>
      <point x="60" y="59" type="curve" smooth="yes"/>
      <point x="53" y="0" type="line"/>
      <point x="129" y="0" type="line"/>
      <point x="264" y="0" type="line"/>
      <point x="340" y="0" type="line"/>
      <point x="347" y="59" type="line" smooth="yes"/>
      <point x="349" y="76"/>
      <point x="342" y="86"/>
      <point x="326" y="90" type="curve"/>
      <point x="325" y="90"/>
      <point x="323" y="91"/>
      <point x="320" y="91" type="curve" smooth="yes"/>
      <point x="317" y="91"/>
      <point x="312" y="93"/>
      <point x="305" y="94" type="curve" smooth="yes"/>
      <point x="298" y="95"/>
      <point x="288" y="97"/>
      <point x="276" y="99" type="curve"/>
      <point x="300" y="295" type="line"/>
      <point x="553" y="295" type="line"/>
      <point x="566" y="402" type="line"/>
      <point x="314" y="402" type="line"/>
      <point x="340" y="616" type="line"/>
      <point x="597" y="616" type="line"/>
      <point x="596" y="581"/>
      <point x="597" y="560"/>
      <point x="597" y="552" type="curve"/>
      <point x="598" y="540"/>
      <point x="605" y="533"/>
      <point x="618" y="533" type="curve" smooth="yes"/>
      <point x="659" y="533" type="line"/>
      <point x="671" y="533" type="line"/>
      <point x="675" y="533" type="line"/>
      <point x="687" y="630" type="line"/>
      <point x="690" y="653" type="line"/>
    </contour>
    <contour>
      <point x="376" y="0" type="move" name="bottom"/>
    </contour>
    <contour>
      <point x="376" y="723" type="move" name="top"/>
    </contour>
  </outline>
</glyph>
<glyph name="G" format="1">
  <advance width="776"/>
  <unicode hex="0047"/>
  <note>
    G
  </note>
  <outline>
    <contour>
      <point x="679" y="362" type="line"/>
      <point x="439" y="362" type="line"/>
      <point x="429" y="286" type="line" smooth="yes"/>
      <point x="428" y="279"/>
      <point x="430" y="274"/>
      <point x="434" y="269" type="curve" smooth="yes"/>
      <point x="438" y="264"/>
      <point x="445" y="261"/>
      <point x="454" y="261" type="curve" smooth="yes"/>
      <point x="545" y="261" type="line"/>
      <point x="528" y="130" type="line"/>
      <point x="506" y="120"/>
      <point x="484" y="112"/>
      <point x="461" y="107" type="curve" smooth="yes"/>
      <point x="438" y="102"/>
      <point x="411" y="99"/>
      <point x="381" y="99" type="curve" smooth="yes"/>
      <point x="347" y="99"/>
      <point x="316" y="105"/>
      <point x="288" y="117" type="curve" smooth="yes"/>
      <point x="260" y="129"/>
      <point x="238" y="146"/>
      <point x="220" y="168" type="curve" smooth="yes"/>
      <point x="202" y="190"/>
      <point x="189" y="217"/>
      <point x="181" y="250" type="curve" smooth="yes"/>
      <point x="173" y="282"/>
      <point x="172" y="320"/>
      <point x="177" y="362" type="curve" smooth="yes"/>
      <point x="182" y="401"/>
      <point x="191" y="436"/>
      <point x="206" y="467" type="curve" smooth="yes"/>
      <point x="221" y="498"/>
      <point x="240" y="525"/>
      <point x="263" y="547" type="curve" smooth="yes"/>
      <point x="286" y="569"/>
      <point x="313" y="587"/>
      <point x="343" y="599" type="curve" smooth="yes"/>
      <point x="373" y="611"/>
      <point x="406" y="616"/>
      <point x="442" y="616" type="curve" smooth="yes"/>
      <point x="506" y="616"/>
      <point x="562" y="608"/>
      <point x="610" y="591" type="curve"/>
      <point x="609" y="548"/>
      <point x="609" y="522"/>
      <point x="609" y="513" type="curve"/>
      <point x="610" y="501"/>
      <point x="617" y="495"/>
      <point x="630" y="495" type="curve" smooth="yes"/>
      <point x="671" y="495" type="line"/>
      <point x="683" y="495" type="line"/>
      <point x="688" y="495" type="line"/>
      <point x="710" y="679" type="line"/>
      <point x="621" y="713"/>
      <point x="539" y="731"/>
      <point x="461" y="731" type="curve" smooth="yes"/>
      <point x="460" y="731" type="line"/>
      <point x="454" y="731" type="line" smooth="yes"/>
      <point x="399" y="730"/>
      <point x="347" y="721"/>
      <point x="301" y="704" type="curve" smooth="yes"/>
      <point x="252" y="686"/>
      <point x="211" y="661"/>
      <point x="174" y="628" type="curve" smooth="yes"/>
      <point x="137" y="595"/>
      <point x="107" y="556"/>
      <point x="84" y="511" type="curve" smooth="yes"/>
      <point x="61" y="466"/>
      <point x="46" y="416"/>
      <point x="39" y="362" type="curve" smooth="yes"/>
      <point x="32" y="308"/>
      <point x="35" y="258"/>
      <point x="48" y="213" type="curve" smooth="yes"/>
      <point x="61" y="168"/>
      <point x="82" y="129"/>
      <point x="110" y="96" type="curve" smooth="yes"/>
      <point x="138" y="63"/>
      <point x="173" y="38"/>
      <point x="215" y="20" type="curve" smooth="yes"/>
      <point x="257" y="2"/>
      <point x="305" y="-8"/>
      <point x="358" y="-8" type="curve" smooth="yes"/>
      <point x="388" y="-8"/>
      <point x="415" y="-6"/>
      <point x="441" y="-3" type="curve" smooth="yes"/>
      <point x="467" y="0"/>
      <point x="492" y="5"/>
      <point x="515" y="11" type="curve" smooth="yes"/>
      <point x="538" y="17"/>
      <point x="561" y="25"/>
      <point x="582" y="35" type="curve" smooth="yes"/>
      <point x="603" y="45"/>
      <point x="623" y="57"/>
      <point x="643" y="70" type="curve"/>
    </contour>
    <contour>
      <point x="373" y="0" type="move" name="bottom"/>
    </contour>
    <contour>
      <point x="373" y="723" type="move" name="top"/>
    </contour>
  </outline>
</glyph>
<glyph name="H" format="1">
  <advance width="956"/>
  <unicode hex="0048"/>
  <note>
    H
  </note>
  <outline>
    <contour>
      <point x="867" y="633" type="curve"/>
      <point x="884" y="637"/>
      <point x="894" y="647"/>
      <point x="896" y="664" type="curve" smooth="yes"/>
      <point x="903" y="723" type="line"/>
      <point x="828" y="723" type="line"/>
      <point x="692" y="723" type="line"/>
      <point x="616" y="723" type="line"/>
      <point x="609" y="664" type="line" smooth="yes"/>
      <point x="607" y="647"/>
      <point x="614" y="637"/>
      <point x="630" y="633" type="curve"/>
      <point x="631" y="633"/>
      <point x="633" y="633"/>
      <point x="636" y="632" type="curve" smooth="yes"/>
      <point x="639" y="631"/>
      <point x="644" y="630"/>
      <point x="651" y="629" type="curve" smooth="yes"/>
      <point x="658" y="628"/>
      <point x="668" y="626"/>
      <point x="680" y="624" type="curve"/>
      <point x="654" y="412" type="line"/>
      <point x="315" y="412" type="line"/>
      <point x="341" y="624" type="line"/>
      <point x="354" y="626"/>
      <point x="364" y="628"/>
      <point x="371" y="629" type="curve" smooth="yes"/>
      <point x="378" y="630"/>
      <point x="383" y="631"/>
      <point x="386" y="632" type="curve" smooth="yes"/>
      <point x="389" y="633"/>
      <point x="392" y="633"/>
      <point x="393" y="633" type="curve"/>
      <point x="410" y="637"/>
      <point x="419" y="647"/>
      <point x="421" y="664" type="curve" smooth="yes"/>
      <point x="429" y="723" type="line"/>
      <point x="353" y="723" type="line"/>
      <point x="218" y="723" type="line"/>
      <point x="142" y="723" type="line"/>
      <point x="135" y="664" type="line" smooth="yes"/>
      <point x="133" y="647"/>
      <point x="140" y="637"/>
      <point x="156" y="633" type="curve"/>
      <point x="157" y="633"/>
      <point x="159" y="633"/>
      <point x="162" y="632" type="curve"/>
      <point x="165" y="632"/>
      <point x="169" y="630"/>
      <point x="176" y="629" type="curve" smooth="yes"/>
      <point x="183" y="628"/>
      <point x="193" y="626"/>
      <point x="205" y="624" type="curve"/>
      <point x="141" y="99" type="line"/>
      <point x="128" y="97"/>
      <point x="118" y="95"/>
      <point x="111" y="94" type="curve" smooth="yes"/>
      <point x="104" y="93"/>
      <point x="98" y="91"/>
      <point x="95" y="91" type="curve" smooth="yes"/>
      <point x="92" y="91"/>
      <point x="90" y="90"/>
      <point x="89" y="90" type="curve"/>
      <point x="72" y="86"/>
      <point x="62" y="76"/>
      <point x="60" y="59" type="curve" smooth="yes"/>
      <point x="53" y="0" type="line"/>
      <point x="129" y="0" type="line"/>
      <point x="264" y="0" type="line"/>
      <point x="340" y="0" type="line"/>
      <point x="347" y="59" type="line" smooth="yes"/>
      <point x="349" y="76"/>
      <point x="342" y="86"/>
      <point x="326" y="90" type="curve"/>
      <point x="325" y="90"/>
      <point x="323" y="90"/>
      <point x="320" y="91" type="curve"/>
      <point x="317" y="91"/>
      <point x="312" y="93"/>
      <point x="305" y="94" type="curve" smooth="yes"/>
      <point x="298" y="95"/>
      <point x="288" y="97"/>
      <point x="276" y="99" type="curve"/>
      <point x="303" y="316" type="line"/>
      <point x="642" y="316" type="line"/>
      <point x="615" y="99" type="line"/>
      <point x="602" y="97"/>
      <point x="592" y="95"/>
      <point x="585" y="94" type="curve" smooth="yes"/>
      <point x="578" y="93"/>
      <point x="573" y="92"/>
      <point x="570" y="91" type="curve" smooth="yes"/>
      <point x="567" y="90"/>
      <point x="565" y="90"/>
      <point x="564" y="90" type="curve"/>
      <point x="547" y="86"/>
      <point x="537" y="76"/>
      <point x="535" y="59" type="curve" smooth="yes"/>
      <point x="528" y="0" type="line"/>
      <point x="603" y="0" type="line"/>
      <point x="739" y="0" type="line"/>
      <point x="814" y="0" type="line"/>
      <point x="822" y="59" type="line" smooth="yes"/>
      <point x="824" y="76"/>
      <point x="817" y="86"/>
      <point x="801" y="90" type="curve"/>
      <point x="800" y="90"/>
      <point x="797" y="91"/>
      <point x="794" y="91" type="curve" smooth="yes"/>
      <point x="791" y="91"/>
      <point x="787" y="93"/>
      <point x="780" y="94" type="curve" smooth="yes"/>
      <point x="773" y="95"/>
      <point x="763" y="97"/>
      <point x="751" y="99" type="curve"/>
      <point x="815" y="624" type="line"/>
      <point x="828" y="626"/>
      <point x="839" y="628"/>
      <point x="846" y="629" type="curve" smooth="yes"/>
      <point x="853" y="630"/>
      <point x="858" y="632"/>
      <point x="861" y="632" type="curve" smooth="yes"/>
      <point x="864" y="632"/>
      <point x="865" y="633"/>
    </contour>
    <contour>
      <point x="478" y="0" type="move" name="bottom"/>
    </contour>
    <contour>
      <point x="478" y="362" type="move" name="center"/>
    </contour>
    <contour>
      <point x="478" y="723" type="move" name="top"/>
    </contour>
    <contour>
      <point x="54" y="723" type="move" name="topleft"/>
    </contour>
  </outline>
</glyph>
<glyph name="I" format="1">
  <advance width="481"/>
  <unicode hex="0049"/>
  <note>
    I
  </note>
  <outline>
    <contour>
      <point x="392" y="633" type="curve"/>
      <point x="409" y="637"/>
      <point x="419" y="647"/>
      <point x="421" y="664" type="curve" smooth="yes"/>
      <point x="428" y="723" type="line"/>
      <point x="353" y="723" type="line"/>
      <point x="218" y="723" type="line"/>
      <point x="142" y="723" type="line"/>
      <point x="135" y="664" type="line" smooth="yes"/>
      <point x="133" y="647"/>
      <point x="140" y="637"/>
      <point x="156" y="633" type="curve"/>
      <point x="157" y="633"/>
      <point x="159" y="633"/>
      <point x="162" y="632" type="curve"/>
      <point x="165" y="632"/>
      <point x="169" y="630"/>
      <point x="176" y="629" type="curve" smooth="yes"/>
      <point x="183" y="628"/>
      <point x="193" y="626"/>
      <point x="205" y="624" type="curve"/>
      <point x="141" y="99" type="line"/>
      <point x="128" y="97"/>
      <point x="118" y="95"/>
      <point x="111" y="94" type="curve" smooth="yes"/>
      <point x="104" y="93"/>
      <point x="98" y="91"/>
      <point x="95" y="91" type="curve" smooth="yes"/>
      <point x="92" y="91"/>
      <point x="90" y="90"/>
      <point x="89" y="90" type="curve"/>
      <point x="72" y="86"/>
      <point x="62" y="76"/>
      <point x="60" y="59" type="curve" smooth="yes"/>
      <point x="53" y="0" type="line"/>
      <point x="129" y="0" type="line"/>
      <point x="264" y="0" type="line"/>
      <point x="339" y="0" type="line"/>
      <point x="347" y="59" type="line" smooth="yes"/>
      <point x="349" y="76"/>
      <point x="342" y="86"/>
      <point x="326" y="90" type="curve"/>
      <point x="325" y="90"/>
      <point x="322" y="91"/>
      <point x="319" y="91" type="curve" smooth="yes"/>
      <point x="316" y="91"/>
      <point x="312" y="93"/>
      <point x="305" y="94" type="curve" smooth="yes"/>
      <point x="298" y="95"/>
      <point x="288" y="97"/>
      <point x="276" y="99" type="curve"/>
      <point x="340" y="624" type="line"/>
      <point x="353" y="626"/>
      <point x="364" y="628"/>
      <point x="371" y="629" type="curve" smooth="yes"/>
      <point x="378" y="630"/>
      <point x="383" y="632"/>
      <point x="386" y="632" type="curve" smooth="yes"/>
      <point x="389" y="632"/>
      <point x="390" y="633"/>
    </contour>
    <contour>
      <point x="241" y="0" type="move" name="bottom"/>
    </contour>
    <contour>
      <point x="406" y="10" type="move" name="ogonek"/>
    </contour>
    <contour>
      <point x="241" y="723" type="move" name="top"/>
    </contour>
    <contour>
      <point x="54" y="723" type="move" name="topleft"/>
    </contour>
  </outline>
</glyph>
<glyph name="J" format="1">
  <advance width="529"/>
  <unicode hex="004A"/>
  <note>
    J
  </note>
  <outline>
    <contour>
      <point x="510" y="723" type="line"/>
      <point x="434" y="723" type="line"/>
      <point x="300" y="723" type="line"/>
      <point x="214" y="723" type="line"/>
      <point x="207" y="664" type="line" smooth="yes"/>
      <point x="205" y="647"/>
      <point x="212" y="637"/>
      <point x="228" y="633" type="curve"/>
      <point x="229" y="633"/>
      <point x="233" y="632"/>
      <point x="237" y="632" type="curve" smooth="yes"/>
      <point x="241" y="632"/>
      <point x="247" y="630"/>
      <point x="256" y="629" type="curve" smooth="yes"/>
      <point x="265" y="628"/>
      <point x="275" y="626"/>
      <point x="287" y="624" type="curve"/>
      <point x="242" y="254" type="line" smooth="yes"/>
      <point x="239" y="227"/>
      <point x="233" y="203"/>
      <point x="226" y="184" type="curve" smooth="yes"/>
      <point x="219" y="165"/>
      <point x="209" y="150"/>
      <point x="198" y="138" type="curve" smooth="yes"/>
      <point x="187" y="126"/>
      <point x="173" y="116"/>
      <point x="158" y="111" type="curve"/>
      <point x="143" y="105"/>
      <point x="125" y="103"/>
      <point x="106" y="103" type="curve" smooth="yes"/>
      <point x="92" y="103"/>
      <point x="81" y="105"/>
      <point x="72" y="107" type="curve" smooth="yes"/>
      <point x="63" y="109"/>
      <point x="56" y="110"/>
      <point x="50" y="110" type="curve" smooth="yes"/>
      <point x="41" y="110"/>
      <point x="33" y="107"/>
      <point x="28" y="103" type="curve"/>
      <point x="23" y="98"/>
      <point x="20" y="93"/>
      <point x="18" y="86" type="curve"/>
      <point x="1" y="6" type="line"/>
      <point x="19" y="1"/>
      <point x="37" y="-3"/>
      <point x="54" y="-5" type="curve" smooth="yes"/>
      <point x="71" y="-7"/>
      <point x="89" y="-8"/>
      <point x="107" y="-8" type="curve" smooth="yes"/>
      <point x="146" y="-8"/>
      <point x="182" y="-1"/>
      <point x="213" y="11" type="curve" smooth="yes"/>
      <point x="244" y="23"/>
      <point x="270" y="41"/>
      <point x="293" y="64" type="curve" smooth="yes"/>
      <point x="316" y="87"/>
      <point x="334" y="114"/>
      <point x="348" y="147" type="curve" smooth="yes"/>
      <point x="362" y="180"/>
      <point x="372" y="216"/>
      <point x="377" y="257" type="curve" smooth="yes"/>
      <point x="422" y="624" type="line"/>
      <point x="435" y="626"/>
      <point x="445" y="628"/>
      <point x="452" y="629" type="curve" smooth="yes"/>
      <point x="459" y="630"/>
      <point x="464" y="632"/>
      <point x="467" y="632" type="curve" smooth="yes"/>
      <point x="470" y="632"/>
      <point x="473" y="633"/>
      <point x="474" y="633" type="curve"/>
      <point x="491" y="637"/>
      <point x="501" y="647"/>
      <point x="503" y="664" type="curve" smooth="yes"/>
    </contour>
    <contour>
      <point x="255" y="0" type="move" name="bottom"/>
    </contour>
    <contour>
      <point x="255" y="723" type="move" name="top"/>
    </contour>
  </outline>
</glyph>
<glyph name="K" format="1">
  <advance width="815"/>
  <unicode hex="004B"/>
  <note>
    K
  </note>
  <outline>
    <contour>
      <point x="737" y="90" type="curve"/>
      <point x="736" y="90"/>
      <point x="733" y="91"/>
      <point x="729" y="91" type="curve" smooth="yes"/>
      <point x="725" y="91"/>
      <point x="719" y="93"/>
      <point x="711" y="94" type="curve" smooth="yes"/>
      <point x="703" y="95"/>
      <point x="693" y="97"/>
      <point x="682" y="99" type="curve"/>
      <point x="533" y="338" type="line" smooth="yes"/>
      <point x="526" y="349"/>
      <point x="519" y="359"/>
      <point x="511" y="366" type="curve" smooth="yes"/>
      <point x="503" y="373"/>
      <point x="493" y="379"/>
      <point x="483" y="383" type="curve"/>
      <point x="491" y="387"/>
      <point x="500" y="393"/>
      <point x="508" y="399" type="curve" smooth="yes"/>
      <point x="516" y="405"/>
      <point x="524" y="413"/>
      <point x="533" y="422" type="curve"/>
      <point x="721" y="624" type="line"/>
      <point x="733" y="626"/>
      <point x="743" y="628"/>
      <point x="751" y="629" type="curve" smooth="yes"/>
      <point x="759" y="630"/>
      <point x="766" y="632"/>
      <point x="770" y="632" type="curve" smooth="yes"/>
      <point x="774" y="632"/>
      <point x="776" y="633"/>
      <point x="778" y="633" type="curve"/>
      <point x="795" y="637"/>
      <point x="805" y="647"/>
      <point x="807" y="664" type="curve" smooth="yes"/>
      <point x="814" y="723" type="line"/>
      <point x="738" y="723" type="line"/>
      <point x="713" y="723" type="line"/>
      <point x="547" y="723" type="line"/>
      <point x="540" y="664" type="line" smooth="yes"/>
      <point x="538" y="647"/>
      <point x="545" y="637"/>
      <point x="561" y="633" type="curve"/>
      <point x="562" y="633"/>
      <point x="564" y="632"/>
      <point x="567" y="632" type="curve" smooth="yes"/>
      <point x="570" y="632"/>
      <point x="572" y="631"/>
      <point x="574" y="631" type="curve"/>
      <point x="402" y="442" type="line" smooth="yes"/>
      <point x="395" y="434"/>
      <point x="387" y="429"/>
      <point x="378" y="425" type="curve" smooth="yes"/>
      <point x="369" y="421"/>
      <point x="359" y="420"/>
      <point x="346" y="420" type="curve" smooth="yes"/>
      <point x="315" y="420" type="line"/>
      <point x="340" y="624" type="line"/>
      <point x="353" y="626"/>
      <point x="363" y="629"/>
      <point x="370" y="630" type="curve" smooth="yes"/>
      <point x="377" y="631"/>
      <point x="382" y="631"/>
      <point x="385" y="632" type="curve"/>
      <point x="388" y="632"/>
      <point x="391" y="633"/>
      <point x="392" y="633" type="curve"/>
      <point x="409" y="637"/>
      <point x="418" y="648"/>
      <point x="420" y="665" type="curve" smooth="yes"/>
      <point x="428" y="723" type="line"/>
      <point x="352" y="723" type="line"/>
      <point x="218" y="723" type="line"/>
      <point x="142" y="723" type="line"/>
      <point x="135" y="665" type="line" smooth="yes"/>
      <point x="133" y="648"/>
      <point x="140" y="637"/>
      <point x="156" y="633" type="curve"/>
      <point x="157" y="633"/>
      <point x="159" y="632"/>
      <point x="162" y="632" type="curve" smooth="yes"/>
      <point x="165" y="632"/>
      <point x="170" y="631"/>
      <point x="177" y="630" type="curve" smooth="yes"/>
      <point x="184" y="629"/>
      <point x="193" y="626"/>
      <point x="205" y="624" type="curve"/>
      <point x="141" y="99" type="line"/>
      <point x="128" y="97"/>
      <point x="118" y="95"/>
      <point x="111" y="94" type="curve" smooth="yes"/>
      <point x="104" y="93"/>
      <point x="98" y="92"/>
      <point x="95" y="91" type="curve"/>
      <point x="92" y="91"/>
      <point x="90" y="90"/>
      <point x="89" y="90" type="curve"/>
      <point x="72" y="86"/>
      <point x="62" y="76"/>
      <point x="60" y="59" type="curve" smooth="yes"/>
      <point x="53" y="0" type="line"/>
      <point x="129" y="0" type="line"/>
      <point x="263" y="0" type="line"/>
      <point x="339" y="0" type="line"/>
      <point x="346" y="59" type="line" smooth="yes"/>
      <point x="348" y="76"/>
      <point x="341" y="86"/>
      <point x="325" y="90" type="curve"/>
      <point x="324" y="90"/>
      <point x="322" y="91"/>
      <point x="319" y="91" type="curve" smooth="yes"/>
      <point x="316" y="91"/>
      <point x="311" y="93"/>
      <point x="304" y="94" type="curve" smooth="yes"/>
      <point x="297" y="95"/>
      <point x="287" y="97"/>
      <point x="275" y="99" type="curve"/>
      <point x="302" y="318" type="line"/>
      <point x="345" y="318" type="line" smooth="yes"/>
      <point x="360" y="318"/>
      <point x="372" y="316"/>
      <point x="380" y="312" type="curve" smooth="yes"/>
      <point x="388" y="308"/>
      <point x="394" y="302"/>
      <point x="400" y="293" type="curve" smooth="yes"/>
      <point x="528" y="94" type="line"/>
      <point x="523" y="93"/>
      <point x="518" y="92"/>
      <point x="514" y="91" type="curve" smooth="yes"/>
      <point x="510" y="90"/>
      <point x="507" y="90"/>
      <point x="506" y="90" type="curve"/>
      <point x="489" y="86"/>
      <point x="479" y="76"/>
      <point x="477" y="59" type="curve" smooth="yes"/>
      <point x="470" y="0" type="line"/>
      <point x="624" y="0" type="line"/>
      <point x="636" y="0" type="line"/>
      <point x="675" y="0" type="line"/>
      <point x="743" y="0" type="line"/>
      <point x="750" y="0" type="line"/>
      <point x="758" y="59" type="line" smooth="yes"/>
      <point x="760" y="76"/>
      <point x="753" y="86"/>
    </contour>
    <contour>
      <point x="433" y="0" type="move" name="bottom"/>
    </contour>
    <contour>
      <point x="433" y="723" type="move" name="top"/>
    </contour>
  </outline>
</glyph>
<glyph name="L" format="1">
  <advance width="607"/>
  <unicode hex="004C"/>
  <note>
    L
  </note>
  <outline>
    <contour>
      <point x="598" y="173" type="line"/>
      <point x="545" y="173" type="line" smooth="yes"/>
      <point x="532" y="173"/>
      <point x="523" y="166"/>
      <point x="519" y="154" type="curve"/>
      <point x="518" y="150"/>
      <point x="515" y="136"/>
      <point x="510" y="111" type="curve"/>
      <point x="277" y="111" type="line"/>
      <point x="340" y="624" type="line"/>
      <point x="353" y="626"/>
      <point x="363" y="628"/>
      <point x="370" y="629" type="curve" smooth="yes"/>
      <point x="377" y="630"/>
      <point x="382" y="631"/>
      <point x="385" y="632" type="curve" smooth="yes"/>
      <point x="388" y="633"/>
      <point x="391" y="633"/>
      <point x="392" y="633" type="curve"/>
      <point x="409" y="637"/>
      <point x="418" y="647"/>
      <point x="420" y="664" type="curve" smooth="yes"/>
      <point x="428" y="723" type="line"/>
      <point x="352" y="723" type="line"/>
      <point x="218" y="723" type="line"/>
      <point x="142" y="723" type="line"/>
      <point x="135" y="664" type="line" smooth="yes"/>
      <point x="133" y="647"/>
      <point x="140" y="637"/>
      <point x="156" y="633" type="curve"/>
      <point x="157" y="633"/>
      <point x="159" y="633"/>
      <point x="162" y="632" type="curve"/>
      <point x="165" y="632"/>
      <point x="169" y="630"/>
      <point x="176" y="629" type="curve" smooth="yes"/>
      <point x="183" y="628"/>
      <point x="193" y="626"/>
      <point x="205" y="624" type="curve"/>
      <point x="141" y="99" type="line"/>
      <point x="128" y="97"/>
      <point x="118" y="95"/>
      <point x="111" y="94" type="curve" smooth="yes"/>
      <point x="104" y="93"/>
      <point x="98" y="91"/>
      <point x="95" y="91" type="curve"/>
      <point x="92" y="90"/>
      <point x="90" y="90"/>
      <point x="89" y="90" type="curve"/>
      <point x="72" y="86"/>
      <point x="62" y="76"/>
      <point x="60" y="59" type="curve" smooth="yes"/>
      <point x="53" y="0" type="line"/>
      <point x="129" y="0" type="line"/>
      <point x="550" y="0" type="line"/>
      <point x="553" y="0" type="line"/>
      <point x="577" y="0" type="line"/>
      <point x="583" y="53" type="line"/>
      <point x="586" y="72" type="line"/>
    </contour>
    <contour>
      <point x="326" y="0" type="move" name="bottom"/>
    </contour>
    <contour>
      <point x="326" y="362" type="move" name="center"/>
    </contour>
    <contour>
      <point x="326" y="723" type="move" name="top"/>
    </contour>
    <contour>
      <point x="598" y="723" type="move" name="topright"/>
    </contour>
  </outline>
</glyph>
<glyph name="M" format="1">
  <advance width="1130"/>
  <unicode hex="004D"/>
  <note>
    M
  </note>
  <outline>
    <contour>
      <point x="1041" y="633" type="curve"/>
      <point x="1058" y="637"/>
      <point x="1068" y="647"/>
      <point x="1070" y="664" type="curve" smooth="yes"/>
      <point x="1077" y="723" type="line"/>
      <point x="1002" y="723" type="line"/>
      <point x="900" y="723" type="line" smooth="yes"/>
      <point x="894" y="723"/>
      <point x="888" y="722"/>
      <point x="884" y="722" type="curve" smooth="yes"/>
      <point x="880" y="722"/>
      <point x="876" y="721"/>
      <point x="872" y="720" type="curve" smooth="yes"/>
      <point x="868" y="719"/>
      <point x="865" y="716"/>
      <point x="862" y="713" type="curve" smooth="yes"/>
      <point x="859" y="710"/>
      <point x="855" y="706"/>
      <point x="852" y="701" type="curve"/>
      <point x="589" y="301" type="line" smooth="yes"/>
      <point x="582" y="290"/>
      <point x="575" y="280"/>
      <point x="569" y="268" type="curve"/>
      <point x="562" y="256"/>
      <point x="556" y="244"/>
      <point x="550" y="232" type="curve"/>
      <point x="547" y="244"/>
      <point x="543" y="256"/>
      <point x="540" y="267" type="curve" smooth="yes"/>
      <point x="537" y="278"/>
      <point x="533" y="289"/>
      <point x="529" y="300" type="curve"/>
      <point x="362" y="701" type="line" smooth="yes"/>
      <point x="360" y="706"/>
      <point x="358" y="710"/>
      <point x="355" y="713" type="curve" smooth="yes"/>
      <point x="352" y="716"/>
      <point x="349" y="719"/>
      <point x="346" y="720" type="curve" smooth="yes"/>
      <point x="343" y="721"/>
      <point x="338" y="722"/>
      <point x="334" y="722" type="curve" smooth="yes"/>
      <point x="330" y="722"/>
      <point x="325" y="723"/>
      <point x="319" y="723" type="curve" smooth="yes"/>
      <point x="218" y="723" type="line"/>
      <point x="142" y="723" type="line"/>
      <point x="135" y="664" type="line" smooth="yes"/>
      <point x="133" y="647"/>
      <point x="140" y="637"/>
      <point x="156" y="633" type="curve"/>
      <point x="157" y="633"/>
      <point x="159" y="633"/>
      <point x="162" y="632" type="curve"/>
      <point x="165" y="632"/>
      <point x="169" y="630"/>
      <point x="176" y="629" type="curve" smooth="yes"/>
      <point x="183" y="628"/>
      <point x="193" y="626"/>
      <point x="205" y="624" type="curve"/>
      <point x="141" y="99" type="line"/>
      <point x="128" y="97"/>
      <point x="118" y="95"/>
      <point x="111" y="94" type="curve" smooth="yes"/>
      <point x="104" y="93"/>
      <point x="98" y="92"/>
      <point x="95" y="91" type="curve"/>
      <point x="92" y="91"/>
      <point x="90" y="90"/>
      <point x="89" y="90" type="curve"/>
      <point x="72" y="86"/>
      <point x="62" y="76"/>
      <point x="60" y="59" type="curve" smooth="yes"/>
      <point x="53" y="0" type="line"/>
      <point x="129" y="0" type="line"/>
      <point x="247" y="0" type="line"/>
      <point x="337" y="0" type="line"/>
      <point x="345" y="59" type="line" smooth="yes"/>
      <point x="347" y="76"/>
      <point x="339" y="86"/>
      <point x="323" y="90" type="curve"/>
      <point x="321" y="90"/>
      <point x="300" y="93"/>
      <point x="259" y="99" type="curve"/>
      <point x="305" y="467" type="line" smooth="yes"/>
      <point x="306" y="476"/>
      <point x="306" y="486"/>
      <point x="307" y="496" type="curve" smooth="yes"/>
      <point x="308" y="507"/>
      <point x="309" y="517"/>
      <point x="309" y="528" type="curve"/>
      <point x="480" y="117" type="line" smooth="yes"/>
      <point x="484" y="108"/>
      <point x="489" y="100"/>
      <point x="496" y="95" type="curve" smooth="yes"/>
      <point x="503" y="90"/>
      <point x="512" y="87"/>
      <point x="523" y="87" type="curve" smooth="yes"/>
      <point x="542" y="87" type="line" smooth="yes"/>
      <point x="553" y="87"/>
      <point x="562" y="90"/>
      <point x="571" y="95" type="curve" smooth="yes"/>
      <point x="580" y="100"/>
      <point x="587" y="108"/>
      <point x="593" y="117" type="curve" smooth="yes"/>
      <point x="862" y="527" type="line"/>
      <point x="860" y="516"/>
      <point x="858" y="505"/>
      <point x="856" y="495" type="curve" smooth="yes"/>
      <point x="854" y="485"/>
      <point x="853" y="476"/>
      <point x="852" y="467" type="curve" smooth="yes"/>
      <point x="806" y="99" type="line"/>
      <point x="764" y="93"/>
      <point x="742" y="90"/>
      <point x="740" y="90" type="curve"/>
      <point x="723" y="86"/>
      <point x="713" y="76"/>
      <point x="711" y="59" type="curve" smooth="yes"/>
      <point x="704" y="0" type="line"/>
      <point x="794" y="0" type="line"/>
      <point x="913" y="0" type="line"/>
      <point x="988" y="0" type="line"/>
      <point x="996" y="59" type="line" smooth="yes"/>
      <point x="998" y="76"/>
      <point x="991" y="86"/>
      <point x="975" y="90" type="curve"/>
      <point x="974" y="90"/>
      <point x="971" y="91"/>
      <point x="968" y="91" type="curve" smooth="yes"/>
      <point x="965" y="91"/>
      <point x="961" y="93"/>
      <point x="954" y="94" type="curve" smooth="yes"/>
      <point x="947" y="95"/>
      <point x="937" y="97"/>
      <point x="925" y="99" type="curve"/>
      <point x="989" y="624" type="line"/>
      <point x="1002" y="626"/>
      <point x="1013" y="628"/>
      <point x="1020" y="629" type="curve" smooth="yes"/>
      <point x="1027" y="630"/>
      <point x="1032" y="632"/>
      <point x="1035" y="632" type="curve" smooth="yes"/>
      <point x="1038" y="632"/>
      <point x="1040" y="633"/>
    </contour>
    <contour>
      <point x="565" y="0" type="move" name="bottom"/>
    </contour>
    <contour>
      <point x="565" y="723" type="move" name="top"/>
    </contour>
  </outline>
</glyph>
<glyph name="N" format="1">
  <advance width="931"/>
  <unicode hex="004E"/>
  <note>
    N
  </note>
  <outline>
    <contour>
      <point x="903" y="723" type="line"/>
      <point x="828" y="723" type="line"/>
      <point x="709" y="723" type="line"/>
      <point x="619" y="723" type="line"/>
      <point x="612" y="664" type="line" smooth="yes"/>
      <point x="610" y="647"/>
      <point x="617" y="637"/>
      <point x="633" y="633" type="curve"/>
      <point x="635" y="633"/>
      <point x="656" y="630"/>
      <point x="697" y="624" type="curve"/>
      <point x="655" y="284" type="line" smooth="yes"/>
      <point x="654" y="274"/>
      <point x="653" y="263"/>
      <point x="652" y="252" type="curve" smooth="yes"/>
      <point x="651" y="241"/>
      <point x="651" y="230"/>
      <point x="651" y="218" type="curve"/>
      <point x="330" y="701" type="line"/>
      <point x="327" y="706"/>
      <point x="325" y="710"/>
      <point x="322" y="713" type="curve" smooth="yes"/>
      <point x="319" y="716"/>
      <point x="316" y="718"/>
      <point x="313" y="719" type="curve"/>
      <point x="310" y="721"/>
      <point x="307" y="722"/>
      <point x="303" y="722" type="curve" smooth="yes"/>
      <point x="299" y="722"/>
      <point x="294" y="723"/>
      <point x="288" y="723" type="curve" smooth="yes"/>
      <point x="218" y="723" type="line"/>
      <point x="142" y="723" type="line"/>
      <point x="135" y="664" type="line" smooth="yes"/>
      <point x="133" y="647"/>
      <point x="140" y="637"/>
      <point x="156" y="633" type="curve"/>
      <point x="157" y="633"/>
      <point x="159" y="632"/>
      <point x="162" y="632" type="curve" smooth="yes"/>
      <point x="165" y="632"/>
      <point x="169" y="630"/>
      <point x="176" y="629" type="curve" smooth="yes"/>
      <point x="183" y="628"/>
      <point x="193" y="626"/>
      <point x="205" y="624" type="curve"/>
      <point x="141" y="99" type="line"/>
      <point x="128" y="97"/>
      <point x="118" y="95"/>
      <point x="111" y="94" type="curve" smooth="yes"/>
      <point x="104" y="93"/>
      <point x="98" y="92"/>
      <point x="95" y="91" type="curve" smooth="yes"/>
      <point x="92" y="90"/>
      <point x="90" y="90"/>
      <point x="89" y="90" type="curve"/>
      <point x="72" y="86"/>
      <point x="62" y="76"/>
      <point x="60" y="59" type="curve" smooth="yes"/>
      <point x="53" y="0" type="line"/>
      <point x="129" y="0" type="line"/>
      <point x="247" y="0" type="line"/>
      <point x="337" y="0" type="line"/>
      <point x="345" y="59" type="line" smooth="yes"/>
      <point x="347" y="76"/>
      <point x="339" y="86"/>
      <point x="323" y="90" type="curve"/>
      <point x="321" y="90"/>
      <point x="300" y="93"/>
      <point x="259" y="99" type="curve"/>
      <point x="302" y="444" type="line" smooth="yes"/>
      <point x="303" y="453"/>
      <point x="304" y="463"/>
      <point x="305" y="473" type="curve" smooth="yes"/>
      <point x="306" y="483"/>
      <point x="306" y="493"/>
      <point x="306" y="504" type="curve"/>
      <point x="625" y="23" type="line" smooth="yes"/>
      <point x="631" y="14"/>
      <point x="636" y="8"/>
      <point x="643" y="5" type="curve" smooth="yes"/>
      <point x="650" y="2"/>
      <point x="658" y="0"/>
      <point x="669" y="0" type="curve" smooth="yes"/>
      <point x="739" y="0" type="line"/>
      <point x="815" y="624" type="line"/>
      <point x="828" y="626"/>
      <point x="839" y="628"/>
      <point x="846" y="629" type="curve" smooth="yes"/>
      <point x="853" y="630"/>
      <point x="858" y="632"/>
      <point x="861" y="632" type="curve" smooth="yes"/>
      <point x="864" y="632"/>
      <point x="865" y="633"/>
      <point x="867" y="633" type="curve"/>
      <point x="884" y="637"/>
      <point x="894" y="647"/>
      <point x="896" y="664" type="curve" smooth="yes"/>
    </contour>
    <contour>
      <point x="478" y="0" type="move" name="bottom"/>
    </contour>
    <contour>
      <point x="478" y="723" type="move" name="top"/>
    </contour>
  </outline>
</glyph>
<glyph name="P" format="1">
  <advance width="714"/>
  <unicode hex="0050"/>
  <note>
    P
  </note>
  <outline>
    <contour>
      <point x="688" y="585" type="curve" smooth="yes"/>
      <point x="680" y="613"/>
      <point x="667" y="638"/>
      <point x="646" y="658" type="curve" smooth="yes"/>
      <point x="625" y="678"/>
      <point x="599" y="695"/>
      <point x="565" y="706" type="curve" smooth="yes"/>
      <point x="531" y="717"/>
      <point x="489" y="723"/>
      <point x="441" y="723" type="curve" smooth="yes"/>
      <point x="218" y="723" type="line"/>
      <point x="142" y="723" type="line"/>
      <point x="135" y="664" type="line" smooth="yes"/>
      <point x="133" y="647"/>
      <point x="140" y="637"/>
      <point x="156" y="633" type="curve"/>
      <point x="157" y="633"/>
      <point x="159" y="633"/>
      <point x="162" y="632" type="curve"/>
      <point x="165" y="632"/>
      <point x="169" y="630"/>
      <point x="176" y="629" type="curve" smooth="yes"/>
      <point x="183" y="628"/>
      <point x="193" y="626"/>
      <point x="205" y="624" type="curve"/>
      <point x="141" y="99" type="line"/>
      <point x="128" y="97"/>
      <point x="118" y="95"/>
      <point x="111" y="94" type="curve" smooth="yes"/>
      <point x="104" y="93"/>
      <point x="98" y="92"/>
      <point x="95" y="91" type="curve"/>
      <point x="92" y="91"/>
      <point x="90" y="90"/>
      <point x="89" y="90" type="curve"/>
      <point x="72" y="86"/>
      <point x="62" y="76"/>
      <point x="60" y="59" type="curve" smooth="yes"/>
      <point x="53" y="0" type="line"/>
      <point x="129" y="0" type="line"/>
      <point x="263" y="0" type="line"/>
      <point x="339" y="0" type="line"/>
      <point x="346" y="59" type="line" smooth="yes"/>
      <point x="348" y="76"/>
      <point x="341" y="86"/>
      <point x="325" y="90" type="curve"/>
      <point x="324" y="90"/>
      <point x="322" y="91"/>
      <point x="319" y="91" type="curve" smooth="yes"/>
      <point x="316" y="91"/>
      <point x="311" y="93"/>
      <point x="304" y="94" type="curve" smooth="yes"/>
      <point x="297" y="95"/>
      <point x="287" y="97"/>
      <point x="275" y="99" type="curve"/>
      <point x="294" y="255" type="line"/>
      <point x="384" y="255" type="line" smooth="yes"/>
      <point x="431" y="255"/>
      <point x="473" y="260"/>
      <point x="509" y="272" type="curve" smooth="yes"/>
      <point x="545" y="284"/>
      <point x="576" y="300"/>
      <point x="602" y="321" type="curve" smooth="yes"/>
      <point x="628" y="342"/>
      <point x="649" y="367"/>
      <point x="664" y="396" type="curve" smooth="yes"/>
      <point x="679" y="425"/>
      <point x="689" y="457"/>
      <point x="693" y="492" type="curve" smooth="yes"/>
      <point x="697" y="526"/>
      <point x="696" y="557"/>
    </contour>
    <contour>
      <point x="543" y="437" type="curve" smooth="yes"/>
      <point x="535" y="420"/>
      <point x="524" y="406"/>
      <point x="511" y="395" type="curve"/>
      <point x="498" y="383"/>
      <point x="481" y="375"/>
      <point x="462" y="369" type="curve" smooth="yes"/>
      <point x="443" y="363"/>
      <point x="422" y="360"/>
      <point x="397" y="360" type="curve" smooth="yes"/>
      <point x="307" y="360" type="line"/>
      <point x="339" y="619" type="line"/>
      <point x="428" y="619" type="line" smooth="yes"/>
      <point x="453" y="619"/>
      <point x="474" y="616"/>
      <point x="492" y="610" type="curve" smooth="yes"/>
      <point x="510" y="604"/>
      <point x="523" y="596"/>
      <point x="534" y="585" type="curve" smooth="yes"/>
      <point x="545" y="574"/>
      <point x="552" y="561"/>
      <point x="556" y="545" type="curve" smooth="yes"/>
      <point x="560" y="529"/>
      <point x="561" y="512"/>
      <point x="559" y="493" type="curve" smooth="yes"/>
      <point x="557" y="473"/>
      <point x="551" y="453"/>
    </contour>
    <contour>
      <point x="375" y="0" type="move" name="bottom"/>
    </contour>
    <contour>
      <point x="375" y="723" type="move" name="top"/>
    </contour>
  </outline>
</glyph>
<glyph name="Q" format="1">
  <advance width="779"/>
  <unicode hex="0051"/>
  <note>
    Q
  </note>
  <outline>
    <contour>
      <point x="771" y="362" type="curve" smooth="yes"/>
      <point x="778" y="415"/>
      <point x="775" y="464"/>
      <point x="763" y="509" type="curve" smooth="yes"/>
      <point x="751" y="554"/>
      <point x="731" y="593"/>
      <point x="703" y="626" type="curve" smooth="yes"/>
      <point x="675" y="659"/>
      <point x="640" y="684"/>
      <point x="597" y="703" type="curve" smooth="yes"/>
      <point x="554" y="722"/>
      <point x="506" y="731"/>
      <point x="451" y="731" type="curve" smooth="yes"/>
      <point x="396" y="731"/>
      <point x="345" y="721"/>
      <point x="298" y="703" type="curve" smooth="yes"/>
      <point x="251" y="685"/>
      <point x="208" y="659"/>
      <point x="172" y="626" type="curve" smooth="yes"/>
      <point x="136" y="593"/>
      <point x="106" y="554"/>
      <point x="83" y="509" type="curve" smooth="yes"/>
      <point x="60" y="464"/>
      <point x="45" y="415"/>
      <point x="38" y="362" type="curve" smooth="yes"/>
      <point x="31" y="309"/>
      <point x="35" y="259"/>
      <point x="47" y="214" type="curve" smooth="yes"/>
      <point x="59" y="169"/>
      <point x="79" y="130"/>
      <point x="107" y="97" type="curve" smooth="yes"/>
      <point x="135" y="64"/>
      <point x="171" y="38"/>
      <point x="214" y="20" type="curve" smooth="yes"/>
      <point x="257" y="2"/>
      <point x="305" y="-8"/>
      <point x="360" y="-8" type="curve" smooth="yes"/>
      <point x="379" y="-8"/>
      <point x="398" y="-6"/>
      <point x="416" y="-4" type="curve" smooth="yes"/>
      <point x="434" y="-2"/>
      <point x="452" y="1"/>
      <point x="470" y="6" type="curve"/>
      <point x="561" y="-111" type="line" smooth="yes"/>
      <point x="570" y="-123"/>
      <point x="582" y="-131"/>
      <point x="594" y="-135" type="curve" smooth="yes"/>
      <point x="606" y="-139"/>
      <point x="620" y="-142"/>
      <point x="636" y="-142" type="curve" smooth="yes"/>
      <point x="747" y="-142" type="line"/>
      <point x="588" y="58" type="line"/>
      <point x="613" y="74"/>
      <point x="636" y="93"/>
      <point x="657" y="115" type="curve" smooth="yes"/>
      <point x="678" y="137"/>
      <point x="695" y="160"/>
      <point x="711" y="186" type="curve" smooth="yes"/>
      <point x="727" y="212"/>
      <point x="740" y="239"/>
      <point x="750" y="269" type="curve" smooth="yes"/>
      <point x="760" y="299"/>
      <point x="767" y="330"/>
    </contour>
    <contour>
      <point x="633" y="362" type="curve" smooth="yes"/>
      <point x="628" y="322"/>
      <point x="619" y="287"/>
      <point x="605" y="255" type="curve" smooth="yes"/>
      <point x="591" y="223"/>
      <point x="571" y="197"/>
      <point x="549" y="175" type="curve" smooth="yes"/>
      <point x="527" y="153"/>
      <point x="502" y="136"/>
      <point x="472" y="124" type="curve" smooth="yes"/>
      <point x="442" y="112"/>
      <point x="409" y="107"/>
      <point x="374" y="107" type="curve" smooth="yes"/>
      <point x="339" y="107"/>
      <point x="308" y="112"/>
      <point x="281" y="124" type="curve" smooth="yes"/>
      <point x="254" y="136"/>
      <point x="232" y="153"/>
      <point x="215" y="175" type="curve" smooth="yes"/>
      <point x="198" y="197"/>
      <point x="186" y="223"/>
      <point x="179" y="255" type="curve" smooth="yes"/>
      <point x="172" y="287"/>
      <point x="171" y="322"/>
      <point x="176" y="362" type="curve" smooth="yes"/>
      <point x="181" y="402"/>
      <point x="190" y="436"/>
      <point x="205" y="468" type="curve" smooth="yes"/>
      <point x="220" y="500"/>
      <point x="238" y="527"/>
      <point x="261" y="549" type="curve" smooth="yes"/>
      <point x="284" y="571"/>
      <point x="309" y="587"/>
      <point x="339" y="599" type="curve" smooth="yes"/>
      <point x="369" y="611"/>
      <point x="402" y="617"/>
      <point x="437" y="617" type="curve" smooth="yes"/>
      <point x="472" y="617"/>
      <point x="503" y="611"/>
      <point x="530" y="599" type="curve" smooth="yes"/>
      <point x="557" y="587"/>
      <point x="578" y="571"/>
      <point x="595" y="549" type="curve" smooth="yes"/>
      <point x="612" y="527"/>
      <point x="624" y="500"/>
      <point x="631" y="468" type="curve" smooth="yes"/>
      <point x="638" y="436"/>
      <point x="638" y="402"/>
    </contour>
    <contour>
      <point x="405" y="0" type="move" name="bottom"/>
    </contour>
    <contour>
      <point x="405" y="723" type="move" name="top"/>
    </contour>
  </outline>
</glyph>
<glyph name="R" format="1">
  <advance width="708"/>
  <unicode hex="0052"/>
  <note>
    R
  </note>
  <outline>
    <contour>
      <point x="686" y="90" type="curve"/>
      <point x="685" y="90"/>
      <point x="683" y="91"/>
      <point x="679" y="91" type="curve" smooth="yes"/>
      <point x="675" y="91"/>
      <point x="669" y="93"/>
      <point x="661" y="94" type="curve" smooth="yes"/>
      <point x="653" y="95"/>
      <point x="643" y="97"/>
      <point x="631" y="99" type="curve"/>
      <point x="538" y="267" type="line" smooth="yes"/>
      <point x="528" y="285"/>
      <point x="515" y="299"/>
      <point x="499" y="309" type="curve"/>
      <point x="525" y="317"/>
      <point x="550" y="328"/>
      <point x="571" y="341" type="curve" smooth="yes"/>
      <point x="592" y="354"/>
      <point x="610" y="369"/>
      <point x="626" y="387" type="curve" smooth="yes"/>
      <point x="642" y="405"/>
      <point x="655" y="424"/>
      <point x="665" y="446" type="curve" smooth="yes"/>
      <point x="675" y="468"/>
      <point x="681" y="491"/>
      <point x="684" y="515" type="curve" smooth="yes"/>
      <point x="688" y="546"/>
      <point x="685" y="574"/>
      <point x="678" y="599" type="curve" smooth="yes"/>
      <point x="671" y="624"/>
      <point x="657" y="647"/>
      <point x="637" y="665" type="curve" smooth="yes"/>
      <point x="617" y="683"/>
      <point x="590" y="698"/>
      <point x="556" y="708" type="curve" smooth="yes"/>
      <point x="522" y="718"/>
      <point x="480" y="723"/>
      <point x="431" y="723" type="curve" smooth="yes"/>
      <point x="218" y="723" type="line"/>
      <point x="142" y="723" type="line"/>
      <point x="135" y="664" type="line" smooth="yes"/>
      <point x="133" y="647"/>
      <point x="140" y="637"/>
      <point x="156" y="633" type="curve"/>
      <point x="157" y="633"/>
      <point x="159" y="632"/>
      <point x="162" y="632" type="curve" smooth="yes"/>
      <point x="165" y="632"/>
      <point x="169" y="630"/>
      <point x="176" y="629" type="curve" smooth="yes"/>
      <point x="183" y="628"/>
      <point x="193" y="626"/>
      <point x="205" y="624" type="curve"/>
      <point x="141" y="99" type="line"/>
      <point x="128" y="97"/>
      <point x="118" y="95"/>
      <point x="111" y="94" type="curve" smooth="yes"/>
      <point x="104" y="93"/>
      <point x="98" y="92"/>
      <point x="95" y="91" type="curve" smooth="yes"/>
      <point x="92" y="90"/>
      <point x="90" y="90"/>
      <point x="89" y="90" type="curve"/>
      <point x="72" y="86"/>
      <point x="62" y="76"/>
      <point x="60" y="59" type="curve" smooth="yes"/>
      <point x="53" y="0" type="line"/>
      <point x="129" y="0" type="line"/>
      <point x="263" y="0" type="line"/>
      <point x="339" y="0" type="line"/>
      <point x="346" y="59" type="line" smooth="yes"/>
      <point x="348" y="76"/>
      <point x="341" y="86"/>
      <point x="325" y="90" type="curve"/>
      <point x="324" y="90"/>
      <point x="322" y="91"/>
      <point x="319" y="91" type="curve" smooth="yes"/>
      <point x="316" y="91"/>
      <point x="311" y="93"/>
      <point x="304" y="94" type="curve" smooth="yes"/>
      <point x="297" y="95"/>
      <point x="287" y="97"/>
      <point x="275" y="99" type="curve"/>
      <point x="298" y="283" type="line"/>
      <point x="348" y="283" type="line" smooth="yes"/>
      <point x="361" y="283"/>
      <point x="372" y="281"/>
      <point x="378" y="277" type="curve" smooth="yes"/>
      <point x="384" y="273"/>
      <point x="389" y="268"/>
      <point x="394" y="259" type="curve" smooth="yes"/>
      <point x="518" y="27" type="line" smooth="yes"/>
      <point x="523" y="18"/>
      <point x="528" y="12"/>
      <point x="536" y="7" type="curve" smooth="yes"/>
      <point x="544" y="2"/>
      <point x="553" y="0"/>
      <point x="565" y="0" type="curve" smooth="yes"/>
      <point x="624" y="0" type="line"/>
      <point x="686" y="0" type="line"/>
      <point x="700" y="0" type="line"/>
      <point x="707" y="59" type="line" smooth="yes"/>
      <point x="709" y="76"/>
      <point x="702" y="86"/>
    </contour>
    <contour>
      <point x="454" y="389" type="curve" smooth="yes"/>
      <point x="434" y="383"/>
      <point x="412" y="379"/>
      <point x="387" y="379" type="curve" smooth="yes"/>
      <point x="310" y="379" type="line"/>
      <point x="339" y="619" type="line"/>
      <point x="418" y="619" type="line" smooth="yes"/>
      <point x="468" y="619"/>
      <point x="503" y="610"/>
      <point x="525" y="590" type="curve" smooth="yes"/>
      <point x="547" y="570"/>
      <point x="555" y="542"/>
      <point x="551" y="505" type="curve" smooth="yes"/>
      <point x="549" y="487"/>
      <point x="544" y="470"/>
      <point x="536" y="455" type="curve" smooth="yes"/>
      <point x="528" y="440"/>
      <point x="518" y="426"/>
      <point x="504" y="415" type="curve" smooth="yes"/>
      <point x="490" y="404"/>
      <point x="474" y="395"/>
    </contour>
    <contour>
      <point x="381" y="0" type="move" name="bottom"/>
    </contour>
    <contour>
      <point x="381" y="723" type="move" name="top"/>
    </contour>
  </outline>
</glyph>
<glyph name="T" format="1">
  <advance width="646"/>
  <unicode hex="0054"/>
  <note>
    T
  </note>
  <outline>
    <contour>
      <point x="634" y="723" type="line"/>
      <point x="618" y="723" type="line"/>
      <point x="618" y="723" type="line"/>
      <point x="49" y="723" type="line"/>
      <point x="48" y="723" type="line"/>
      <point x="33" y="723" type="line"/>
      <point x="12" y="552" type="line"/>
      <point x="16" y="552" type="line"/>
      <point x="28" y="552" type="line"/>
      <point x="70" y="552" type="line" smooth="yes"/>
      <point x="83" y="552"/>
      <point x="91" y="559"/>
      <point x="95" y="571" type="curve" smooth="yes"/>
      <point x="97" y="577"/>
      <point x="100" y="591"/>
      <point x="105" y="613" type="curve"/>
      <point x="253" y="613" type="line"/>
      <point x="190" y="99" type="line"/>
      <point x="177" y="97"/>
      <point x="167" y="95"/>
      <point x="160" y="94" type="curve" smooth="yes"/>
      <point x="153" y="93"/>
      <point x="147" y="91"/>
      <point x="144" y="91" type="curve" smooth="yes"/>
      <point x="141" y="91"/>
      <point x="139" y="90"/>
      <point x="138" y="90" type="curve"/>
      <point x="121" y="86"/>
      <point x="111" y="76"/>
      <point x="109" y="59" type="curve" smooth="yes"/>
      <point x="102" y="0" type="line"/>
      <point x="178" y="0" type="line"/>
      <point x="312" y="0" type="line"/>
      <point x="388" y="0" type="line"/>
      <point x="395" y="59" type="line" smooth="yes"/>
      <point x="397" y="76"/>
      <point x="390" y="86"/>
      <point x="374" y="90" type="curve"/>
      <point x="373" y="90"/>
      <point x="371" y="91"/>
      <point x="368" y="91" type="curve" smooth="yes"/>
      <point x="365" y="91"/>
      <point x="360" y="93"/>
      <point x="353" y="94" type="curve" smooth="yes"/>
      <point x="346" y="95"/>
      <point x="336" y="97"/>
      <point x="324" y="99" type="curve"/>
      <point x="387" y="613" type="line"/>
      <point x="535" y="613" type="line"/>
      <point x="535" y="571" type="line"/>
      <point x="536" y="559"/>
      <point x="543" y="552"/>
      <point x="556" y="552" type="curve" smooth="yes"/>
      <point x="597" y="552" type="line"/>
      <point x="609" y="552" type="line"/>
      <point x="613" y="552" type="line"/>
    </contour>
    <contour>
      <point x="324" y="0" type="move" name="bottom"/>
    </contour>
    <contour>
      <point x="324" y="362" type="move" name="center"/>
    </contour>
    <contour>
      <point x="324" y="723" type="move" name="top"/>
    </contour>
  </outline>
</glyph>
<glyph name="U" format="1">
  <advance width="797"/>
  <unicode hex="0055"/>
  <note>
    U
  </note>
  <outline>
    <contour>
      <point x="778" y="723" type="line"/>
      <point x="702" y="723" type="line"/>
      <point x="567" y="723" type="line"/>
      <point x="487" y="723" type="line"/>
      <point x="480" y="664" type="line" smooth="yes"/>
      <point x="478" y="647"/>
      <point x="485" y="637"/>
      <point x="501" y="633" type="curve"/>
      <point x="502" y="633"/>
      <point x="505" y="632"/>
      <point x="508" y="632" type="curve" smooth="yes"/>
      <point x="511" y="632"/>
      <point x="517" y="630"/>
      <point x="525" y="629" type="curve" smooth="yes"/>
      <point x="533" y="628"/>
      <point x="543" y="626"/>
      <point x="555" y="624" type="curve"/>
      <point x="514" y="290" type="line" smooth="yes"/>
      <point x="511" y="262"/>
      <point x="504" y="237"/>
      <point x="494" y="215" type="curve" smooth="yes"/>
      <point x="484" y="193"/>
      <point x="470" y="174"/>
      <point x="454" y="158" type="curve" smooth="yes"/>
      <point x="438" y="142"/>
      <point x="420" y="131"/>
      <point x="398" y="122" type="curve" smooth="yes"/>
      <point x="376" y="113"/>
      <point x="352" y="109"/>
      <point x="326" y="109" type="curve" smooth="yes"/>
      <point x="300" y="109"/>
      <point x="277" y="113"/>
      <point x="258" y="122" type="curve" smooth="yes"/>
      <point x="239" y="131"/>
      <point x="223" y="142"/>
      <point x="211" y="158" type="curve" smooth="yes"/>
      <point x="199" y="174"/>
      <point x="191" y="194"/>
      <point x="186" y="216" type="curve" smooth="yes"/>
      <point x="181" y="238"/>
      <point x="181" y="263"/>
      <point x="184" y="291" type="curve" smooth="yes"/>
      <point x="225" y="624" type="line"/>
      <point x="238" y="626"/>
      <point x="248" y="628"/>
      <point x="256" y="629" type="curve" smooth="yes"/>
      <point x="264" y="630"/>
      <point x="270" y="632"/>
      <point x="273" y="632" type="curve" smooth="yes"/>
      <point x="276" y="632"/>
      <point x="279" y="633"/>
      <point x="281" y="633" type="curve"/>
      <point x="298" y="637"/>
      <point x="308" y="647"/>
      <point x="310" y="664" type="curve" smooth="yes"/>
      <point x="317" y="723" type="line"/>
      <point x="237" y="723" type="line"/>
      <point x="102" y="723" type="line"/>
      <point x="27" y="723" type="line"/>
      <point x="19" y="664" type="line" smooth="yes"/>
      <point x="17" y="647"/>
      <point x="25" y="637"/>
      <point x="41" y="633" type="curve"/>
      <point x="42" y="633"/>
      <point x="44" y="632"/>
      <point x="47" y="632" type="curve" smooth="yes"/>
      <point x="50" y="632"/>
      <point x="54" y="630"/>
      <point x="61" y="629" type="curve" smooth="yes"/>
      <point x="68" y="628"/>
      <point x="78" y="626"/>
      <point x="90" y="624" type="curve"/>
      <point x="49" y="290" type="line" smooth="yes"/>
      <point x="44" y="247"/>
      <point x="46" y="207"/>
      <point x="55" y="171" type="curve" smooth="yes"/>
      <point x="64" y="135"/>
      <point x="80" y="103"/>
      <point x="103" y="76" type="curve" smooth="yes"/>
      <point x="126" y="50"/>
      <point x="155" y="29"/>
      <point x="190" y="14" type="curve" smooth="yes"/>
      <point x="225" y="-1"/>
      <point x="266" y="-8"/>
      <point x="312" y="-8" type="curve" smooth="yes"/>
      <point x="358" y="-8"/>
      <point x="401" y="-1"/>
      <point x="440" y="14" type="curve" smooth="yes"/>
      <point x="479" y="29"/>
      <point x="513" y="50"/>
      <point x="542" y="76" type="curve" smooth="yes"/>
      <point x="571" y="103"/>
      <point x="595" y="135"/>
      <point x="613" y="171" type="curve" smooth="yes"/>
      <point x="631" y="207"/>
      <point x="644" y="247"/>
      <point x="649" y="290" type="curve" smooth="yes"/>
      <point x="690" y="624" type="line"/>
      <point x="703" y="626"/>
      <point x="713" y="628"/>
      <point x="720" y="629" type="curve" smooth="yes"/>
      <point x="727" y="630"/>
      <point x="732" y="632"/>
      <point x="735" y="632" type="curve" smooth="yes"/>
      <point x="738" y="632"/>
      <point x="739" y="633"/>
      <point x="741" y="633" type="curve"/>
      <point x="758" y="637"/>
      <point x="768" y="647"/>
      <point x="770" y="664" type="curve" smooth="yes"/>
    </contour>
    <contour>
      <point x="398" y="0" type="move" name="bottom"/>
    </contour>
    <contour>
      <point x="716" y="10" type="move" name="ogonek"/>
    </contour>
    <contour>
      <point x="398" y="723" type="move" name="top"/>
    </contour>
    <contour>
      <point x="776" y="723" type="move" name="topright"/>
    </contour>
  </outline>
</glyph>
<glyph name="V" format="1">
  <advance width="776"/>
  <unicode hex="0056"/>
  <note>
    V
  </note>
  <outline>
    <contour>
      <point x="832" y="723" type="line"/>
      <point x="798" y="723" type="line"/>
      <point x="757" y="723" type="line"/>
      <point x="690" y="723" type="line"/>
      <point x="562" y="723" type="line"/>
      <point x="555" y="664" type="line" smooth="yes"/>
      <point x="553" y="647"/>
      <point x="560" y="637"/>
      <point x="576" y="633" type="curve"/>
      <point x="577" y="633"/>
      <point x="579" y="633"/>
      <point x="581" y="632" type="curve" smooth="yes"/>
      <point x="583" y="631"/>
      <point x="586" y="630"/>
      <point x="591" y="629" type="curve" smooth="yes"/>
      <point x="596" y="628"/>
      <point x="601" y="626"/>
      <point x="607" y="625" type="curve"/>
      <point x="418" y="252" type="line" smooth="yes"/>
      <point x="403" y="223"/>
      <point x="389" y="188"/>
      <point x="377" y="150" type="curve"/>
      <point x="375" y="169"/>
      <point x="372" y="187"/>
      <point x="369" y="204" type="curve" smooth="yes"/>
      <point x="366" y="221"/>
      <point x="362" y="238"/>
      <point x="358" y="252" type="curve" smooth="yes"/>
      <point x="260" y="625" type="line"/>
      <point x="266" y="626"/>
      <point x="271" y="628"/>
      <point x="276" y="629" type="curve" smooth="yes"/>
      <point x="281" y="630"/>
      <point x="285" y="631"/>
      <point x="287" y="632" type="curve" smooth="yes"/>
      <point x="289" y="633"/>
      <point x="291" y="633"/>
      <point x="292" y="633" type="curve"/>
      <point x="309" y="637"/>
      <point x="319" y="647"/>
      <point x="321" y="664" type="curve" smooth="yes"/>
      <point x="328" y="723" type="line"/>
      <point x="201" y="723" type="line"/>
      <point x="134" y="723" type="line"/>
      <point x="93" y="723" type="line"/>
      <point x="58" y="723" type="line"/>
      <point x="51" y="664" type="line" smooth="yes"/>
      <point x="49" y="647"/>
      <point x="56" y="637"/>
      <point x="72" y="633" type="curve"/>
      <point x="73" y="633"/>
      <point x="75" y="633"/>
      <point x="78" y="632" type="curve"/>
      <point x="81" y="632"/>
      <point x="85" y="630"/>
      <point x="92" y="629" type="curve" smooth="yes"/>
      <point x="99" y="628"/>
      <point x="108" y="626"/>
      <point x="120" y="624" type="curve"/>
      <point x="296" y="0" type="line"/>
      <point x="417" y="0" type="line"/>
      <point x="746" y="624" type="line"/>
      <point x="758" y="626"/>
      <point x="768" y="628"/>
      <point x="775" y="629" type="curve" smooth="yes"/>
      <point x="782" y="630"/>
      <point x="787" y="632"/>
      <point x="790" y="632" type="curve" smooth="yes"/>
      <point x="793" y="632"/>
      <point x="794" y="633"/>
      <point x="796" y="633" type="curve"/>
      <point x="813" y="637"/>
      <point x="823" y="647"/>
      <point x="825" y="664" type="curve" smooth="yes"/>
    </contour>
    <contour>
      <point x="441" y="0" type="move" name="bottom"/>
    </contour>
    <contour>
      <point x="441" y="723" type="move" name="top"/>
    </contour>
  </outline>
</glyph>
<glyph name="W" format="1">
  <advance width="1106"/>
  <unicode hex="0057"/>
  <note>
    W
  </note>
  <outline>
    <contour>
      <point x="1162" y="723" type="line"/>
      <point x="1128" y="723" type="line"/>
      <point x="1086" y="723" type="line"/>
      <point x="1022" y="723" type="line"/>
      <point x="892" y="723" type="line"/>
      <point x="884" y="664" type="line" smooth="yes"/>
      <point x="882" y="647"/>
      <point x="890" y="637"/>
      <point x="906" y="633" type="curve" smooth="yes"/>
      <point x="923" y="629"/>
      <point x="936" y="626"/>
      <point x="946" y="624" type="curve"/>
      <point x="798" y="260" type="line" smooth="yes"/>
      <point x="794" y="250"/>
      <point x="790" y="238"/>
      <point x="786" y="226" type="curve" smooth="yes"/>
      <point x="782" y="214"/>
      <point x="778" y="202"/>
      <point x="774" y="189" type="curve"/>
      <point x="772" y="215"/>
      <point x="769" y="239"/>
      <point x="764" y="260" type="curve" smooth="yes"/>
      <point x="676" y="692" type="line" smooth="yes"/>
      <point x="674" y="701"/>
      <point x="670" y="709"/>
      <point x="663" y="715" type="curve"/>
      <point x="656" y="720"/>
      <point x="647" y="723"/>
      <point x="635" y="723" type="curve" smooth="yes"/>
      <point x="595" y="723" type="line" smooth="yes"/>
      <point x="584" y="723"/>
      <point x="574" y="719"/>
      <point x="565" y="713" type="curve" smooth="yes"/>
      <point x="556" y="707"/>
      <point x="551" y="700"/>
      <point x="547" y="692" type="curve"/>
      <point x="352" y="260" type="line" smooth="yes"/>
      <point x="347" y="249"/>
      <point x="342" y="238"/>
      <point x="337" y="225" type="curve" smooth="yes"/>
      <point x="332" y="213"/>
      <point x="328" y="199"/>
      <point x="324" y="185" type="curve"/>
      <point x="323" y="199"/>
      <point x="322" y="213"/>
      <point x="321" y="225" type="curve" smooth="yes"/>
      <point x="320" y="237"/>
      <point x="319" y="249"/>
      <point x="317" y="260" type="curve" smooth="yes"/>
      <point x="258" y="625" type="line"/>
      <point x="265" y="627"/>
      <point x="271" y="628"/>
      <point x="276" y="629" type="curve" smooth="yes"/>
      <point x="281" y="630"/>
      <point x="285" y="631"/>
      <point x="287" y="632" type="curve" smooth="yes"/>
      <point x="289" y="633"/>
      <point x="292" y="633"/>
      <point x="293" y="633" type="curve"/>
      <point x="310" y="637"/>
      <point x="319" y="647"/>
      <point x="321" y="664" type="curve" smooth="yes"/>
      <point x="329" y="723" type="line"/>
      <point x="206" y="723" type="line"/>
      <point x="134" y="723" type="line"/>
      <point x="93" y="723" type="line"/>
      <point x="59" y="723" type="line"/>
      <point x="51" y="664" type="line" smooth="yes"/>
      <point x="49" y="647"/>
      <point x="57" y="637"/>
      <point x="73" y="633" type="curve"/>
      <point x="74" y="633"/>
      <point x="76" y="632"/>
      <point x="83" y="631" type="curve" smooth="yes"/>
      <point x="90" y="630"/>
      <point x="99" y="628"/>
      <point x="111" y="626" type="curve"/>
      <point x="229" y="0" type="line"/>
      <point x="350" y="0" type="line"/>
      <point x="570" y="494" type="line"/>
      <point x="573" y="500"/>
      <point x="576" y="506"/>
      <point x="579" y="514" type="curve"/>
      <point x="582" y="521"/>
      <point x="585" y="530"/>
      <point x="588" y="538" type="curve"/>
      <point x="589" y="530"/>
      <point x="591" y="521"/>
      <point x="592" y="514" type="curve" smooth="yes"/>
      <point x="593" y="507"/>
      <point x="594" y="500"/>
      <point x="595" y="494" type="curve" smooth="yes"/>
      <point x="693" y="0" type="line"/>
      <point x="814" y="0" type="line"/>
      <point x="1085" y="626" type="line"/>
      <point x="1098" y="628"/>
      <point x="1107" y="630"/>
      <point x="1114" y="631" type="curve" smooth="yes"/>
      <point x="1121" y="632"/>
      <point x="1125" y="633"/>
      <point x="1126" y="633" type="curve"/>
      <point x="1143" y="637"/>
      <point x="1153" y="647"/>
      <point x="1155" y="664" type="curve" smooth="yes"/>
    </contour>
    <contour>
      <point x="606" y="0" type="move" name="bottom"/>
    </contour>
    <contour>
      <point x="606" y="723" type="move" name="top"/>
    </contour>
  </outline>
</glyph>
<glyph name="X" format="1">
  <advance width="822"/>
  <unicode hex="0058"/>
  <note>
    X
  </note>
  <outline>
    <contour>
      <point x="728" y="90" type="curve"/>
      <point x="723" y="91"/>
      <point x="697" y="94"/>
      <point x="653" y="99" type="curve"/>
      <point x="511" y="378" type="line"/>
      <point x="707" y="624" type="line"/>
      <point x="753" y="629"/>
      <point x="779" y="632"/>
      <point x="785" y="633" type="curve"/>
      <point x="802" y="637"/>
      <point x="812" y="647"/>
      <point x="814" y="664" type="curve" smooth="yes"/>
      <point x="821" y="723" type="line"/>
      <point x="786" y="723" type="line"/>
      <point x="751" y="723" type="line"/>
      <point x="741" y="723" type="line"/>
      <point x="657" y="723" type="line"/>
      <point x="516" y="723" type="line"/>
      <point x="508" y="664" type="line" smooth="yes"/>
      <point x="506" y="647"/>
      <point x="514" y="637"/>
      <point x="530" y="633" type="curve" smooth="yes"/>
      <point x="546" y="629"/>
      <point x="558" y="627"/>
      <point x="566" y="625" type="curve"/>
      <point x="447" y="467" type="line" smooth="yes"/>
      <point x="444" y="463"/>
      <point x="441" y="458"/>
      <point x="438" y="454" type="curve" smooth="yes"/>
      <point x="435" y="450"/>
      <point x="433" y="445"/>
      <point x="431" y="441" type="curve"/>
      <point x="340" y="626" type="line"/>
      <point x="346" y="627"/>
      <point x="357" y="630"/>
      <point x="374" y="633" type="curve"/>
      <point x="391" y="637"/>
      <point x="401" y="647"/>
      <point x="403" y="664" type="curve" smooth="yes"/>
      <point x="410" y="723" type="line"/>
      <point x="270" y="723" type="line"/>
      <point x="179" y="723" type="line"/>
      <point x="174" y="723" type="line"/>
      <point x="136" y="723" type="line"/>
      <point x="99" y="723" type="line"/>
      <point x="92" y="664" type="line" smooth="yes"/>
      <point x="90" y="647"/>
      <point x="97" y="637"/>
      <point x="113" y="633" type="curve"/>
      <point x="118" y="632"/>
      <point x="144" y="629"/>
      <point x="189" y="624" type="curve"/>
      <point x="323" y="372" type="line"/>
      <point x="113" y="99" type="line"/>
      <point x="67" y="94"/>
      <point x="43" y="91"/>
      <point x="37" y="90" type="curve"/>
      <point x="20" y="86"/>
      <point x="10" y="76"/>
      <point x="8" y="59" type="curve" smooth="yes"/>
      <point x="1" y="0" type="line"/>
      <point x="37" y="0" type="line"/>
      <point x="75" y="0" type="line"/>
      <point x="81" y="0" type="line"/>
      <point x="163" y="0" type="line"/>
      <point x="311" y="0" type="line"/>
      <point x="318" y="59" type="line" smooth="yes"/>
      <point x="320" y="76"/>
      <point x="313" y="86"/>
      <point x="297" y="90" type="curve" smooth="yes"/>
      <point x="280" y="94"/>
      <point x="266" y="97"/>
      <point x="256" y="99" type="curve"/>
      <point x="391" y="279" type="line"/>
      <point x="393" y="282"/>
      <point x="396" y="285"/>
      <point x="398" y="289" type="curve"/>
      <point x="400" y="292"/>
      <point x="401" y="296"/>
      <point x="403" y="300" type="curve"/>
      <point x="502" y="96" type="line"/>
      <point x="498" y="95"/>
      <point x="487" y="93"/>
      <point x="471" y="90" type="curve"/>
      <point x="454" y="86"/>
      <point x="445" y="76"/>
      <point x="443" y="59" type="curve" smooth="yes"/>
      <point x="435" y="0" type="line"/>
      <point x="570" y="0" type="line"/>
      <point x="662" y="0" type="line"/>
      <point x="671" y="0" type="line"/>
      <point x="704" y="0" type="line"/>
      <point x="742" y="0" type="line"/>
      <point x="749" y="59" type="line" smooth="yes"/>
      <point x="751" y="76"/>
      <point x="744" y="86"/>
    </contour>
    <contour>
      <point x="410" y="0" type="move" name="bottom"/>
    </contour>
    <contour>
      <point x="410" y="723" type="move" name="top"/>
    </contour>
  </outline>
</glyph>
<glyph name="Y" format="1">
  <advance width="696"/>
  <unicode hex="0059"/>
  <note>
    Y
  </note>
  <outline>
    <contour>
      <point x="752" y="723" type="line"/>
      <point x="736" y="723" type="line"/>
      <point x="718" y="723" type="line"/>
      <point x="676" y="723" type="line"/>
      <point x="617" y="723" type="line"/>
      <point x="482" y="723" type="line"/>
      <point x="475" y="664" type="line" smooth="yes"/>
      <point x="473" y="647"/>
      <point x="480" y="637"/>
      <point x="496" y="633" type="curve"/>
      <point x="497" y="633"/>
      <point x="498" y="633"/>
      <point x="500" y="632" type="curve"/>
      <point x="502" y="632"/>
      <point x="506" y="630"/>
      <point x="510" y="629" type="curve" smooth="yes"/>
      <point x="514" y="628"/>
      <point x="519" y="627"/>
      <point x="524" y="626" type="curve"/>
      <point x="407" y="451" type="line" smooth="yes"/>
      <point x="398" y="437"/>
      <point x="390" y="424"/>
      <point x="383" y="411" type="curve" smooth="yes"/>
      <point x="376" y="398"/>
      <point x="369" y="386"/>
      <point x="363" y="373" type="curve"/>
      <point x="360" y="385"/>
      <point x="356" y="398"/>
      <point x="352" y="411" type="curve" smooth="yes"/>
      <point x="348" y="424"/>
      <point x="343" y="437"/>
      <point x="337" y="451" type="curve" smooth="yes"/>
      <point x="263" y="626" type="line"/>
      <point x="268" y="627"/>
      <point x="274" y="628"/>
      <point x="278" y="629" type="curve" smooth="yes"/>
      <point x="282" y="630"/>
      <point x="285" y="631"/>
      <point x="287" y="632" type="curve"/>
      <point x="289" y="632"/>
      <point x="291" y="633"/>
      <point x="292" y="633" type="curve"/>
      <point x="309" y="637"/>
      <point x="319" y="647"/>
      <point x="321" y="664" type="curve" smooth="yes"/>
      <point x="328" y="723" type="line"/>
      <point x="193" y="723" type="line"/>
      <point x="134" y="723" type="line"/>
      <point x="93" y="723" type="line"/>
      <point x="75" y="723" type="line"/>
      <point x="58" y="723" type="line"/>
      <point x="51" y="664" type="line" smooth="yes"/>
      <point x="49" y="647"/>
      <point x="56" y="637"/>
      <point x="72" y="633" type="curve"/>
      <point x="73" y="633"/>
      <point x="75" y="633"/>
      <point x="78" y="632" type="curve"/>
      <point x="81" y="632"/>
      <point x="86" y="630"/>
      <point x="93" y="629" type="curve" smooth="yes"/>
      <point x="100" y="628"/>
      <point x="110" y="626"/>
      <point x="122" y="624" type="curve"/>
      <point x="284" y="281" type="line"/>
      <point x="262" y="99" type="line"/>
      <point x="249" y="97"/>
      <point x="238" y="95"/>
      <point x="231" y="94" type="curve" smooth="yes"/>
      <point x="224" y="93"/>
      <point x="219" y="92"/>
      <point x="216" y="91" type="curve" smooth="yes"/>
      <point x="213" y="90"/>
      <point x="211" y="90"/>
      <point x="210" y="90" type="curve"/>
      <point x="193" y="86"/>
      <point x="183" y="76"/>
      <point x="181" y="59" type="curve" smooth="yes"/>
      <point x="174" y="0" type="line"/>
      <point x="249" y="0" type="line"/>
      <point x="384" y="0" type="line"/>
      <point x="459" y="0" type="line"/>
      <point x="467" y="59" type="line" smooth="yes"/>
      <point x="469" y="76"/>
      <point x="462" y="86"/>
      <point x="446" y="90" type="curve"/>
      <point x="445" y="90"/>
      <point x="442" y="91"/>
      <point x="439" y="91" type="curve" smooth="yes"/>
      <point x="436" y="91"/>
      <point x="432" y="93"/>
      <point x="425" y="94" type="curve" smooth="yes"/>
      <point x="418" y="95"/>
      <point x="408" y="97"/>
      <point x="396" y="99" type="curve"/>
      <point x="418" y="281" type="line"/>
      <point x="664" y="624" type="line"/>
      <point x="677" y="626"/>
      <point x="688" y="628"/>
      <point x="695" y="629" type="curve" smooth="yes"/>
      <point x="702" y="630"/>
      <point x="707" y="632"/>
      <point x="710" y="632" type="curve" smooth="yes"/>
      <point x="713" y="632"/>
      <point x="714" y="633"/>
      <point x="716" y="633" type="curve"/>
      <point x="733" y="637"/>
      <point x="743" y="647"/>
      <point x="745" y="664" type="curve" smooth="yes"/>
    </contour>
    <contour>
      <point x="401" y="0" type="move" name="bottom"/>
    </contour>
    <contour>
      <point x="401" y="723" type="move" name="top"/>
    </contour>
    <contour>
      <point x="50" y="723" type="move" name="topleft"/>
    </contour>
  </outline>
</glyph>
<glyph name="Z" format="1">
  <advance width="709"/>
  <unicode hex="005A"/>
  <note>
    Z
  </note>
  <outline>
    <contour>
      <point x="219" y="107" type="line"/>
      <point x="654" y="631" type="line"/>
      <point x="664" y="644"/>
      <point x="670" y="658"/>
      <point x="672" y="673" type="curve" smooth="yes"/>
      <point x="678" y="723" type="line"/>
      <point x="143" y="723" type="line"/>
      <point x="119" y="526" type="line"/>
      <point x="172" y="526" type="line" smooth="yes"/>
      <point x="185" y="526"/>
      <point x="194" y="533"/>
      <point x="198" y="545" type="curve" smooth="yes"/>
      <point x="199" y="548"/>
      <point x="205" y="571"/>
      <point x="216" y="616" type="curve"/>
      <point x="491" y="616" type="line"/>
      <point x="54" y="90" type="line" smooth="yes"/>
      <point x="50" y="85"/>
      <point x="46" y="78"/>
      <point x="43" y="72" type="curve" smooth="yes"/>
      <point x="40" y="66"/>
      <point x="39" y="60"/>
      <point x="38" y="53" type="curve" smooth="yes"/>
      <point x="31" y="0" type="line"/>
      <point x="580" y="0" type="line"/>
      <point x="594" y="107" type="line"/>
      <point x="604" y="195" type="line"/>
      <point x="551" y="195" type="line" smooth="yes"/>
      <point x="538" y="195"/>
      <point x="530" y="188"/>
      <point x="526" y="176" type="curve" smooth="yes"/>
      <point x="525" y="173"/>
      <point x="520" y="150"/>
      <point x="509" y="107" type="curve"/>
    </contour>
    <contour>
      <point x="355" y="0" type="move" name="bottom"/>
    </contour>
    <contour>
      <point x="355" y="723" type="move" name="top"/>
    </contour>
  </outline>
</glyph>
<glyph name="bracketleft" format="1">
  <advance width="445"/>
  <unicode hex="005B"/>
  <note>
    bracketleft
  </note>
  <outline>
    <contour>
      <point x="193" y="773" type="line"/>
      <point x="79" y="-154" type="line"/>
      <point x="284" y="-154" type="line"/>
      <point x="290" y="-106" type="line" smooth="yes"/>
      <point x="291" y="-97"/>
      <point x="288" y="-89"/>
      <point x="283" y="-83" type="curve" smooth="yes"/>
      <point x="278" y="-77"/>
      <point x="271" y="-74"/>
      <point x="261" y="-74" type="curve" smooth="yes"/>
      <point x="192" y="-74" type="line"/>
      <point x="286" y="694" type="line"/>
      <point x="355" y="694" type="line" smooth="yes"/>
      <point x="365" y="694"/>
      <point x="373" y="697"/>
      <point x="380" y="703" type="curve" smooth="yes"/>
      <point x="387" y="709"/>
      <point x="391" y="716"/>
      <point x="392" y="725" type="curve" smooth="yes"/>
      <point x="398" y="773" type="line"/>
    </contour>
  </outline>
</glyph>
<glyph name="backslash" format="1">
  <advance width="359"/>
  <unicode hex="005C"/>
  <note>
    backslash
  </note>
  <outline>
    <contour>
      <point x="78" y="743" type="curve" smooth="yes"/>
      <point x="25" y="743" type="line"/>
      <point x="224" y="-2" type="line" smooth="yes"/>
      <point x="228" y="-17"/>
      <point x="235" y="-28"/>
      <point x="247" y="-36" type="curve" smooth="yes"/>
      <point x="259" y="-44"/>
      <point x="270" y="-48"/>
      <point x="283" y="-48" type="curve" smooth="yes"/>
      <point x="335" y="-48" type="line"/>
      <point x="136" y="700" type="line" smooth="yes"/>
      <point x="132" y="714"/>
      <point x="125" y="724"/>
      <point x="115" y="732" type="curve" smooth="yes"/>
      <point x="105" y="740"/>
      <point x="93" y="743"/>
    </contour>
  </outline>
</glyph>
<glyph name="bracketright" format="1">
  <advance width="445"/>
  <unicode hex="005D"/>
  <note>
    bracketright
  </note>
  <outline>
    <contour>
      <point x="53" y="-106" type="curve" smooth="yes"/>
      <point x="47" y="-154" type="line"/>
      <point x="252" y="-154" type="line"/>
      <point x="366" y="774" type="line"/>
      <point x="161" y="774" type="line"/>
      <point x="155" y="725" type="line" smooth="yes"/>
      <point x="154" y="716"/>
      <point x="156" y="709"/>
      <point x="161" y="703" type="curve" smooth="yes"/>
      <point x="166" y="697"/>
      <point x="174" y="694"/>
      <point x="184" y="694" type="curve" smooth="yes"/>
      <point x="253" y="694" type="line"/>
      <point x="159" y="-74" type="line"/>
      <point x="90" y="-74" type="line" smooth="yes"/>
      <point x="80" y="-74"/>
      <point x="72" y="-77"/>
      <point x="65" y="-83" type="curve" smooth="yes"/>
      <point x="58" y="-89"/>
      <point x="54" y="-97"/>
    </contour>
  </outline>
</glyph>
<glyph name="asciicircum" format="1">
  <advance width="524"/>
  <unicode hex="005E"/>
  <note>
    asciicircum
  </note>
  <outline>
    <contour>
      <point x="398" y="388" type="curve" smooth="yes"/>
      <point x="488" y="388" type="line"/>
      <point x="343" y="723" type="line"/>
      <point x="263" y="723" type="line"/>
      <point x="36" y="388" type="line"/>
      <point x="130" y="388" type="line" smooth="yes"/>
      <point x="139" y="388"/>
      <point x="147" y="390"/>
      <point x="152" y="394" type="curve" smooth="yes"/>
      <point x="157" y="398"/>
      <point x="162" y="403"/>
      <point x="166" y="409" type="curve" smooth="yes"/>
      <point x="261" y="554" type="line" smooth="yes"/>
      <point x="267" y="563"/>
      <point x="272" y="572"/>
      <point x="277" y="580" type="curve" smooth="yes"/>
      <point x="282" y="588"/>
      <point x="286" y="597"/>
      <point x="290" y="606" type="curve"/>
      <point x="292" y="597"/>
      <point x="294" y="588"/>
      <point x="297" y="580" type="curve" smooth="yes"/>
      <point x="300" y="572"/>
      <point x="304" y="563"/>
      <point x="308" y="554" type="curve" smooth="yes"/>
      <point x="370" y="409" type="line"/>
      <point x="373" y="403"/>
      <point x="376" y="398"/>
      <point x="380" y="394" type="curve" smooth="yes"/>
      <point x="384" y="390"/>
      <point x="390" y="388"/>
    </contour>
  </outline>
</glyph>
<glyph name="underscore" format="1">
  <advance width="492"/>
  <unicode hex="005F"/>
  <note>
    underscore
  </note>
  <outline>
    <contour>
      <point x="438" y="-147" type="line"/>
      <point x="448" y="-67" type="line"/>
      <point x="54" y="-67" type="line"/>
      <point x="44" y="-147" type="line"/>
    </contour>
  </outline>
</glyph>
<glyph name="grave" format="1">
  <advance width="277"/>
  <unicode hex="0060"/>
  <note>
    grave
  </note>
  <outline>
    <contour>
      <point x="146" y="731" type="curve" smooth="yes"/>
      <point x="30" y="731" type="line"/>
      <point x="138" y="600" type="line"/>
      <point x="143" y="593"/>
      <point x="148" y="590"/>
      <point x="154" y="587" type="curve"/>
      <point x="160" y="585"/>
      <point x="167" y="583"/>
      <point x="176" y="583" type="curve" smooth="yes"/>
      <point x="247" y="583" type="line"/>
      <point x="190" y="704" type="line" smooth="yes"/>
      <point x="186" y="713"/>
      <point x="181" y="720"/>
      <point x="175" y="724" type="curve" smooth="yes"/>
      <point x="169" y="728"/>
      <point x="160" y="731"/>
    </contour>
  </outline>
</glyph>
